<svg xmlns="http://www.w3.org/2000/svg" width="17.397" height="17.397" viewBox="0 0 17.397 17.397">
  <g id="Group_12134" data-name="Group 12134" transform="translate(0 0)">
    <g id="Group_12132" data-name="Group 12132" transform="translate(4.651 5.05)">
      <path id="Path_23307" data-name="Path 23307" d="M53.4,790.185a.415.415,0,0,0,.426.425l2.408.008a.388.388,0,0,0,.3-.122.433.433,0,0,0-.3-.729H54.854l3.48-3.48a.43.43,0,0,0-.608-.607l-3.479,3.479v-1.383a.434.434,0,0,0-.73-.3.39.39,0,0,0-.121.3Z" transform="translate(-53.395 -785.554)" fill="#c4a36b" fill-rule="evenodd"/>
      <path id="Path_23308" data-name="Path 23308" d="M61.9,788.947a.414.414,0,0,0-.425-.425l-2.409-.008a.389.389,0,0,0-.3.122.433.433,0,0,0,.3.729h1.383l-3.48,3.48a.43.43,0,1,0,.608.607l3.48-3.479v1.383a.433.433,0,0,0,.729.3.391.391,0,0,0,.122-.3Z" transform="translate(-53.395 -785.554)" fill="#c4a36b" fill-rule="evenodd"/>
    </g>
    <g id="Group_12133" data-name="Group 12133">
      <path id="Path_23309" data-name="Path 23309" d="M57.442,797.9a8.7,8.7,0,1,1,8.7-8.7A8.708,8.708,0,0,1,57.442,797.9Zm0-16.647a7.948,7.948,0,1,0,7.949,7.949A7.957,7.957,0,0,0,57.442,781.254Z" transform="translate(-48.744 -780.504)" fill="#c4a36b"/>
    </g>
  </g>
</svg>
