<svg xmlns="http://www.w3.org/2000/svg" width="62.052" height="62.052" viewBox="0 0 62.052 62.052">
  <g id="Group_12334" data-name="Group 12334" transform="translate(-1233.264 -2029.23)">
    <circle id="Ellipse_55" data-name="Ellipse 55" cx="31.026" cy="31.026" r="31.026" transform="translate(1233.264 2029.23)" fill="#f3ba2f"/>
    <path id="Path_23326" data-name="Path 23326" d="M1210.185,2014.964l7.532-7.532,7.535,7.536,4.383-4.383-11.918-11.918-11.914,11.914Zm-11.859,3.095,4.382-4.383,4.382,4.383-4.382,4.382Zm11.859,3.094,7.532,7.532,7.535-7.535,4.383,4.38-11.918,11.92-11.914-11.914-.006-.006Zm18.158-3.094,4.383-4.383,4.382,4.383-4.382,4.382Zm-6.182,0h0v0l-4.448,4.448-4.443-4.441-.007-.007.007-.006.778-.78.378-.378,3.287-3.285,4.446,4.447Z" transform="translate(46.573 42.198)" fill="#fff"/>
  </g>
</svg>
