<svg xmlns="http://www.w3.org/2000/svg" width="62.052" height="62.052" viewBox="0 0 62.052 62.052">
  <g id="Group_12149" data-name="Group 12149" transform="translate(-438.996 -1659.046)">
    <circle id="Ellipse_56" data-name="Ellipse 56" cx="31.026" cy="31.026" r="31.026" transform="translate(438.996 1659.046)" fill="#f7931a"/>
    <path id="Path_23327" data-name="Path 23327" d="M483.963,1686.233c.609-4.065-2.488-6.25-6.719-7.709l1.373-5.507-3.351-.834-1.338,5.362c-.88-.221-1.784-.426-2.686-.632l1.348-5.4-3.351-.835-1.373,5.505c-.729-.167-1.446-.33-2.141-.5l0-.018-4.623-1.154-.892,3.58s2.488.57,2.436.6a1.784,1.784,0,0,1,1.561,1.951l-1.563,6.273a3.02,3.02,0,0,1,.349.11l-.355-.087-2.191,8.788a1.222,1.222,0,0,1-1.538.8c.035.049-2.435-.606-2.435-.606l-1.664,3.835,4.363,1.088c.811.2,1.606.417,2.387.617l-1.386,5.569,3.348.834,1.373-5.507c.916.246,1.8.475,2.673.692l-1.37,5.484,3.351.834,1.387-5.558c5.716,1.082,10.014.646,11.823-4.524,1.458-4.161-.072-6.564-3.08-8.129C481.875,1690.65,483.523,1689.209,483.963,1686.233Zm-7.66,10.738c-1.033,4.164-8.043,1.912-10.316,1.348l1.842-7.378C470.1,1691.509,477.387,1692.632,476.3,1696.971Zm1.038-10.8c-.944,3.788-6.777,1.862-8.668,1.391l1.668-6.69C472.231,1681.344,478.326,1682.222,477.341,1686.172Z" fill="#fff"/>
  </g>
</svg>
