<svg xmlns="http://www.w3.org/2000/svg" width="17.52" height="17.52" viewBox="0 0 17.52 17.52">
  <g id="Group_12131" data-name="Group 12131" transform="translate(0 0)">
    <path id="Path_23304" data-name="Path 23304" d="M61.289,741.842c.166-1.054-.653-1.609-1.776-1.984l.361-1.415-.889-.208-.346,1.374c-.236-.056-.472-.111-.722-.167l.361-1.387-.888-.208-.361,1.415c-.194-.042-.388-.084-.568-.139l-1.221-.291-.236.915s.652.153.638.153a.457.457,0,0,1,.416.5l-.416,1.609a.718.718,0,0,0,.1.041.2.2,0,0,0-.1-.027l-.582,2.261a.316.316,0,0,1-.4.194c.014.014-.638-.153-.638-.153l-.444.985,1.152.278c.221.055.43.111.638.166l-.375,1.429.888.222.361-1.428c.25.069.485.124.707.18l-.361,1.415.888.208.375-1.429c1.512.277,2.65.166,3.122-1.151a1.492,1.492,0,0,0-.819-2.1A1.381,1.381,0,0,0,61.289,741.842ZM59.263,744.6c-.278,1.068-2.122.485-2.733.347l.486-1.9C57.626,743.188,59.554,743.479,59.263,744.6Zm.278-2.775c-.25.972-1.8.472-2.3.347l.443-1.72C58.181,740.58,59.8,740.815,59.541,741.828Z" transform="translate(-48.683 -734.053)" fill="#c4a36b" fill-rule="evenodd"/>
    <path id="Path_23305" data-name="Path 23305" d="M64.654,739.458a7.974,7.974,0,1,1-5.012-4.291,3.483,3.483,0,0,1,.378-.727,8.8,8.8,0,1,0,5.29,4.538A3.534,3.534,0,0,1,64.654,739.458Z" transform="translate(-48.683 -734.053)" fill="#c4a36b" fill-rule="evenodd"/>
    <path id="Path_23306" data-name="Path 23306" d="M60.935,736.823h1.58v1.59a.393.393,0,0,0,.4.39.384.384,0,0,0,.39-.39v-1.59h1.58a.393.393,0,0,0,.4-.39.4.4,0,0,0-.4-.4h-1.58v-1.58a.393.393,0,0,0-.39-.4.4.4,0,0,0-.4.4v1.58h-1.58a.4.4,0,0,0-.4.4.393.393,0,0,0,.4.39" transform="translate(-48.683 -734.053)" fill="#c4a36b" fill-rule="evenodd"/>
  </g>
</svg>
