<svg xmlns="http://www.w3.org/2000/svg" width="72.113" height="93.576" viewBox="0 0 72.113 93.576">
  <g id="Group_12144" data-name="Group 12144" transform="translate(-734.844 -1238.814)">
    <g id="Group_12143" data-name="Group 12143">
      <g id="Group_12142" data-name="Group 12142">
        <path id="Path_23316" data-name="Path 23316" d="M767.585,1253.787l-1.033.495c-.093-.123-.016-.213.01-.3.5-1.694,1-3.389,1.516-5.079a.533.533,0,0,0-.168-.651,25.994,25.994,0,0,0-2.326-1.752,11.267,11.267,0,0,1-1.849-1.509c-.082-.088-.2-.156-.213-.292.062-.1.158-.059.238-.06.349-.006.7,0,1.047-.007l4.446-.058c.311,0,.313-.005.419-.3q.914-2.548,1.825-5.1a.828.828,0,0,1,.169-.359,6.722,6.722,0,0,1,.293.843c.052.149.048.327.2.427a.7.7,0,0,0,.05.4q.612,1.922,1.222,3.842c.095.3.095.3.409.3.149,0,.3,0,.448,0l5.341.023c.026.176-.125.225-.128.34a1.232,1.232,0,0,0-.19.111,23.634,23.634,0,0,1-2.022,1.527,19.552,19.552,0,0,0-2.1,1.661.507.507,0,0,0-.167.609c.428,1.374.835,2.755,1.257,4.132a7.3,7.3,0,0,0,.383,1.164c-.025.072-.073.1-.141.062-.129-.072-.258-.147-.383-.227-.91-.577-1.759-1.242-2.655-1.839-.309-.206-.631-.392-.944-.591a.5.5,0,0,0-.348-.093c-.11-.25-.379-.244-.574-.356a.362.362,0,0,0-.415.038c-.285.2-.581.378-.862.58-.885.636-1.721,1.339-2.651,1.912A.57.57,0,0,0,767.585,1253.787Z" fill="#c4a36b"/>
        <path id="Path_23317" data-name="Path 23317" d="M758.584,1256.466c-.15.046-.261-.051-.379-.109a11.849,11.849,0,0,1-1.464-.932,2.08,2.08,0,0,0-.627-.378c-.121-.189-.339-.239-.511-.356a.329.329,0,0,0-.406.011c-.567.354-1.143.695-1.717,1.039a.808.808,0,0,0-.22.2,2.913,2.913,0,0,0-.684.362c-.12.059-.216.171-.364.169h0a2.872,2.872,0,0,1,.2-.9c.2-.743.406-1.485.633-2.22a.467.467,0,0,0-.109-.5,7.538,7.538,0,0,0-1.377-1.194,7.091,7.091,0,0,1-1.107-.94.5.5,0,0,1-.178-.265,2.913,2.913,0,0,1,.748-.089c.659-.013,1.318-.016,1.977-.03.26-.006.521-.046.781-.039.216.007.3-.1.377-.277.411-.946.834-1.887,1.254-2.829.04-.089.088-.175.15-.3.165.162.164.372.252.536s.049.43.278.538a.52.52,0,0,0,.044.392c.145.411.28.825.436,1.231.337.878.072.688,1.022.746l3.026.126c.025.156-.1.2-.107.3a.8.8,0,0,0-.166.082c-.824.7-1.646,1.408-2.47,2.11a.235.235,0,0,0-.086.294,2.191,2.191,0,0,1,.074.289Q758.225,1255,758.584,1256.466Z" fill="#c4a36b"/>
        <path id="Path_23318" data-name="Path 23318" d="M789.952,1250.325c.99.018,1.974.12,2.965.174.041.13-.077.181-.1.268-.386.268-.768.542-1.16.8a7.78,7.78,0,0,0-1.444,1.279.464.464,0,0,0-.117.5c.275.952.53,1.91.793,2.865a.8.8,0,0,0,.14.3c-.167.084-.284-.04-.407-.108a18.875,18.875,0,0,1-1.708-1.1,1.388,1.388,0,0,0-.442-.263c-.115-.157-.3-.214-.446-.332a.377.377,0,0,0-.505,0c-.577.368-1.164.721-1.749,1.076a.5.5,0,0,0-.234.227c-.278.02-.459.235-.693.345-.121.057-.216.17-.361.178-.064-.089-.007-.169.015-.25.286-1.043.562-2.09.867-3.127a.509.509,0,0,0-.2-.635c-.745-.583-1.476-1.185-2.211-1.781-.122-.1-.241-.2-.366-.309.106-.113.212-.074.3-.076,1.07-.03,2.14-.063,3.211-.075a.42.42,0,0,0,.437-.308c.417-.986.845-1.967,1.269-2.95.029-.067.06-.134.1-.235.233.386.267.821.493,1.172a.594.594,0,0,0,.011.147c.232.667.468,1.332.7,2a.236.236,0,0,0,.249.173C789.558,1250.28,789.755,1250.307,789.952,1250.325Z" fill="#c4a36b"/>
        <path id="Path_23319" data-name="Path 23319" d="M803.8,1260.659c-.114.143-.2,0-.28-.04-.483-.273-.958-.558-1.437-.837a2.435,2.435,0,0,0-.233-.107,3.176,3.176,0,0,0-.585-.382.215.215,0,0,0-.272,0c-.432.306-.893.572-1.3.912l-1.017.659a.453.453,0,0,1,.005-.333c.19-.784.373-1.57.574-2.351a.412.412,0,0,0-.112-.431c-.5-.554-1.1-1-1.639-1.522-.157-.151-.317-.3-.526-.5.509-.027.939-.056,1.368-.07.485-.015.97-.026,1.455-.019a.384.384,0,0,0,.435-.294c.282-.77.6-1.528.9-2.29.03-.077.067-.151.118-.264a8.208,8.208,0,0,1,.537,1.094c.118.425.235.851.356,1.275a.7.7,0,0,0,.533.508,1.5,1.5,0,0,0,.437.047,5.675,5.675,0,0,0,1.221.083,8.767,8.767,0,0,1,1.069.079c-.018.136-.192.142-.187.272a.734.734,0,0,0-.31.114c-.531.348-1.06.7-1.6,1.036a.317.317,0,0,0-.147.407c.079.325.129.658.205.985C803.522,1259.348,803.607,1260.016,803.8,1260.659Z" fill="#c4a36b"/>
        <path id="Path_23320" data-name="Path 23320" d="M740.331,1260.2c-.33.108-.591.357-.914.464-.1-.086-.058-.175-.043-.254.159-.829.313-1.66.487-2.486a.537.537,0,0,0-.228-.6c-.579-.45-1.143-.92-1.713-1.382-.047-.039-.1-.071-.108-.146.071-.1.18-.055.271-.056.772-.011,1.543-.015,2.315-.022.368,0,.368-.005.511-.351q.5-1.2,1-2.41c.023-.057.055-.11.1-.189.218.409.262.854.473,1.233a4.721,4.721,0,0,0,.284.952c.078.229.073.538.276.662s.479.043.724.035c.778.022,1.554.089,2.346.07-.032.179-.184.2-.248.3-.67.433-1.287.939-1.94,1.4a.306.306,0,0,0-.118.384c.222.88.431,1.763.643,2.645a.982.982,0,0,0,.129.308c-.017.134-.091.121-.183.073a7.078,7.078,0,0,1-.86-.577,3.481,3.481,0,0,0-.815-.566,1.729,1.729,0,0,0-.568-.409.22.22,0,0,0-.247,0C741.381,1259.585,740.827,1259.843,740.331,1260.2Z" fill="#c4a36b"/>
      </g>
      <path id="Path_23321" data-name="Path 23321" d="M806.915,1268.84q-.04,1.1-.124,2.313c-.013.181-.028.365-.043.551s-.029.365-.047.551c-1.04,11.682-5.785,29.814-23.253,46.006.1-.606.2-1.221.26-1.827a25.637,25.637,0,0,0,.161-2.572,23.331,23.331,0,0,0-.359-4.292,17.521,17.521,0,0,0-3.13-7.347,16.545,16.545,0,0,0-4.094-4.066,20.918,20.918,0,0,1-4.227-3.622,7.726,7.726,0,0,1-1.929-6.949c.076-.35.171-.691.275-1.012a7.559,7.559,0,0,1,.662-1.428c.113,1.012.189,2.08.378,3.13a5.437,5.437,0,0,0,1.768,3.177,1.719,1.719,0,0,0,.236.17c1.551.766,4.18,1.749,5.929,2.818.009,0,.019,0,.019.009a6.584,6.584,0,0,1,2.449,1.835,16.287,16.287,0,0,1,2.458,4.623,4.736,4.736,0,0,0,.965,2.222c.047.038.094.086.142.133a.927.927,0,0,0,1.6-.255,1.139,1.139,0,0,1,.889-.435.788.788,0,0,1,.861.5,2.183,2.183,0,0,0,.274.463,1.333,1.333,0,0,0,.955.492,2.658,2.658,0,0,0,2.184-.851,5.315,5.315,0,0,0,1.447-4.17,14.433,14.433,0,0,0-.615-3.584c-.681-2.231-1.494-4.444-2.3-6.647a25.148,25.148,0,0,1-1.854-8.576,9.231,9.231,0,0,0-.264-2.1,9.615,9.615,0,0,0-3.868-5.967,9.571,9.571,0,0,0-1.314-.775l-.009-.009c-.275-.142-.558-.265-.842-.388a21.6,21.6,0,0,0-2.222-.709.168.168,0,0,0,.009-.066c.189,0,.388.009.577.009.709.028,1.418.047,2.175.076a13.606,13.606,0,0,1,3.045-6.714,12.154,12.154,0,0,0-4.1,1.485,26.709,26.709,0,0,0-3.489,2.42,1.159,1.159,0,0,1-.142-.094c.161-.435.331-.87.492-1.314.652-1.712,1.3-3.433,1.966-5.182v-.009a15.836,15.836,0,0,0-3.753,1.645,40.663,40.663,0,0,0-3.452,2.326,37.08,37.08,0,0,0-3.1,2.732c-1,.965-1.929,1.986-2.884,2.988a.488.488,0,0,1-.076-.038c.738-1.181,1.475-2.363,2.222-3.536.038-.075.086-.151.133-.227l.009-.009c-.728.132-1.513.236-2.278.416a41.231,41.231,0,0,0-9.494,3.508,28.575,28.575,0,0,0-10.155,8.746c-.189.274-.369.558-.539.842s-.321.557-.529.926a43.042,43.042,0,0,1,8.736-4.349,19.158,19.158,0,0,1,3.234-.757,1.522,1.522,0,0,1-.208.142,31.927,31.927,0,0,0-11.044,8.113,15.776,15.776,0,0,0-3.46,6.4,25.748,25.748,0,0,0-.719,7.981c0,.123.019.246.028.368.019.27.047.549.084.819l0-.006q-.51-.907-.981-1.814a68.822,68.822,0,0,1-7.515-25.5c-.02-.221-.04-.442-.057-.661s-.037-.446-.052-.667q-.086-1.221-.124-2.331c-.04,1.072-.057,2.316-.02,3.7.007.34.02.69.035,1.05.005.107.01.214.015.323.625,13.708,6.167,39.3,35.988,58.4,29.453-19.153,35.216-44.263,35.958-57.991.01-.181.02-.359.028-.536.012-.216.019-.427.027-.638.005-.086.007-.173.01-.258.005-.149.007-.3.012-.439C806.972,1271.143,806.957,1269.907,806.915,1268.84ZM787.2,1282.432c-.861.208-.331.993-.7,1.5-2.137-1.05-.728-2.232-3.622-4.463C785.231,1280.144,786.035,1281.789,787.2,1282.432Zm-16.3,45.553a87.733,87.733,0,0,1-16.833-13.857c-.288-.305-.571-.611-.846-.918a73.452,73.452,0,0,1-6.87-8.823c.028-.325.074-.658.12-.982.728-4.738,3.565-9.635,10.543-11.971-5.371,4.974-5.938,12.916-3.858,20.055.095-3.376,1.522-7.215,5.286-11.432-8.491,15.838,10.117,17.786,12.84,25.965a6.829,6.829,0,0,1,.309,1.508h0Z" fill="#c4a36b"/>
    </g>
  </g>
</svg>
