<svg xmlns="http://www.w3.org/2000/svg" width="23.458" height="23.457" viewBox="0 0 23.458 23.457">
  <path id="Path_23357" data-name="Path 23357" d="M1334.447,3424.313h-.015a1.544,1.544,0,0,0-.467-1.129,1.245,1.245,0,0,0-.285-.223l-4.511-3.509a1.585,1.585,0,0,0-2.09-.142l-1.264,1.269v0a1.039,1.039,0,0,1-.781.36,1.074,1.074,0,0,1-.873-.454c-.015.009-.015.019-.03.031a20.266,20.266,0,0,1-4.541-4.535c.015,0,.015-.015.03-.015a1.117,1.117,0,0,1-.466-.887,1.035,1.035,0,0,1,.391-.812l1.248-1.248a1.612,1.612,0,0,0,.331-.962,1.555,1.555,0,0,0-.481-1.128l-3.5-4.511a1.352,1.352,0,0,0-.225-.286,1.6,1.6,0,0,0-1.128-.466c-2.135,0-4.8,2.511-4.8,5.594a5.528,5.528,0,0,0,.541,2.39l-.015.016a33.822,33.822,0,0,0,14.932,14.933l.015-.017a5.55,5.55,0,0,0,2.391.541c3.082,0,5.594-2.666,5.594-4.8v-.009m-5.594,3.741a4.481,4.481,0,0,1-1.94-.439,1.15,1.15,0,0,0-.18-.064,32.624,32.624,0,0,1-14.165-14.174c-.03-.06-.045-.12-.075-.181a4.56,4.56,0,0,1-.436-1.939c0-2.587,2.255-4.526,3.729-4.526a.519.519,0,0,1,.376.15.37.37,0,0,1,.075.1c.015.03.045.06.06.09l3.519,4.511a.381.381,0,0,0,.075.091.549.549,0,0,1,.165.376.518.518,0,0,1-.075.27l-1.188,1.188c-.015,0-.015,0-.03.015a2.151,2.151,0,0,0-.661,1.549,2.176,2.176,0,0,0,.571,1.474.206.206,0,0,1,.045.06,21.173,21.173,0,0,0,4.8,4.766c.015.009.03.02.03.029a2.18,2.18,0,0,0,1.489.6,2.138,2.138,0,0,0,1.488-.615c.015-.018.045-.036.06-.057l1.188-1.2a.54.54,0,0,1,.271-.079.522.522,0,0,1,.376.156.468.468,0,0,0,.1.089l4.511,3.509c.03.023.06.044.09.064a.476.476,0,0,1,.091.07.525.525,0,0,1,.15.376c0,.036.015.072.015.108-.09,1.468-2,3.633-4.526,3.633" transform="translate(-1310.989 -3405.663)" fill="#fff" fill-rule="evenodd"/>
</svg>
