<svg xmlns="http://www.w3.org/2000/svg" width="16.804" height="13.831" viewBox="0 0 16.804 13.831">
  <path id="Path_23299" data-name="Path 23299" d="M64.315,524.757H59.737a1.538,1.538,0,0,0-1.53-1.541H55.148a1.538,1.538,0,0,0-1.529,1.541H49.041a.768.768,0,0,0-.765.765v3.845a.768.768,0,0,0,.765.765v6.151a.766.766,0,0,0,.764.764H63.55a.767.767,0,0,0,.765-.764v-6.151a.768.768,0,0,0,.765-.765v-3.845a.768.768,0,0,0-.765-.765m-9.167-.776h3.059a.771.771,0,0,1,.765.776H54.383a.771.771,0,0,1,.765-.776m8.4,12.3H49.805v-6.151h1.53v.765a.763.763,0,0,0,.765.775h1.519a.769.769,0,0,0,.764-.775v-.765h4.589v.765a.77.77,0,0,0,.765.775h1.519a.763.763,0,0,0,.765-.775v-.765H63.55ZM52.1,528.592h1.519v2.3H52.1Zm7.637,0h1.519v2.3H59.737Zm4.578.775H62.021v-.775a.761.761,0,0,0-.765-.765H59.737a.768.768,0,0,0-.765.765v.775H54.383v-.775a.767.767,0,0,0-.764-.765H52.1a.761.761,0,0,0-.765.765v.775H49.041v-3.845H64.315Z" transform="translate(-48.276 -523.216)" fill="#c4a36b" fill-rule="evenodd"/>
</svg>
