<svg xmlns="http://www.w3.org/2000/svg" width="62.052" height="62.052" viewBox="0 0 62.052 62.052">
  <g id="Group_12336" data-name="Group 12336" transform="translate(-1233.264 -1701.243)">
    <circle id="Ellipse_54" data-name="Ellipse 54" cx="31.026" cy="31.026" r="31.026" transform="translate(1233.264 1701.243)" fill="#008ce7"/>
    <g id="Group_12148" data-name="Group 12148" transform="translate(46.573 42.198)">
      <path id="Path_23324" data-name="Path 23324" d="M1223.7,1674.567h-14.109l-1.167,6.529,12.724.019c6.266,0,8.125,2.275,8.065,6.05a27.453,27.453,0,0,1-1.227,6.264c-.964,2.831-2.95,6.054-10.392,6.044l-12.368-.008L1204.06,1706h14.072c4.962,0,7.076-.58,9.308-1.609,4.952-2.285,7.9-7.177,9.087-13.563,1.756-9.5-.435-16.263-12.828-16.263Z" fill="#fff"/>
      <path id="Path_23325" data-name="Path 23325" d="M1217.343,1689.68c.459-1.91.6-2.676.6-2.676h-14.439c-3.692,0-4.22,2.405-4.571,3.859-.459,1.9-.6,2.678-.6,2.678h14.441C1216.464,1693.541,1216.992,1691.137,1217.343,1689.68Z" fill="#fff"/>
    </g>
  </g>
</svg>
