<svg xmlns="http://www.w3.org/2000/svg" width="17.709" height="17.708" viewBox="0 0 17.709 17.708">
  <path id="Path_23300" data-name="Path 23300" d="M57.884,574.916h4.029a.4.4,0,0,0,0-.808H57.884a.4.4,0,0,0,0,.808m0-1.616H60.3a.4.4,0,1,0,0-.808H57.884a.4.4,0,0,0,0,.808m0,3.221H59.5a.4.4,0,0,0,0-.808H57.884a.4.4,0,0,0,0,.808m-6.032,1.6h3.221a.8.8,0,0,0,.8-.8V573.3a.805.805,0,0,0-.8-.808H51.852a.808.808,0,0,0-.808.808v4.029a.8.8,0,0,0,.808.8m0-4.826h3.221v4.029H51.852Zm6.032,4.826h4.029a.4.4,0,0,0,0-.8H57.884a.4.4,0,0,0,0,.8m6.84-9.652H57.486a.808.808,0,0,0-1.616,0H48.631a.8.8,0,0,0-.808.8v.807a.807.807,0,0,0,.808.808v9.663a.8.8,0,0,0,.8.8h6.851v1.045l-2.305,2.294a.442.442,0,0,0-.118.291.407.407,0,0,0,.409.4.391.391,0,0,0,.28-.118l2.133-2.133,2.133,2.133a.391.391,0,0,0,.28.118.407.407,0,0,0,.409-.4.443.443,0,0,0-.119-.291l-2.305-2.294v-1.045h6.851a.8.8,0,0,0,.8-.8v-9.663a.806.806,0,0,0,.808-.808v-.807a.8.8,0,0,0-.808-.8m-.8,12.076h-14.5v-9.663h14.5Zm.8-10.471H48.631v-.807H64.724Z" transform="translate(-47.823 -567.667)" fill="#c4a36b" fill-rule="evenodd"/>
</svg>
