<svg xmlns="http://www.w3.org/2000/svg" width="54.522" height="54.522" viewBox="0 0 54.522 54.522">
  <path id="Path_23501" data-name="Path 23501" d="M678.118,426.674a8.159,8.159,0,0,0-2.054-1.151c-.778-.28-1.369-.56-2.178-.778V418.8a2.182,2.182,0,0,1,1.9.778,3.376,3.376,0,0,1,.747,2.178h3.112a5.78,5.78,0,0,0-.5-2.4,4.5,4.5,0,0,0-1.276-1.712,4.88,4.88,0,0,0-1.9-1.027,6.533,6.533,0,0,0-2.085-.342v-1.836h-1.618v1.836a5.936,5.936,0,0,0-2.116.374,6.432,6.432,0,0,0-1.992,1.058,5.28,5.28,0,0,0-1.369,1.711,5.617,5.617,0,0,0-.5,2.365,5.369,5.369,0,0,0,.56,2.583,5.187,5.187,0,0,0,1.431,1.743,9.444,9.444,0,0,0,1.992,1.12c.716.28,1.245.529,1.992.747v6.784a2.853,2.853,0,0,1-2.49-1.12A4.6,4.6,0,0,1,669,430.72h-3.112a6.485,6.485,0,0,0,.467,2.769,5.466,5.466,0,0,0,1.338,2.054,6.358,6.358,0,0,0,2.085,1.276,7.866,7.866,0,0,0,2.49.467v1.93h1.618v-1.93a6.9,6.9,0,0,0,2.3-.467,5.635,5.635,0,0,0,2.054-1.182,5.177,5.177,0,0,0,1.369-1.93,6.729,6.729,0,0,0,.5-2.738,5.738,5.738,0,0,0-.529-2.552,5.278,5.278,0,0,0-1.463-1.743m-5.85-2.24a7.783,7.783,0,0,1-.9-.343,4.367,4.367,0,0,1-1-.56,2.879,2.879,0,0,1-.684-.809,2.251,2.251,0,0,1-.28-1.151,2.529,2.529,0,0,1,.809-2.117,2.858,2.858,0,0,1,2.054-.653Zm3.8,9.429a3.323,3.323,0,0,1-2.178.9V428.23a9.456,9.456,0,0,1,1,.374,4.582,4.582,0,0,1,1.089.591,2.983,2.983,0,0,1,.747.9,3.523,3.523,0,0,1-.654,3.766M673.17,399.6a27.261,27.261,0,1,0,27.261,27.261A27.253,27.253,0,0,0,673.17,399.6m0,52.032a24.771,24.771,0,1,1,24.772-24.771,24.756,24.756,0,0,1-24.772,24.771" transform="translate(-645.909 -399.6)" fill="#c4a36b" fill-rule="evenodd"/>
</svg>
