<svg xmlns="http://www.w3.org/2000/svg" xmlns:xlink="http://www.w3.org/1999/xlink" width="214.695" height="283.375" viewBox="0 0 214.695 283.375">
  <defs>
    <linearGradient id="linear-gradient" x1="-42.28" y1="0.5" x2="-41.28" y2="0.5" gradientUnits="objectBoundingBox">
      <stop offset="0" stop-color="#d4a600"/>
      <stop offset="0.226" stop-color="#d4a600"/>
      <stop offset="0.511" stop-color="#ebcc6f"/>
      <stop offset="0.78" stop-color="#edd079"/>
      <stop offset="1" stop-color="#edd079"/>
    </linearGradient>
    <linearGradient id="linear-gradient-2" x1="-50.328" y1="0.5" x2="-49.11" y2="0.5" gradientUnits="objectBoundingBox">
      <stop offset="0" stop-color="#d7ac47"/>
      <stop offset="0.022" stop-color="#cfa140"/>
      <stop offset="0.094" stop-color="#ba842e"/>
      <stop offset="0.172" stop-color="#aa6e20"/>
      <stop offset="0.255" stop-color="#9e5e16"/>
      <stop offset="0.35" stop-color="#985410"/>
      <stop offset="0.478" stop-color="#96520f"/>
      <stop offset="0.621" stop-color="#aa6d1e"/>
      <stop offset="0.925" stop-color="#dfb345"/>
      <stop offset="1" stop-color="#edc650"/>
    </linearGradient>
    <linearGradient id="linear-gradient-3" x1="-50.328" y1="0.5" x2="-49.11" y2="0.5" xlink:href="#linear-gradient"/>
    <linearGradient id="linear-gradient-4" x1="-88.26" y1="24.017" x2="-87.685" y2="23.155" gradientUnits="objectBoundingBox">
      <stop offset="0" stop-color="#d4a537"/>
      <stop offset="0.374" stop-color="#daad3d"/>
      <stop offset="0.968" stop-color="#ebc44e"/>
      <stop offset="1" stop-color="#edc650"/>
    </linearGradient>
    <linearGradient id="linear-gradient-5" x1="-118.62" y1="31.937" x2="-118.045" y2="31.075" gradientUnits="objectBoundingBox">
      <stop offset="0" stop-color="#985614"/>
      <stop offset="0.172" stop-color="#9f5e14"/>
      <stop offset="0.448" stop-color="#b27517"/>
      <stop offset="0.789" stop-color="#d19b1b"/>
      <stop offset="1" stop-color="#e8b61e"/>
    </linearGradient>
    <clipPath id="clip-path">
      <path id="SVGID" d="M832.151,723.684l18.579-10.726c1.321-.763,1.156-2.1-.37-2.976l-17.838-10.3a5.73,5.73,0,0,0-5.154-.213L808.789,710.2c-1.321.763-1.155,2.1.37,2.976L827,723.471A5.728,5.728,0,0,0,832.151,723.684Z" fill="none"/>
    </clipPath>
    <linearGradient id="linear-gradient-6" x1="-92.695" y1="1" x2="-92.695" gradientUnits="objectBoundingBox">
      <stop offset="0.011" stop-color="#dea90b"/>
      <stop offset="0.051" stop-color="#d19f0b"/>
      <stop offset="0.223" stop-color="#9f780c"/>
      <stop offset="0.394" stop-color="#76580d"/>
      <stop offset="0.559" stop-color="#563f0e"/>
      <stop offset="0.719" stop-color="#3f2d0e"/>
      <stop offset="0.869" stop-color="#31220e"/>
      <stop offset="1" stop-color="#2d1f0f"/>
    </linearGradient>
    <linearGradient id="linear-gradient-7" x1="-102.47" y1="1" x2="-102.47" gradientUnits="objectBoundingBox">
      <stop offset="0.011" stop-color="#edd17b"/>
      <stop offset="0.093" stop-color="#d1b76b"/>
      <stop offset="0.258" stop-color="#9f894f"/>
      <stop offset="0.421" stop-color="#766338"/>
      <stop offset="0.579" stop-color="#564526"/>
      <stop offset="0.731" stop-color="#3f3019"/>
      <stop offset="0.874" stop-color="#312311"/>
      <stop offset="1" stop-color="#2d1f0f"/>
    </linearGradient>
    <linearGradient id="linear-gradient-8" x1="-43.52" y1="0.5" x2="-42.52" y2="0.5" xlink:href="#linear-gradient"/>
    <linearGradient id="linear-gradient-9" x1="-51.802" y1="0.5" x2="-50.583" y2="0.5" xlink:href="#linear-gradient-2"/>
    <linearGradient id="linear-gradient-10" x1="-51.802" y1="0.5" x2="-50.583" y2="0.5" xlink:href="#linear-gradient"/>
    <linearGradient id="linear-gradient-11" x1="-88.964" y1="24.549" x2="-88.39" y2="23.687" xlink:href="#linear-gradient-4"/>
    <linearGradient id="linear-gradient-12" x1="-119.567" y1="32.651" x2="-118.992" y2="31.789" xlink:href="#linear-gradient-5"/>
    <clipPath id="clip-path-2">
      <path id="SVGID-2" data-name="SVGID" d="M891.873,760.781l18.579-10.726c1.321-.763,1.155-2.095-.37-2.976l-17.839-10.3a5.727,5.727,0,0,0-5.153-.213l-18.579,10.726c-1.321.763-1.156,2.095.37,2.976l17.838,10.3A5.73,5.73,0,0,0,891.873,760.781Z" fill="none"/>
    </clipPath>
    <linearGradient id="linear-gradient-13" x1="-95.426" y1="1" x2="-95.426" y2="0" xlink:href="#linear-gradient-6"/>
    <linearGradient id="linear-gradient-14" x1="-105.491" y1="1" x2="-105.491" y2="0" xlink:href="#linear-gradient-7"/>
    <linearGradient id="linear-gradient-15" x1="-41.062" y1="0.5" x2="-40.062" y2="0.5" xlink:href="#linear-gradient"/>
    <linearGradient id="linear-gradient-16" x1="-48.881" y1="0.5" x2="-47.662" y2="0.5" xlink:href="#linear-gradient-2"/>
    <linearGradient id="linear-gradient-17" x1="-48.881" y1="0.5" x2="-47.662" y2="0.5" xlink:href="#linear-gradient"/>
    <linearGradient id="linear-gradient-18" x1="-86.665" y1="23.285" x2="-86.091" y2="22.423" xlink:href="#linear-gradient-4"/>
    <linearGradient id="linear-gradient-19" x1="-116.478" y1="30.954" x2="-115.904" y2="30.092" xlink:href="#linear-gradient-5"/>
    <clipPath id="clip-path-3">
      <path id="SVGID-3" data-name="SVGID" d="M773.483,760.4l18.579-10.727c1.321-.763,1.156-2.095-.37-2.976l-17.838-10.3a5.73,5.73,0,0,0-5.154-.213l-18.579,10.726c-1.321.763-1.155,2.095.37,2.976l17.839,10.3A5.731,5.731,0,0,0,773.483,760.4Z" fill="none"/>
    </clipPath>
    <linearGradient id="linear-gradient-20" x1="-89.408" y1="1.148" x2="-89.408" y2="0.149" xlink:href="#linear-gradient-6"/>
    <linearGradient id="linear-gradient-21" x1="-98.844" y1="1.163" x2="-98.844" y2="0.165" xlink:href="#linear-gradient-7"/>
    <linearGradient id="linear-gradient-22" x1="-42.302" y1="0.5" x2="-41.302" y2="0.5" xlink:href="#linear-gradient"/>
    <linearGradient id="linear-gradient-23" x1="-50.354" y1="0.5" x2="-49.136" y2="0.5" xlink:href="#linear-gradient-2"/>
    <linearGradient id="linear-gradient-24" x1="-50.354" y1="0.5" x2="-49.136" y2="0.5" xlink:href="#linear-gradient"/>
    <linearGradient id="linear-gradient-25" x1="-87.369" y1="23.817" x2="-86.795" y2="22.955" xlink:href="#linear-gradient-4"/>
    <linearGradient id="linear-gradient-26" x1="-117.425" y1="31.668" x2="-116.85" y2="30.806" xlink:href="#linear-gradient-5"/>
    <clipPath id="clip-path-4">
      <path id="SVGID-4" data-name="SVGID" d="M833.205,797.5l18.579-10.726c1.321-.763,1.155-2.1-.37-2.976l-17.839-10.3a5.728,5.728,0,0,0-5.153-.213l-18.579,10.726c-1.321.763-1.156,2.1.37,2.976l17.838,10.3A5.73,5.73,0,0,0,833.205,797.5Z" fill="none"/>
    </clipPath>
    <linearGradient id="linear-gradient-27" x1="-92.741" y1="1" x2="-92.741" y2="0" xlink:href="#linear-gradient-6"/>
    <linearGradient id="linear-gradient-28" x1="-102.524" y1="1" x2="-102.524" y2="0" xlink:href="#linear-gradient-7"/>
    <clipPath id="clip-path-5">
      <path id="SVGID-5" data-name="SVGID" d="M847.856,834.065l-2.131-1.238a.753.753,0,0,1-.11-.079l2.131,1.238A.7.7,0,0,0,847.856,834.065Z" fill="#56362c"/>
    </clipPath>
    <clipPath id="clip-path-6">
      <path id="SVGID-6" data-name="SVGID" d="M847.764,830.2l-2.13-1.238c-.015-.21-.031-.419-.046-.621l2.131,1.238C847.734,829.78,847.749,829.989,847.764,830.2Z" fill="#56362c"/>
    </clipPath>
    <clipPath id="clip-path-7">
      <path id="SVGID-7" data-name="SVGID" d="M847.719,829.578l-2.131-1.238c-.008-.2-.008-.4-.009-.583l2.131,1.238C847.71,829.179,847.711,829.381,847.719,829.578Z" fill="#56362c"/>
    </clipPath>
    <clipPath id="clip-path-8">
      <path id="SVGID-8" data-name="SVGID" d="M840.664,824.662l2.13,1.238,0,0-2.13-1.238Z" fill="#56362c"/>
    </clipPath>
    <clipPath id="clip-path-9">
      <path id="SVGID-9" data-name="SVGID" d="M842.183,826.046l-2.131-1.238c.1-.059.19-.1.256-.131l2.131,1.239A2.583,2.583,0,0,0,842.183,826.046Z" fill="#56362c"/>
    </clipPath>
    <clipPath id="clip-path-10">
      <path id="SVGID-10" data-name="SVGID" d="M906.876,798.318l-1.979-1.15a.715.715,0,0,1-.1-.073l1.979,1.15A.645.645,0,0,0,906.876,798.318Z" fill="#56362c"/>
    </clipPath>
    <clipPath id="clip-path-11">
      <path id="SVGID-11" data-name="SVGID" d="M906.791,794.727l-1.979-1.15c-.014-.2-.028-.39-.042-.577l1.979,1.15C906.763,794.337,906.777,794.532,906.791,794.727Z" fill="#56362c"/>
    </clipPath>
    <clipPath id="clip-path-12">
      <path id="SVGID-12" data-name="SVGID" d="M906.749,794.15,904.77,793c-.008-.184-.008-.371-.009-.542l1.98,1.15C906.741,793.779,906.742,793.966,906.749,794.15Z" fill="#56362c"/>
    </clipPath>
    <clipPath id="clip-path-13">
      <path id="SVGID-13" data-name="SVGID" d="M900.195,789.583l1.979,1.15,0,0-1.979-1.15Z" fill="#56362c"/>
    </clipPath>
    <clipPath id="clip-path-14">
      <path id="SVGID-14" data-name="SVGID" d="M901.606,790.869l-1.979-1.151a2.46,2.46,0,0,1,.237-.121l1.98,1.15C901.783,790.775,901.7,790.814,901.606,790.869Z" fill="#56362c"/>
    </clipPath>
    <linearGradient id="linear-gradient-29" y1="0.5" x2="1" y2="0.5" gradientUnits="objectBoundingBox">
      <stop offset="0" stop-color="#d4a537" stop-opacity="0.604"/>
      <stop offset="0.314" stop-color="#d9ad36" stop-opacity="0.604"/>
      <stop offset="0.813" stop-color="#e6c435" stop-opacity="0.604"/>
      <stop offset="1" stop-color="#edcf35" stop-opacity="0.604"/>
    </linearGradient>
    <linearGradient id="linear-gradient-30" y1="0.5" x2="1" y2="0.5" gradientUnits="objectBoundingBox">
      <stop offset="0" stop-color="#d4a537"/>
      <stop offset="0.314" stop-color="#d9ad36"/>
      <stop offset="0.813" stop-color="#e6c435"/>
      <stop offset="1" stop-color="#edcf35"/>
    </linearGradient>
    <linearGradient id="linear-gradient-33" y1="0.5" x2="1" y2="0.5" gradientUnits="objectBoundingBox">
      <stop offset="0" stop-color="#d4a537" stop-opacity="0.2"/>
      <stop offset="0.314" stop-color="#d9ad36" stop-opacity="0.2"/>
      <stop offset="0.813" stop-color="#e6c435" stop-opacity="0.2"/>
      <stop offset="1" stop-color="#edcf35" stop-opacity="0.2"/>
    </linearGradient>
  </defs>
  <g id="Group_10304" data-name="Group 10304" transform="translate(-722.939 -618.535)">
    <g id="Group_10232" data-name="Group 10232">
      <g id="Group_10207" data-name="Group 10207">
        <path id="Path_16224" data-name="Path 16224" d="M834.194,822.579l34.444-19.887c2.449-1.414,2.142-3.884-.686-5.516l-33.071-19.094c-2.828-1.633-7.106-1.81-9.555-.4l-34.445,19.886c-2.449,1.415-2.142,3.884.686,5.517l33.072,19.094C827.467,823.816,831.744,823.993,834.194,822.579Z" fill="#291a0b" opacity="0.8"/>
        <path id="Path_16225" data-name="Path 16225" d="M830.1,828.1a13.51,13.51,0,0,1-6.572-1.636l-38.958-22.494c-1.88-1.085-2.959-2.553-2.959-4.027a3.75,3.75,0,0,1,2.15-3.175l40.576-23.427c2.993-1.726,8.226-1.517,11.663.466L874.954,796.3c1.88,1.085,2.959,2.553,2.959,4.027a3.75,3.75,0,0,1-2.151,3.176l-40.575,23.426A10.391,10.391,0,0,1,830.1,828.1Zm-.672-55.128a9.549,9.549,0,0,0-4.683,1.074l-40.576,23.426a2.978,2.978,0,0,0-1.744,2.47c0,1.177.93,2.388,2.552,3.324l38.958,22.493c3.214,1.855,8.08,2.064,10.848.466L875.354,802.8a2.981,2.981,0,0,0,1.745-2.471c0-1.176-.93-2.387-2.552-3.323l-38.958-22.493A12.68,12.68,0,0,0,829.424,772.969Z" fill="url(#linear-gradient)"/>
        <g id="Group_10206" data-name="Group 10206">
          <path id="Path_16226" data-name="Path 16226" d="M789.228,711.577H806.31L825.326,700.6c2.449-1.414,6.727-1.236,9.555.4l18.33,10.583h17.073V761h-.005a2.769,2.769,0,0,1-1.641,2.56l-34.444,19.887c-2.449,1.414-6.727,1.236-9.555-.4l-33.072-19.094A4.052,4.052,0,0,1,789.241,761h-.013Z" fill="url(#linear-gradient-2)"/>
          <path id="Path_16227" data-name="Path 16227" d="M791.567,763.17l33.072,19.094c2.828,1.633,7.105,1.81,9.555.4l34.444-19.887a2.768,2.768,0,0,0,1.641-2.559h.005V761h-.005a2.77,2.77,0,0,1-1.641,2.56l-34.444,19.887c-2.45,1.414-6.727,1.236-9.555-.4l-33.072-19.094A4.052,4.052,0,0,1,789.241,761h-.013v-.79h.013A4.052,4.052,0,0,0,791.567,763.17Z" fill="url(#linear-gradient-3)"/>
          <path id="Path_16228" data-name="Path 16228" d="M869.2,761.795h.005V712.368H852.133L833.8,701.785c-2.828-1.633-7.106-1.81-9.555-.4l-19.016,10.979h-16v-.791H806.31L825.326,700.6c2.449-1.414,6.727-1.236,9.555.4l18.33,10.583h17.073V761h-.005a2.77,2.77,0,0,1-1.641,2.56l-.194.112A2.4,2.4,0,0,0,869.2,761.795Z" fill="#d4a600"/>
          <path id="Path_16229" data-name="Path 16229" d="M790.2,712.5v49.37h.013a3.036,3.036,0,0,0,.814,1.749A3.694,3.694,0,0,1,789.241,761h-.013v-49.31A5.087,5.087,0,0,1,790.2,712.5Z" fill="#edd079"/>
          <path id="Path_16230" data-name="Path 16230" d="M834.194,734.024l34.444-19.887c2.449-1.414,2.142-3.884-.686-5.517l-33.071-19.093c-2.828-1.633-7.106-1.81-9.555-.4l-34.445,19.887c-2.449,1.414-2.142,3.884.686,5.517l33.072,19.094C827.467,735.26,831.744,735.438,834.194,734.024Z" fill="url(#linear-gradient-4)"/>
          <path id="Path_16231" data-name="Path 16231" d="M790.881,709.017l34.445-19.887a8.89,8.89,0,0,1,4.822-.931,8.015,8.015,0,0,0-3.474.931l-34.445,19.887c-2.449,1.414-2.142,3.884.686,5.517l33.072,19.094a10.888,10.888,0,0,0,4.732,1.327,11.239,11.239,0,0,1-6.08-1.327l-33.072-19.094C788.739,712.9,788.432,710.431,790.881,709.017Z" fill="#edd079"/>
          <path id="Path_16232" data-name="Path 16232" d="M833.061,728.288l25.644-14.805c1.823-1.053,1.594-2.892-.511-4.107l-24.622-14.215a7.9,7.9,0,0,0-7.113-.295l-25.644,14.8c-1.824,1.053-1.6,2.892.511,4.107l24.621,14.216A7.908,7.908,0,0,0,833.061,728.288Z" fill="url(#linear-gradient-5)"/>
          <path id="Path_16233" data-name="Path 16233" d="M832.151,723.684l18.579-10.726c1.321-.763,1.156-2.1-.37-2.976l-17.838-10.3a5.73,5.73,0,0,0-5.154-.213L808.789,710.2c-1.321.763-1.155,2.1.37,2.976L827,723.471A5.728,5.728,0,0,0,832.151,723.684Z" fill="#ebcb6d"/>
          <path id="Path_16234" data-name="Path 16234" d="M832.648,734.024l34.445-19.887c2.449-1.414,2.142-3.884-.686-5.517l-33.071-19.093a10.867,10.867,0,0,0-4.658-1.323,11.268,11.268,0,0,1,6.2,1.323l33.071,19.093c2.828,1.633,3.135,4.1.686,5.517l-34.444,19.887a8.943,8.943,0,0,1-4.9.926A7.91,7.91,0,0,0,832.648,734.024Z" fill="#d4a600"/>
          <g id="Group_10203" data-name="Group 10203">
            <g id="Group_10202" data-name="Group 10202" clip-path="url(#clip-path)">
              <path id="Path_16235" data-name="Path 16235" d="M850.368,711.433l-17.845-10.3a5.731,5.731,0,0,0-5.156-.213l-18.586,10.73a1.975,1.975,0,0,0-.649.584,1.377,1.377,0,0,1,.649-2.035l18.586-10.731a5.731,5.731,0,0,1,5.156.214l17.845,10.3c1.187.685,1.539,1.641,1.02,2.392A2.824,2.824,0,0,0,850.368,711.433Z" fill="#eec754"/>
              <path id="Path_16236" data-name="Path 16236" d="M850.368,713.184l-17.845-10.3a5.731,5.731,0,0,0-5.156-.214L808.781,713.4a2.062,2.062,0,0,0-.543.454,1.388,1.388,0,0,1,.543-2.205l18.586-10.73a5.731,5.731,0,0,1,5.156.213l17.845,10.3c1.257.726,1.575,1.755.914,2.522A3.052,3.052,0,0,0,850.368,713.184Z" fill="#dea90b"/>
              <path id="Path_16237" data-name="Path 16237" d="M851.1,715.9a3.253,3.253,0,0,0-.734-.575l-17.845-10.3a5.731,5.731,0,0,0-5.156-.214l-18.586,10.731a2.31,2.31,0,0,0-.363.265,1.408,1.408,0,0,1,.363-2.4l18.586-10.731a5.731,5.731,0,0,1,5.156.214l17.845,10.3C851.731,713.971,852,715.115,851.1,715.9Z" fill="#e0af1c"/>
            </g>
          </g>
          <g id="Group_10204" data-name="Group 10204">
            <path id="Path_16238" data-name="Path 16238" d="M817.883,770.438l1.91,1.1c.491.284.89-.018.89-.673V744.193a2.135,2.135,0,0,0-.89-1.7l-1.91-1.1c-.491-.284-.89.018-.89.673v26.674A2.132,2.132,0,0,0,817.883,770.438Z" fill="#ebcb6d"/>
            <path id="Path_16239" data-name="Path 16239" d="M817.883,741.39l.458.264v26.193a2.13,2.13,0,0,0,.89,1.7l1.452.838v.482c0,.655-.4.957-.89.673l-1.91-1.1a2.132,2.132,0,0,1-.89-1.7V742.063C816.993,741.408,817.392,741.106,817.883,741.39Z" fill="#eec754"/>
            <path id="Path_16240" data-name="Path 16240" d="M810.845,766.375l1.91,1.1c.491.284.89-.017.89-.673V740.13a2.133,2.133,0,0,0-.89-1.7l-1.91-1.1c-.492-.284-.89.017-.89.673v26.674A2.131,2.131,0,0,0,810.845,766.375Z" fill="#ebcb6d"/>
            <path id="Path_16241" data-name="Path 16241" d="M803.807,762.312l1.909,1.1c.492.284.891-.017.891-.673V736.067a2.131,2.131,0,0,0-.891-1.7l-1.909-1.1c-.492-.284-.89.018-.89.673v26.675A2.132,2.132,0,0,0,803.807,762.312Z" fill="#ebcb6d"/>
            <path id="Path_16242" data-name="Path 16242" d="M796.769,758.248l1.909,1.1c.492.283.891-.018.891-.673V732a2.133,2.133,0,0,0-.891-1.7l-1.909-1.1c-.492-.284-.89.017-.89.673v26.674A2.13,2.13,0,0,0,796.769,758.248Z" fill="#ebcb6d"/>
            <path id="Path_16243" data-name="Path 16243" d="M810.845,737.327l.458.264v26.193a2.13,2.13,0,0,0,.89,1.7l1.452.838v.481c0,.656-.4.957-.89.673l-1.91-1.1a2.131,2.131,0,0,1-.89-1.7V738C809.955,737.344,810.353,737.043,810.845,737.327Z" fill="#eec754"/>
            <path id="Path_16244" data-name="Path 16244" d="M803.807,733.263l.458.264v26.194a2.132,2.132,0,0,0,.89,1.7l1.452.838v.481c0,.656-.4.957-.89.673l-1.91-1.1a2.132,2.132,0,0,1-.89-1.7V733.936C802.917,733.281,803.315,732.979,803.807,733.263Z" fill="#eec754"/>
            <path id="Path_16245" data-name="Path 16245" d="M796.769,729.2l.458.264v26.193a2.13,2.13,0,0,0,.89,1.7l1.452.838v.482c0,.655-.4.956-.891.673l-1.909-1.1a2.13,2.13,0,0,1-.89-1.7V729.873C795.879,729.217,796.277,728.916,796.769,729.2Z" fill="#eec754"/>
          </g>
          <path id="Path_16246" data-name="Path 16246" d="M837.035,773.712a1,1,0,0,1-.5-.133,1.519,1.519,0,0,1-.627-1.38V743.973a3.6,3.6,0,0,1,1.539-2.913L862.319,726.7a1.169,1.169,0,0,1,1.2-.073,1.514,1.514,0,0,1,.627,1.379V756.23a3.607,3.607,0,0,1-1.538,2.914l-24.876,14.361A1.407,1.407,0,0,1,837.035,773.712Zm25.982-46.636a.86.86,0,0,0-.406.128l-24.876,14.362a3.065,3.065,0,0,0-1.247,2.407V772.2a.987.987,0,0,0,.336.873.64.64,0,0,0,.619-.073l24.876-14.362a3.061,3.061,0,0,0,1.246-2.407V728a.991.991,0,0,0-.335-.873A.423.423,0,0,0,863.017,727.076Z" fill="#934f0a"/>
          <g id="Group_10205" data-name="Group 10205">
            <ellipse id="Ellipse_13" data-name="Ellipse 13" cx="1.712" cy="0.989" rx="1.712" ry="0.989" transform="matrix(0.5, -0.866, 0.866, 0.5, 858.783, 733.824)" fill="#ebcb6d"/>
            <path id="Path_16247" data-name="Path 16247" d="M859.284,737.462c0,.772.542,1.085,1.211.7a2.676,2.676,0,0,0,1.211-2.1c0-.772-.542-1.085-1.211-.7A2.676,2.676,0,0,0,859.284,737.462Z" fill="#ebcb6d"/>
            <path id="Path_16248" data-name="Path 16248" d="M859.284,741.39c0,.772.542,1.085,1.211.7a2.676,2.676,0,0,0,1.211-2.1c0-.772-.542-1.085-1.211-.7A2.675,2.675,0,0,0,859.284,741.39Z" fill="#ebcb6d"/>
            <path id="Path_16249" data-name="Path 16249" d="M859.889,741.61a2.676,2.676,0,0,0,1.211-2.1,1.234,1.234,0,0,0-.06-.379c.393,0,.666.313.666.858a2.676,2.676,0,0,1-1.211,2.1c-.543.314-1,.16-1.151-.32A1.07,1.07,0,0,0,859.889,741.61Z" fill="#eec754"/>
            <path id="Path_16250" data-name="Path 16250" d="M859.889,737.68a2.676,2.676,0,0,0,1.211-2.1,1.234,1.234,0,0,0-.06-.379c.393,0,.666.313.666.858a2.676,2.676,0,0,1-1.211,2.1c-.543.313-1,.16-1.151-.32A1.07,1.07,0,0,0,859.889,737.68Z" fill="#eec754"/>
            <path id="Path_16251" data-name="Path 16251" d="M859.889,733.75a2.676,2.676,0,0,0,1.211-2.1,1.227,1.227,0,0,0-.06-.378c.393,0,.666.312.666.857a2.676,2.676,0,0,1-1.211,2.1c-.543.314-1,.161-1.151-.32A1.07,1.07,0,0,0,859.889,733.75Z" fill="#eec754"/>
          </g>
          <path id="Path_16252" data-name="Path 16252" d="M839.276,759.622l.8-.463a1.081,1.081,0,0,0,.451-.862v-3.85c0-.332-.2-.484-.451-.34l-.8.462a1.081,1.081,0,0,0-.451.862v3.85C838.825,759.613,839.027,759.765,839.276,759.622Z" fill="#934f0a"/>
        </g>
      </g>
      <g id="Group_10208" data-name="Group 10208">
        <path id="Path_16253" data-name="Path 16253" d="M807.9,618.535h43.691V711.68l0,0a1.53,1.53,0,0,1-.889,1.284l-18.565,10.719a5.725,5.725,0,0,1-5.15-.214L809.158,713.18a2.189,2.189,0,0,1-1.254-1.591l-.006,0Z" opacity="0.2" fill="url(#linear-gradient-6)" style="mix-blend-mode: lighten;isolation: isolate"/>
        <path id="Path_16254" data-name="Path 16254" d="M809.972,627.416h39.543v84.3l0,0a1.381,1.381,0,0,1-.8,1.162l-16.8,9.7a5.181,5.181,0,0,1-4.661-.193l-16.132-9.314a1.982,1.982,0,0,1-1.135-1.44l-.006,0Z" opacity="0.25" fill="url(#linear-gradient-7)" style="mix-blend-mode: lighten;isolation: isolate"/>
      </g>
      <g id="Group_10209" data-name="Group 10209">
        <path id="Path_16255" data-name="Path 16255" d="M838.482,703.874a1.626,1.626,0,1,0,1.627-1.626A1.627,1.627,0,0,0,838.482,703.874Z" fill="#ebcb6d"/>
        <path id="Path_16256" data-name="Path 16256" d="M825.064,692.964a2.778,2.778,0,1,0,2.779-2.779A2.779,2.779,0,0,0,825.064,692.964Z" fill="#ebcb6d"/>
        <path id="Path_16257" data-name="Path 16257" d="M830.551,691.193a.714.714,0,1,0,.714-.713A.714.714,0,0,0,830.551,691.193Z" fill="#ebcb6d"/>
        <path id="Path_16258" data-name="Path 16258" d="M817.745,677.242a1.389,1.389,0,1,0,1.39-1.39A1.389,1.389,0,0,0,817.745,677.242Z" fill="#ebcb6d"/>
        <circle id="Ellipse_14" data-name="Ellipse 14" cx="0.982" cy="0.982" r="0.982" transform="translate(825.471 664.468)" fill="#ebcb6d"/>
        <circle id="Ellipse_15" data-name="Ellipse 15" cx="1.78" cy="1.78" r="1.78" transform="translate(836.702 656.148)" fill="#ebcb6d"/>
        <path id="Path_16259" data-name="Path 16259" d="M832.269,643.036a.992.992,0,1,0,.992-.992A.992.992,0,0,0,832.269,643.036Z" fill="#ebcb6d"/>
        <path id="Path_16260" data-name="Path 16260" d="M824.6,649.644a1.168,1.168,0,1,0,1.168-1.169A1.168,1.168,0,0,0,824.6,649.644Z" fill="#ebcb6d"/>
        <path id="Path_16261" data-name="Path 16261" d="M823.726,647.2a.564.564,0,1,0,.565-.565A.565.565,0,0,0,823.726,647.2Z" fill="#ebcb6d"/>
        <circle id="Ellipse_16" data-name="Ellipse 16" cx="1.632" cy="1.632" r="1.632" transform="translate(816.388 633.424)" fill="#ebcb6d"/>
      </g>
      <g id="Group_10210" data-name="Group 10210">
        <path id="Path_16262" data-name="Path 16262" d="M893.915,859.676l34.445-19.887c2.449-1.414,2.142-3.884-.686-5.516L894.6,815.179c-2.828-1.633-7.106-1.81-9.555-.4L850.6,834.669c-2.449,1.414-2.142,3.884.686,5.517L884.36,859.28C887.188,860.912,891.466,861.09,893.915,859.676Z" fill="#291a0b" opacity="0.6"/>
        <path id="Path_16263" data-name="Path 16263" d="M889.818,865.2a13.5,13.5,0,0,1-6.574-1.639l-38.957-22.492c-1.88-1.085-2.959-2.554-2.959-4.027a3.753,3.753,0,0,1,2.151-3.177l40.575-23.426c2.993-1.725,8.225-1.517,11.663.467l38.958,22.493c1.881,1.086,2.959,2.555,2.959,4.029a3.749,3.749,0,0,1-2.15,3.174l-40.576,23.427A10.389,10.389,0,0,1,889.818,865.2Zm-.673-55.129a9.56,9.56,0,0,0-4.683,1.073l-40.575,23.426a2.982,2.982,0,0,0-1.745,2.472c0,1.175.93,2.386,2.552,3.322l38.958,22.493c3.214,1.855,8.08,2.066,10.848.467l40.576-23.426a2.98,2.98,0,0,0,1.744-2.47c0-1.176-.93-2.387-2.553-3.325L895.31,811.606A12.677,12.677,0,0,0,889.145,810.066Z" fill="url(#linear-gradient-8)"/>
      </g>
      <g id="Group_10215" data-name="Group 10215">
        <path id="Path_16264" data-name="Path 16264" d="M848.949,748.674h17.083L885.047,737.7c2.449-1.414,6.727-1.237,9.555.4l18.33,10.583h17.074V798.1H930a2.77,2.77,0,0,1-1.64,2.56l-34.445,19.887c-2.449,1.413-6.727,1.236-9.555-.4l-33.071-19.093a4.053,4.053,0,0,1-2.327-2.957h-.013Z" fill="url(#linear-gradient-9)"/>
        <path id="Path_16265" data-name="Path 16265" d="M851.289,800.267l33.071,19.094c2.828,1.633,7.106,1.81,9.555.4L928.36,799.87a2.769,2.769,0,0,0,1.64-2.56h.006v.791H930a2.77,2.77,0,0,1-1.64,2.56l-34.445,19.887c-2.449,1.413-6.727,1.236-9.555-.4l-33.071-19.093a4.053,4.053,0,0,1-2.327-2.957h-.013v-.791h.013A4.051,4.051,0,0,0,851.289,800.267Z" fill="url(#linear-gradient-10)"/>
        <path id="Path_16266" data-name="Path 16266" d="M928.922,798.891h.006V749.464H911.854l-18.33-10.582c-2.828-1.633-7.106-1.81-9.555-.4l-19.016,10.978h-16v-.79h17.083L885.047,737.7c2.449-1.414,6.727-1.237,9.555.4l18.33,10.583h17.074V798.1H930a2.77,2.77,0,0,1-1.64,2.56l-.194.112A2.4,2.4,0,0,0,928.922,798.891Z" fill="#d4a600"/>
        <path id="Path_16267" data-name="Path 16267" d="M849.919,749.593v49.37h.013a3.031,3.031,0,0,0,.815,1.749,3.7,3.7,0,0,1-1.785-2.611h-.013v-49.31A5.085,5.085,0,0,1,849.919,749.593Z" fill="#edd079"/>
        <path id="Path_16268" data-name="Path 16268" d="M893.915,771.12l34.445-19.886c2.449-1.414,2.142-3.884-.686-5.517L894.6,726.623c-2.828-1.632-7.106-1.809-9.555-.4L850.6,746.114c-2.449,1.414-2.142,3.884.686,5.517l33.071,19.093C887.188,772.357,891.466,772.534,893.915,771.12Z" fill="url(#linear-gradient-11)"/>
        <path id="Path_16269" data-name="Path 16269" d="M850.6,746.114l34.445-19.887a8.892,8.892,0,0,1,4.822-.931,8,8,0,0,0-3.474.931L851.95,746.114c-2.449,1.414-2.141,3.884.686,5.517l33.072,19.093a10.889,10.889,0,0,0,4.733,1.328,11.233,11.233,0,0,1-6.081-1.328l-33.071-19.093C848.461,750,848.154,747.528,850.6,746.114Z" fill="#edd079"/>
        <path id="Path_16270" data-name="Path 16270" d="M892.782,765.385l25.644-14.8c1.823-1.053,1.595-2.892-.511-4.107l-24.621-14.216a7.908,7.908,0,0,0-7.114-.294l-25.644,14.8c-1.823,1.053-1.6,2.892.511,4.107l24.621,14.215A7.905,7.905,0,0,0,892.782,765.385Z" fill="url(#linear-gradient-12)"/>
        <path id="Path_16271" data-name="Path 16271" d="M891.873,760.781l18.579-10.726c1.321-.763,1.155-2.095-.37-2.976l-17.839-10.3a5.727,5.727,0,0,0-5.153-.213l-18.579,10.726c-1.321.763-1.156,2.095.37,2.976l17.838,10.3A5.73,5.73,0,0,0,891.873,760.781Z" fill="#ebcb6d"/>
        <path id="Path_16272" data-name="Path 16272" d="M892.37,771.12l34.445-19.886c2.449-1.414,2.141-3.884-.687-5.517l-33.071-19.094A10.865,10.865,0,0,0,888.4,725.3a11.272,11.272,0,0,1,6.2,1.322l33.072,19.094c2.827,1.633,3.135,4.1.686,5.517L893.915,771.12a8.941,8.941,0,0,1-4.9.927A7.9,7.9,0,0,0,892.37,771.12Z" fill="#d4a600"/>
        <g id="Group_10212" data-name="Group 10212">
          <g id="Group_10211" data-name="Group 10211" clip-path="url(#clip-path-2)">
            <path id="Path_16273" data-name="Path 16273" d="M910.089,748.53l-17.845-10.3a5.729,5.729,0,0,0-5.155-.213L868.5,748.744a1.978,1.978,0,0,0-.65.584,1.377,1.377,0,0,1,.65-2.035l18.586-10.731a5.729,5.729,0,0,1,5.155.214l17.845,10.3c1.188.685,1.54,1.641,1.02,2.392A2.824,2.824,0,0,0,910.089,748.53Z" fill="#eec754"/>
            <path id="Path_16274" data-name="Path 16274" d="M910.089,750.281l-17.845-10.3a5.729,5.729,0,0,0-5.155-.214L868.5,750.495a2.052,2.052,0,0,0-.544.454,1.388,1.388,0,0,1,.544-2.2l18.586-10.73a5.729,5.729,0,0,1,5.155.213l17.845,10.3c1.258.726,1.575,1.754.914,2.522A3.038,3.038,0,0,0,910.089,750.281Z" fill="#dea90b"/>
            <path id="Path_16275" data-name="Path 16275" d="M910.823,752.992a3.253,3.253,0,0,0-.734-.575l-17.845-10.3a5.729,5.729,0,0,0-5.155-.214L868.5,752.631a2.324,2.324,0,0,0-.364.265,1.409,1.409,0,0,1,.364-2.4l18.586-10.731a5.729,5.729,0,0,1,5.155.214l17.845,10.3C911.453,751.068,911.722,752.212,910.823,752.992Z" fill="#e0af1c"/>
          </g>
        </g>
        <g id="Group_10213" data-name="Group 10213">
          <path id="Path_16276" data-name="Path 16276" d="M877.6,807.535l1.909,1.1c.492.284.89-.018.89-.673V781.29a2.132,2.132,0,0,0-.89-1.7l-1.909-1.1c-.492-.284-.891.017-.891.673v26.674A2.131,2.131,0,0,0,877.6,807.535Z" fill="#ebcb6d"/>
          <path id="Path_16277" data-name="Path 16277" d="M877.6,778.487l.457.264v26.193a2.133,2.133,0,0,0,.89,1.7l1.452.838v.482c0,.655-.4.957-.89.673l-1.909-1.1a2.131,2.131,0,0,1-.891-1.7V779.16C876.714,778.5,877.113,778.2,877.6,778.487Z" fill="#eec754"/>
          <path id="Path_16278" data-name="Path 16278" d="M870.566,803.472l1.91,1.1c.491.284.89-.017.89-.673V777.227a2.133,2.133,0,0,0-.89-1.7l-1.91-1.1c-.491-.284-.89.017-.89.673v26.674A2.133,2.133,0,0,0,870.566,803.472Z" fill="#ebcb6d"/>
          <path id="Path_16279" data-name="Path 16279" d="M863.528,799.408l1.91,1.1c.491.284.89-.018.89-.673V773.164a2.132,2.132,0,0,0-.89-1.7l-1.91-1.1c-.491-.284-.89.018-.89.673v26.674A2.132,2.132,0,0,0,863.528,799.408Z" fill="#ebcb6d"/>
          <path id="Path_16280" data-name="Path 16280" d="M856.49,795.345l1.91,1.1c.491.284.89-.017.89-.673V769.1a2.133,2.133,0,0,0-.89-1.7l-1.91-1.1c-.491-.284-.89.017-.89.673v26.674A2.133,2.133,0,0,0,856.49,795.345Z" fill="#ebcb6d"/>
          <path id="Path_16281" data-name="Path 16281" d="M870.566,774.424l.458.264v26.193a2.135,2.135,0,0,0,.89,1.7l1.452.838v.481c0,.656-.4.957-.89.673l-1.91-1.1a2.133,2.133,0,0,1-.89-1.7V775.1C869.676,774.441,870.075,774.14,870.566,774.424Z" fill="#eec754"/>
          <path id="Path_16282" data-name="Path 16282" d="M863.528,770.36l.458.264v26.193a2.132,2.132,0,0,0,.89,1.7l1.452.839v.481c0,.655-.4.957-.89.673l-1.91-1.1a2.131,2.131,0,0,1-.89-1.7V771.033C862.638,770.378,863.037,770.076,863.528,770.36Z" fill="#eec754"/>
          <path id="Path_16283" data-name="Path 16283" d="M856.49,766.3l.458.264v26.193a2.133,2.133,0,0,0,.89,1.7l1.452.838v.481c0,.656-.4.957-.89.673l-1.91-1.1a2.133,2.133,0,0,1-.89-1.7V766.97C855.6,766.314,856,766.013,856.49,766.3Z" fill="#eec754"/>
        </g>
        <path id="Path_16284" data-name="Path 16284" d="M896.756,810.809a1,1,0,0,1-.5-.133,1.515,1.515,0,0,1-.627-1.379V781.071a3.6,3.6,0,0,1,1.539-2.914l24.875-14.362a1.174,1.174,0,0,1,1.2-.074,1.517,1.517,0,0,1,.627,1.379v28.226a3.605,3.605,0,0,1-1.539,2.914L897.457,810.6A1.41,1.41,0,0,1,896.756,810.809Zm25.982-46.636a.86.86,0,0,0-.406.128l-24.875,14.362a3.064,3.064,0,0,0-1.247,2.408V809.3a.992.992,0,0,0,.335.873.64.64,0,0,0,.62-.074l24.875-14.362a3.067,3.067,0,0,0,1.247-2.408V765.1a.989.989,0,0,0-.336-.873A.417.417,0,0,0,922.738,764.173Z" fill="#934f0a"/>
        <g id="Group_10214" data-name="Group 10214">
          <path id="Path_16285" data-name="Path 16285" d="M919.006,770.631c0,.772.542,1.085,1.211.7a2.677,2.677,0,0,0,1.21-2.1c0-.772-.542-1.085-1.21-.7A2.676,2.676,0,0,0,919.006,770.631Z" fill="#ebcb6d"/>
          <ellipse id="Ellipse_17" data-name="Ellipse 17" cx="1.712" cy="0.989" rx="1.712" ry="0.989" transform="matrix(0.5, -0.866, 0.866, 0.5, 918.504, 774.849)" fill="#ebcb6d"/>
          <path id="Path_16286" data-name="Path 16286" d="M919.61,774.777a2.675,2.675,0,0,0,1.211-2.1,1.233,1.233,0,0,0-.06-.379c.394,0,.666.313.666.857a2.677,2.677,0,0,1-1.211,2.1c-.543.313-1,.16-1.15-.321A1.058,1.058,0,0,0,919.61,774.777Z" fill="#ee8454"/>
          <path id="Path_16287" data-name="Path 16287" d="M919.61,770.847a2.676,2.676,0,0,0,1.211-2.1,1.234,1.234,0,0,0-.06-.379c.394,0,.666.313.666.858a2.676,2.676,0,0,1-1.211,2.1c-.543.314-1,.161-1.15-.32A1.068,1.068,0,0,0,919.61,770.847Z" fill="#ee8454"/>
        </g>
        <path id="Path_16288" data-name="Path 16288" d="M899,796.718l.8-.462a1.079,1.079,0,0,0,.451-.862v-3.85c0-.332-.2-.484-.451-.341l-.8.463a1.081,1.081,0,0,0-.451.862v3.85C898.546,796.71,898.748,796.862,899,796.718Z" fill="#934f0a"/>
      </g>
      <path id="Path_16289" data-name="Path 16289" d="M867.619,655.632h43.692v93.145l0,0a1.529,1.529,0,0,1-.888,1.284l-18.565,10.719a5.724,5.724,0,0,1-5.15-.214L868.88,750.277a2.185,2.185,0,0,1-1.254-1.591l-.007,0Z" opacity="0.2" fill="url(#linear-gradient-13)" style="mix-blend-mode: lighten;isolation: isolate"/>
      <path id="Path_16290" data-name="Path 16290" d="M869.693,664.513h39.543v84.3l0,0a1.383,1.383,0,0,1-.8,1.162l-16.8,9.7a5.181,5.181,0,0,1-4.661-.193l-16.132-9.314a1.977,1.977,0,0,1-1.135-1.44l-.007,0Z" opacity="0.25" fill="url(#linear-gradient-14)" style="mix-blend-mode: lighten;isolation: isolate"/>
      <g id="Group_10216" data-name="Group 10216">
        <path id="Path_16291" data-name="Path 16291" d="M898.2,740.971a1.626,1.626,0,1,0,1.627-1.626A1.627,1.627,0,0,0,898.2,740.971Z" fill="#ebcb6d"/>
        <path id="Path_16292" data-name="Path 16292" d="M884.786,730.061a2.778,2.778,0,1,0,2.778-2.779A2.778,2.778,0,0,0,884.786,730.061Z" fill="#ebcb6d"/>
        <path id="Path_16293" data-name="Path 16293" d="M890.273,728.29a.714.714,0,1,0,.713-.713A.714.714,0,0,0,890.273,728.29Z" fill="#ebcb6d"/>
        <circle id="Ellipse_18" data-name="Ellipse 18" cx="1.389" cy="1.389" r="1.389" transform="translate(877.467 712.949)" fill="#ebcb6d"/>
        <path id="Path_16294" data-name="Path 16294" d="M885.192,702.547a.982.982,0,1,0,.983-.982A.983.983,0,0,0,885.192,702.547Z" fill="#ebcb6d"/>
        <path id="Path_16295" data-name="Path 16295" d="M896.424,695.025a1.779,1.779,0,1,0,1.779-1.78A1.779,1.779,0,0,0,896.424,695.025Z" fill="#ebcb6d"/>
        <path id="Path_16296" data-name="Path 16296" d="M891.991,680.133a.991.991,0,1,0,.991-.992A.992.992,0,0,0,891.991,680.133Z" fill="#ebcb6d"/>
        <path id="Path_16297" data-name="Path 16297" d="M884.318,686.74a1.168,1.168,0,1,0,1.168-1.168A1.168,1.168,0,0,0,884.318,686.74Z" fill="#ebcb6d"/>
        <path id="Path_16298" data-name="Path 16298" d="M883.447,684.3a.564.564,0,1,0,.565-.565A.565.565,0,0,0,883.447,684.3Z" fill="#ebcb6d"/>
        <path id="Path_16299" data-name="Path 16299" d="M876.109,672.154a1.633,1.633,0,1,0,1.633-1.633A1.633,1.633,0,0,0,876.109,672.154Z" fill="#ebcb6d"/>
      </g>
      <g id="Group_10217" data-name="Group 10217">
        <path id="Path_16300" data-name="Path 16300" d="M775.526,859.294l34.444-19.887c2.449-1.414,2.142-3.883-.686-5.516L776.213,814.8c-2.828-1.633-7.106-1.81-9.555-.4l-34.445,19.887c-2.449,1.414-2.142,3.883.686,5.516L765.971,858.9C768.8,860.531,773.076,860.708,775.526,859.294Z" fill="#291a0b" opacity="0.6"/>
        <path id="Path_16301" data-name="Path 16301" d="M771.428,864.812a13.515,13.515,0,0,1-6.573-1.636L725.9,840.682c-1.88-1.085-2.958-2.553-2.958-4.028a3.751,3.751,0,0,1,2.151-3.175l40.575-23.426c2.993-1.727,8.225-1.519,11.663.468l38.958,22.492c1.88,1.085,2.958,2.553,2.958,4.027a3.746,3.746,0,0,1-2.15,3.175l-40.576,23.427A10.384,10.384,0,0,1,771.428,864.812Zm-.671-55.128a9.557,9.557,0,0,0-4.685,1.074L725.5,834.184a2.98,2.98,0,0,0-1.744,2.47c0,1.177.93,2.388,2.552,3.325l38.958,22.492c3.214,1.855,8.081,2.063,10.848.466l40.576-23.426a2.977,2.977,0,0,0,1.743-2.47c0-1.177-.929-2.388-2.552-3.323L776.92,811.224A12.672,12.672,0,0,0,770.757,809.684Z" fill="url(#linear-gradient-15)"/>
      </g>
      <g id="Group_10222" data-name="Group 10222">
        <path id="Path_16302" data-name="Path 16302" d="M730.56,748.292h17.082l19.016-10.979c2.449-1.414,6.727-1.236,9.555.4l18.33,10.583h17.073v49.427h-.005a2.769,2.769,0,0,1-1.641,2.56l-34.444,19.887c-2.45,1.414-6.727,1.236-9.555-.4L732.9,800.676a4.056,4.056,0,0,1-2.327-2.957h-.012Z" fill="url(#linear-gradient-16)"/>
        <path id="Path_16303" data-name="Path 16303" d="M732.9,799.885l33.072,19.094c2.828,1.633,7.1,1.81,9.554.4l34.445-19.887a2.767,2.767,0,0,0,1.641-2.559h.005v.79h-.005a2.769,2.769,0,0,1-1.641,2.56l-34.445,19.887c-2.449,1.414-6.726,1.236-9.554-.4L732.9,800.676a4.056,4.056,0,0,1-2.327-2.957h-.012v-.79h.012A4.056,4.056,0,0,0,732.9,799.885Z" fill="url(#linear-gradient-17)"/>
        <path id="Path_16304" data-name="Path 16304" d="M810.533,798.51h.005V749.083H793.465L775.135,738.5c-2.828-1.633-7.106-1.81-9.555-.4l-19.016,10.979h-16v-.791h17.082l19.016-10.979c2.449-1.414,6.727-1.236,9.555.4l18.33,10.583h17.073v49.427h-.005a2.769,2.769,0,0,1-1.641,2.56l-.194.112A2.4,2.4,0,0,0,810.533,798.51Z" fill="#d4a600"/>
        <path id="Path_16305" data-name="Path 16305" d="M731.53,749.211v49.371h.013a3.03,3.03,0,0,0,.814,1.748,3.7,3.7,0,0,1-1.785-2.611h-.012v-49.31A5.085,5.085,0,0,1,731.53,749.211Z" fill="#edd079"/>
        <path id="Path_16306" data-name="Path 16306" d="M775.526,770.739l34.444-19.887c2.449-1.414,2.142-3.884-.686-5.516l-33.071-19.094c-2.828-1.633-7.106-1.81-9.555-.4l-34.445,19.886c-2.449,1.414-2.142,3.884.686,5.517l33.072,19.094C768.8,771.975,773.076,772.153,775.526,770.739Z" fill="url(#linear-gradient-18)"/>
        <path id="Path_16307" data-name="Path 16307" d="M732.213,745.732l34.445-19.886a8.88,8.88,0,0,1,4.822-.932,8,8,0,0,0-3.474.932l-34.445,19.886c-2.449,1.414-2.142,3.884.686,5.517l33.072,19.094a10.888,10.888,0,0,0,4.732,1.327,11.24,11.24,0,0,1-6.08-1.327L732.9,751.249C730.071,749.616,729.764,747.146,732.213,745.732Z" fill="#edd079"/>
        <path id="Path_16308" data-name="Path 16308" d="M774.393,765,800.037,750.2c1.823-1.053,1.594-2.892-.511-4.107L774.9,731.876a7.9,7.9,0,0,0-7.113-.295l-25.644,14.8c-1.824,1.053-1.595,2.892.51,4.107l24.622,14.216A7.911,7.911,0,0,0,774.393,765Z" fill="url(#linear-gradient-19)"/>
        <path id="Path_16309" data-name="Path 16309" d="M773.483,760.4l18.579-10.727c1.321-.763,1.156-2.095-.37-2.976l-17.838-10.3a5.73,5.73,0,0,0-5.154-.213l-18.579,10.726c-1.321.763-1.155,2.095.37,2.976l17.839,10.3A5.731,5.731,0,0,0,773.483,760.4Z" fill="#ebcb6d"/>
        <path id="Path_16310" data-name="Path 16310" d="M773.98,770.739l34.445-19.887c2.449-1.414,2.142-3.884-.686-5.516l-33.071-19.094a10.866,10.866,0,0,0-4.658-1.323,11.266,11.266,0,0,1,6.2,1.323l33.071,19.094c2.828,1.632,3.135,4.1.686,5.516l-34.445,19.887a8.938,8.938,0,0,1-4.9.926A7.909,7.909,0,0,0,773.98,770.739Z" fill="#d4a600"/>
        <g id="Group_10219" data-name="Group 10219">
          <g id="Group_10218" data-name="Group 10218" clip-path="url(#clip-path-3)">
            <path id="Path_16311" data-name="Path 16311" d="M791.7,748.148l-17.845-10.3a5.731,5.731,0,0,0-5.156-.214l-18.586,10.73a1.975,1.975,0,0,0-.649.584,1.377,1.377,0,0,1,.649-2.035L768.7,736.18a5.731,5.731,0,0,1,5.156.214L791.7,746.7c1.187.685,1.539,1.641,1.02,2.393A2.817,2.817,0,0,0,791.7,748.148Z" fill="#eec754"/>
            <path id="Path_16312" data-name="Path 16312" d="M791.7,749.9l-17.845-10.3a5.731,5.731,0,0,0-5.156-.214l-18.586,10.731a2.062,2.062,0,0,0-.543.454,1.388,1.388,0,0,1,.543-2.205l18.586-10.73a5.731,5.731,0,0,1,5.156.214l17.845,10.3c1.257.726,1.575,1.755.914,2.522A3.068,3.068,0,0,0,791.7,749.9Z" fill="#dea90b"/>
            <path id="Path_16313" data-name="Path 16313" d="M792.434,752.61a3.306,3.306,0,0,0-.734-.575l-17.845-10.3a5.731,5.731,0,0,0-5.156-.214l-18.586,10.731a2.269,2.269,0,0,0-.363.265,1.408,1.408,0,0,1,.363-2.4L768.7,739.382a5.731,5.731,0,0,1,5.156.214L791.7,749.9C793.063,750.686,793.332,751.831,792.434,752.61Z" fill="#e0af1c"/>
          </g>
        </g>
        <g id="Group_10220" data-name="Group 10220">
          <path id="Path_16314" data-name="Path 16314" d="M759.215,807.153l1.91,1.1c.491.284.89-.018.89-.673V780.909a2.132,2.132,0,0,0-.89-1.7l-1.91-1.1c-.492-.284-.89.018-.89.673v26.675A2.129,2.129,0,0,0,759.215,807.153Z" fill="#ebcb6d"/>
          <path id="Path_16315" data-name="Path 16315" d="M759.215,778.1l.458.264v26.193a2.129,2.129,0,0,0,.89,1.7l1.452.839v.481c0,.656-.4.957-.89.673l-1.91-1.1a2.131,2.131,0,0,1-.89-1.7V778.778C758.325,778.123,758.724,777.821,759.215,778.1Z" fill="#eec754"/>
          <path id="Path_16316" data-name="Path 16316" d="M752.177,803.09l1.91,1.1c.491.284.89-.017.89-.673V776.845a2.135,2.135,0,0,0-.89-1.7l-1.91-1.1c-.492-.284-.89.017-.89.673v26.674A2.131,2.131,0,0,0,752.177,803.09Z" fill="#ebcb6d"/>
          <path id="Path_16317" data-name="Path 16317" d="M745.139,799.027l1.909,1.1c.492.284.891-.017.891-.673V772.782a2.131,2.131,0,0,0-.891-1.7l-1.909-1.1c-.492-.283-.89.018-.89.673v26.675A2.132,2.132,0,0,0,745.139,799.027Z" fill="#ebcb6d"/>
          <path id="Path_16318" data-name="Path 16318" d="M738.1,794.963l1.909,1.1c.492.283.891-.018.891-.673V768.718a2.133,2.133,0,0,0-.891-1.7l-1.909-1.1c-.492-.284-.89.017-.89.673v26.674A2.13,2.13,0,0,0,738.1,794.963Z" fill="#ebcb6d"/>
          <path id="Path_16319" data-name="Path 16319" d="M752.177,774.042l.458.264V800.5a2.13,2.13,0,0,0,.89,1.7l1.452.838v.481c0,.656-.4.957-.89.673l-1.91-1.1a2.133,2.133,0,0,1-.89-1.7V774.715C751.287,774.059,751.686,773.758,752.177,774.042Z" fill="#eec754"/>
          <path id="Path_16320" data-name="Path 16320" d="M745.139,769.978l.458.264v26.194a2.132,2.132,0,0,0,.89,1.7l1.452.838v.481c0,.656-.4.957-.89.673l-1.91-1.1a2.132,2.132,0,0,1-.89-1.7V770.651C744.249,770,744.647,769.7,745.139,769.978Z" fill="#eec754"/>
          <path id="Path_16321" data-name="Path 16321" d="M738.1,765.915l.458.264v26.193a2.13,2.13,0,0,0,.89,1.7l1.452.838v.482c0,.655-.4.956-.89.673l-1.91-1.1a2.13,2.13,0,0,1-.89-1.7V766.588C737.211,765.932,737.609,765.631,738.1,765.915Z" fill="#eec754"/>
        </g>
        <path id="Path_16322" data-name="Path 16322" d="M778.367,810.427a.994.994,0,0,1-.5-.133,1.517,1.517,0,0,1-.627-1.38V780.688a3.605,3.605,0,0,1,1.538-2.913l24.876-14.362a1.171,1.171,0,0,1,1.2-.073,1.517,1.517,0,0,1,.627,1.379v28.226a3.609,3.609,0,0,1-1.539,2.914L779.067,810.22A1.407,1.407,0,0,1,778.367,810.427Zm25.981-46.636a.853.853,0,0,0-.405.128l-24.876,14.362a3.067,3.067,0,0,0-1.246,2.407v28.226a.989.989,0,0,0,.335.873.633.633,0,0,0,.619-.073l24.876-14.362a3.066,3.066,0,0,0,1.247-2.407V764.719a.986.986,0,0,0-.337-.873A.415.415,0,0,0,804.348,763.791Z" fill="#934f0a"/>
        <g id="Group_10221" data-name="Group 10221">
          <path id="Path_16323" data-name="Path 16323" d="M800.616,770.249c0,.773.542,1.086,1.211.7a2.674,2.674,0,0,0,1.211-2.1c0-.772-.542-1.085-1.211-.7A2.676,2.676,0,0,0,800.616,770.249Z" fill="#ebcb6d"/>
          <ellipse id="Ellipse_19" data-name="Ellipse 19" cx="1.712" cy="0.989" rx="1.712" ry="0.989" transform="matrix(0.5, -0.866, 0.866, 0.5, 800.115, 774.467)" fill="#ebcb6d"/>
          <path id="Path_16324" data-name="Path 16324" d="M800.616,778.1c0,.772.542,1.085,1.211.7a2.676,2.676,0,0,0,1.211-2.1c0-.772-.542-1.085-1.211-.7A2.676,2.676,0,0,0,800.616,778.1Z" fill="#ebcb6d"/>
          <path id="Path_16325" data-name="Path 16325" d="M801.221,778.325a2.678,2.678,0,0,0,1.211-2.1,1.235,1.235,0,0,0-.06-.379c.393,0,.666.313.666.858a2.676,2.676,0,0,1-1.211,2.1c-.543.314-1,.16-1.151-.32A1.071,1.071,0,0,0,801.221,778.325Z" fill="#eec754"/>
          <path id="Path_16326" data-name="Path 16326" d="M801.221,774.4a2.678,2.678,0,0,0,1.211-2.1,1.235,1.235,0,0,0-.06-.379c.393,0,.666.313.666.858a2.676,2.676,0,0,1-1.211,2.1c-.543.313-1,.16-1.151-.32A1.072,1.072,0,0,0,801.221,774.4Z" fill="#eec754"/>
          <path id="Path_16327" data-name="Path 16327" d="M801.221,770.465a2.678,2.678,0,0,0,1.211-2.1,1.235,1.235,0,0,0-.06-.379c.393,0,.666.312.666.857a2.679,2.679,0,0,1-1.211,2.1c-.543.313-1,.16-1.151-.321A1.06,1.06,0,0,0,801.221,770.465Z" fill="#eec754"/>
        </g>
        <path id="Path_16328" data-name="Path 16328" d="M780.608,796.337l.8-.463a1.081,1.081,0,0,0,.451-.862v-3.85c0-.332-.2-.484-.451-.34l-.8.462a1.081,1.081,0,0,0-.451.862V796C780.157,796.328,780.359,796.48,780.608,796.337Z" fill="#934f0a"/>
      </g>
      <g id="Group_10223" data-name="Group 10223">
        <path id="Path_16329" data-name="Path 16329" d="M748.833,655.415l43.691-.328.7,93.143h0a1.529,1.529,0,0,1-.879,1.292L773.858,760.38a5.725,5.725,0,0,1-5.151-.174l-17.9-10.157a2.189,2.189,0,0,1-1.266-1.582l-.007,0Z" opacity="0.2" fill="url(#linear-gradient-20)" style="mix-blend-mode: lighten;isolation: isolate"/>
        <path id="Path_16330" data-name="Path 16330" d="M750.974,664.281l39.542-.3.633,84.3h0a1.384,1.384,0,0,1-.795,1.169l-16.729,9.826a5.179,5.179,0,0,1-4.662-.158l-16.2-9.192a1.98,1.98,0,0,1-1.145-1.432l-.007,0Z" opacity="0.25" fill="url(#linear-gradient-21)" style="mix-blend-mode: lighten;isolation: isolate"/>
      </g>
      <g id="Group_10224" data-name="Group 10224">
        <path id="Path_16331" data-name="Path 16331" d="M779.814,740.589a1.626,1.626,0,1,0,1.626-1.626A1.627,1.627,0,0,0,779.814,740.589Z" fill="#ebcb6d"/>
        <path id="Path_16332" data-name="Path 16332" d="M766.4,729.679a2.779,2.779,0,1,0,2.779-2.779A2.779,2.779,0,0,0,766.4,729.679Z" fill="#ebcb6d"/>
        <path id="Path_16333" data-name="Path 16333" d="M771.883,727.908a.714.714,0,1,0,.714-.713A.714.714,0,0,0,771.883,727.908Z" fill="#ebcb6d"/>
        <circle id="Ellipse_20" data-name="Ellipse 20" cx="1.389" cy="1.389" r="1.389" transform="translate(759.077 712.568)" fill="#ebcb6d"/>
        <path id="Path_16334" data-name="Path 16334" d="M766.8,702.165a.983.983,0,1,0,.982-.982A.983.983,0,0,0,766.8,702.165Z" fill="#ebcb6d"/>
        <path id="Path_16335" data-name="Path 16335" d="M778.034,694.643a1.78,1.78,0,1,0,1.78-1.78A1.78,1.78,0,0,0,778.034,694.643Z" fill="#ebcb6d"/>
        <path id="Path_16336" data-name="Path 16336" d="M773.6,679.751a.992.992,0,1,0,.992-.991A.992.992,0,0,0,773.6,679.751Z" fill="#ebcb6d"/>
        <path id="Path_16337" data-name="Path 16337" d="M765.928,686.359a1.169,1.169,0,1,0,1.168-1.169A1.168,1.168,0,0,0,765.928,686.359Z" fill="#ebcb6d"/>
        <path id="Path_16338" data-name="Path 16338" d="M765.058,683.919a.565.565,0,1,0,.565-.564A.565.565,0,0,0,765.058,683.919Z" fill="#ebcb6d"/>
        <path id="Path_16339" data-name="Path 16339" d="M757.72,671.772a1.633,1.633,0,1,0,1.632-1.633A1.632,1.632,0,0,0,757.72,671.772Z" fill="#ebcb6d"/>
      </g>
      <g id="Group_10225" data-name="Group 10225">
        <path id="Path_16340" data-name="Path 16340" d="M835.247,896.391,869.692,876.5c2.449-1.414,2.142-3.884-.686-5.516l-33.072-19.094c-2.828-1.633-7.106-1.81-9.555-.4l-34.444,19.887c-2.45,1.413-2.142,3.883.686,5.516l33.071,19.094C828.52,897.627,832.8,897.8,835.247,896.391Z" fill="#291a0b" opacity="0.6"/>
        <path id="Path_16341" data-name="Path 16341" d="M831.149,901.91a13.488,13.488,0,0,1-6.572-1.639l-38.959-22.492c-1.88-1.085-2.958-2.554-2.958-4.028a3.749,3.749,0,0,1,2.151-3.175l40.576-23.426c2.991-1.728,8.222-1.519,11.662.467l38.959,22.492c1.88,1.086,2.958,2.556,2.958,4.029a3.748,3.748,0,0,1-2.151,3.174L836.24,900.74A10.4,10.4,0,0,1,831.149,901.91Zm-.671-55.13a9.564,9.564,0,0,0-4.684,1.074l-40.576,23.427a2.978,2.978,0,0,0-1.744,2.47c0,1.175.929,2.387,2.552,3.324l38.959,22.491c3.211,1.856,8.08,2.067,10.848.468h0l40.575-23.427a2.98,2.98,0,0,0,1.744-2.47c0-1.175-.929-2.387-2.552-3.325l-38.959-22.491A12.662,12.662,0,0,0,830.478,846.78Z" fill="url(#linear-gradient-22)"/>
      </g>
      <g id="Group_10230" data-name="Group 10230">
        <path id="Path_16342" data-name="Path 16342" d="M790.281,785.389h17.082l19.016-10.979c2.449-1.414,6.727-1.236,9.555.4l18.33,10.583h17.074v49.427h-.006a2.769,2.769,0,0,1-1.64,2.56l-34.445,19.887c-2.449,1.414-6.727,1.236-9.555-.4l-33.071-19.094a4.053,4.053,0,0,1-2.327-2.957h-.013Z" fill="url(#linear-gradient-23)"/>
        <path id="Path_16343" data-name="Path 16343" d="M792.621,836.982l33.071,19.094c2.828,1.633,7.106,1.81,9.555.4l34.445-19.887a2.769,2.769,0,0,0,1.64-2.559h.006v.79h-.006a2.769,2.769,0,0,1-1.64,2.56l-34.445,19.887c-2.449,1.414-6.727,1.236-9.555-.4l-33.071-19.094a4.053,4.053,0,0,1-2.327-2.957h-.013v-.79h.013A4.052,4.052,0,0,0,792.621,836.982Z" fill="url(#linear-gradient-24)"/>
        <path id="Path_16344" data-name="Path 16344" d="M870.254,835.607h.006V786.18H853.186L834.856,775.6c-2.828-1.633-7.106-1.81-9.555-.4L806.285,786.18h-16v-.791h17.082l19.016-10.979c2.449-1.414,6.727-1.236,9.555.4l18.33,10.583h17.074v49.427h-.006a2.769,2.769,0,0,1-1.64,2.56l-.194.112A2.4,2.4,0,0,0,870.254,835.607Z" fill="#d4a600"/>
        <path id="Path_16345" data-name="Path 16345" d="M791.251,786.308v49.37h.013a3.032,3.032,0,0,0,.815,1.749,3.7,3.7,0,0,1-1.785-2.611h-.013v-49.31A5.085,5.085,0,0,1,791.251,786.308Z" fill="#edd079"/>
        <path id="Path_16346" data-name="Path 16346" d="M835.247,807.836l34.445-19.887c2.449-1.414,2.142-3.884-.686-5.517l-33.072-19.093c-2.828-1.633-7.106-1.81-9.555-.4l-34.444,19.886c-2.45,1.414-2.142,3.884.686,5.517l33.071,19.093C828.52,809.072,832.8,809.25,835.247,807.836Z" fill="url(#linear-gradient-25)"/>
        <path id="Path_16347" data-name="Path 16347" d="M791.935,782.829l34.444-19.886a8.883,8.883,0,0,1,4.822-.932,8,8,0,0,0-3.474.932l-34.445,19.886c-2.449,1.414-2.141,3.884.686,5.517l33.072,19.093a10.877,10.877,0,0,0,4.733,1.328,11.233,11.233,0,0,1-6.081-1.328l-33.071-19.093C789.793,786.713,789.485,784.243,791.935,782.829Z" fill="#edd079"/>
        <path id="Path_16348" data-name="Path 16348" d="M834.114,802.1l25.644-14.8c1.823-1.053,1.6-2.892-.511-4.107l-24.621-14.216a7.908,7.908,0,0,0-7.114-.294l-25.644,14.8c-1.823,1.053-1.595,2.892.511,4.107L827,801.806A7.908,7.908,0,0,0,834.114,802.1Z" fill="url(#linear-gradient-26)"/>
        <path id="Path_16349" data-name="Path 16349" d="M833.205,797.5l18.579-10.726c1.321-.763,1.155-2.1-.37-2.976l-17.839-10.3a5.728,5.728,0,0,0-5.153-.213l-18.579,10.726c-1.321.763-1.156,2.1.37,2.976l17.838,10.3A5.73,5.73,0,0,0,833.205,797.5Z" fill="#ebcb6d"/>
        <path id="Path_16350" data-name="Path 16350" d="M833.7,807.836l34.444-19.887c2.45-1.414,2.142-3.884-.686-5.517l-33.071-19.093a10.865,10.865,0,0,0-4.657-1.323,11.265,11.265,0,0,1,6.2,1.323l33.072,19.093c2.828,1.633,3.135,4.1.686,5.517l-34.445,19.887a8.943,8.943,0,0,1-4.9.926A7.91,7.91,0,0,0,833.7,807.836Z" fill="#d4a600"/>
        <g id="Group_10227" data-name="Group 10227">
          <g id="Group_10226" data-name="Group 10226" clip-path="url(#clip-path-4)">
            <path id="Path_16351" data-name="Path 16351" d="M851.421,785.245l-17.845-10.3a5.728,5.728,0,0,0-5.155-.213l-18.586,10.73a1.969,1.969,0,0,0-.65.584,1.377,1.377,0,0,1,.65-2.035l18.586-10.731a5.729,5.729,0,0,1,5.155.214l17.845,10.3c1.188.685,1.54,1.641,1.02,2.392A2.816,2.816,0,0,0,851.421,785.245Z" fill="#eec754"/>
            <path id="Path_16352" data-name="Path 16352" d="M851.421,787l-17.845-10.3a5.729,5.729,0,0,0-5.155-.214L809.835,787.21a2.05,2.05,0,0,0-.544.454,1.388,1.388,0,0,1,.544-2.205l18.586-10.73a5.728,5.728,0,0,1,5.155.213l17.845,10.3c1.258.726,1.575,1.755.914,2.522A3.054,3.054,0,0,0,851.421,787Z" fill="#dea90b"/>
            <path id="Path_16353" data-name="Path 16353" d="M852.155,789.707a3.256,3.256,0,0,0-.734-.575l-17.845-10.3a5.729,5.729,0,0,0-5.155-.214l-18.586,10.731a2.273,2.273,0,0,0-.364.265,1.409,1.409,0,0,1,.364-2.4l18.586-10.731a5.729,5.729,0,0,1,5.155.214L851.421,787C852.785,787.783,853.053,788.927,852.155,789.707Z" fill="#e0af1c"/>
          </g>
        </g>
        <g id="Group_10228" data-name="Group 10228">
          <path id="Path_16354" data-name="Path 16354" d="M818.936,844.25l1.91,1.1c.492.284.89-.018.89-.673V818.005a2.132,2.132,0,0,0-.89-1.7l-1.91-1.1c-.491-.284-.89.018-.89.673v26.674A2.132,2.132,0,0,0,818.936,844.25Z" fill="#ebcb6d"/>
          <path id="Path_16355" data-name="Path 16355" d="M818.936,815.2l.458.264v26.193a2.133,2.133,0,0,0,.89,1.7l1.452.838v.482c0,.655-.4.957-.89.673l-1.91-1.1a2.133,2.133,0,0,1-.89-1.7V815.875C818.046,815.22,818.445,814.918,818.936,815.2Z" fill="#eec754"/>
          <path id="Path_16356" data-name="Path 16356" d="M811.9,840.187l1.91,1.1c.491.284.89-.017.89-.673V813.942a2.133,2.133,0,0,0-.89-1.7l-1.91-1.1c-.491-.284-.89.017-.89.673v26.674A2.133,2.133,0,0,0,811.9,840.187Z" fill="#ebcb6d"/>
          <path id="Path_16357" data-name="Path 16357" d="M804.86,836.124l1.91,1.1c.491.284.89-.017.89-.673V809.879a2.132,2.132,0,0,0-.89-1.7l-1.91-1.1c-.491-.284-.89.018-.89.673v26.675A2.135,2.135,0,0,0,804.86,836.124Z" fill="#ebcb6d"/>
          <path id="Path_16358" data-name="Path 16358" d="M797.822,832.06l1.91,1.1c.491.284.89-.017.89-.673V805.815a2.135,2.135,0,0,0-.89-1.7l-1.91-1.1c-.491-.284-.89.017-.89.673v26.674A2.133,2.133,0,0,0,797.822,832.06Z" fill="#ebcb6d"/>
          <path id="Path_16359" data-name="Path 16359" d="M811.9,811.139l.458.264V837.6a2.135,2.135,0,0,0,.89,1.7l1.452.838v.481c0,.656-.4.957-.89.673l-1.91-1.1a2.133,2.133,0,0,1-.89-1.7V811.812C811.008,811.156,811.407,810.855,811.9,811.139Z" fill="#eec754"/>
          <path id="Path_16360" data-name="Path 16360" d="M804.86,807.075l.458.264v26.193a2.132,2.132,0,0,0,.89,1.7l1.452.839v.481c0,.656-.4.957-.89.673l-1.91-1.1a2.135,2.135,0,0,1-.89-1.7V807.748C803.97,807.093,804.369,806.791,804.86,807.075Z" fill="#eec754"/>
          <path id="Path_16361" data-name="Path 16361" d="M797.822,803.012l.458.264v26.193a2.13,2.13,0,0,0,.89,1.7l1.452.838v.481c0,.656-.4.957-.89.674l-1.91-1.1a2.133,2.133,0,0,1-.89-1.7V803.685C796.932,803.029,797.331,802.728,797.822,803.012Z" fill="#eec754"/>
        </g>
        <path id="Path_16362" data-name="Path 16362" d="M838.089,847.524a.994.994,0,0,1-.5-.133,1.516,1.516,0,0,1-.628-1.379V817.786a3.605,3.605,0,0,1,1.539-2.914l24.876-14.362a1.169,1.169,0,0,1,1.2-.074,1.515,1.515,0,0,1,.627,1.379v28.226a3.6,3.6,0,0,1-1.539,2.914l-24.876,14.362A1.4,1.4,0,0,1,838.089,847.524Zm25.981-46.636a.853.853,0,0,0-.406.128l-24.876,14.362a3.067,3.067,0,0,0-1.246,2.408v28.226a.99.99,0,0,0,.336.873.638.638,0,0,0,.618-.074l24.876-14.362a3.066,3.066,0,0,0,1.247-2.408V801.815a.994.994,0,0,0-.335-.873A.436.436,0,0,0,864.07,800.888Z" fill="#934f0a"/>
        <g id="Group_10229" data-name="Group 10229">
          <path id="Path_16363" data-name="Path 16363" d="M860.338,807.346c0,.773.542,1.085,1.21.7a2.676,2.676,0,0,0,1.211-2.1c0-.772-.542-1.085-1.211-.7A2.677,2.677,0,0,0,860.338,807.346Z" fill="#ebcb6d"/>
          <path id="Path_16364" data-name="Path 16364" d="M860.338,811.274c0,.772.542,1.085,1.21.7a2.676,2.676,0,0,0,1.211-2.1c0-.772-.542-1.085-1.211-.7A2.677,2.677,0,0,0,860.338,811.274Z" fill="#ebcb6d"/>
          <path id="Path_16365" data-name="Path 16365" d="M860.942,811.492a2.676,2.676,0,0,0,1.211-2.1,1.235,1.235,0,0,0-.06-.379c.394,0,.666.313.666.857a2.676,2.676,0,0,1-1.211,2.1c-.543.313-1,.16-1.15-.32A1.071,1.071,0,0,0,860.942,811.492Z" fill="#ee8454"/>
          <path id="Path_16366" data-name="Path 16366" d="M860.942,807.562a2.676,2.676,0,0,0,1.211-2.1,1.225,1.225,0,0,0-.06-.379c.394,0,.666.312.666.857a2.675,2.675,0,0,1-1.211,2.1c-.543.314-1,.161-1.15-.32A1.068,1.068,0,0,0,860.942,807.562Z" fill="#ee8454"/>
        </g>
        <path id="Path_16367" data-name="Path 16367" d="M840.329,833.434l.8-.463a1.081,1.081,0,0,0,.451-.862v-3.85c0-.332-.2-.484-.451-.34l-.8.462a1.082,1.082,0,0,0-.451.862v3.85C839.878,833.425,840.08,833.577,840.329,833.434Z" fill="#934f0a"/>
      </g>
      <path id="Path_16368" data-name="Path 16368" d="M808.951,692.347h43.692v93.145l0,0a1.529,1.529,0,0,1-.888,1.284L833.186,797.5a5.723,5.723,0,0,1-5.149-.214l-17.825-10.291a2.184,2.184,0,0,1-1.254-1.591l-.007,0Z" opacity="0.2" fill="url(#linear-gradient-27)" style="mix-blend-mode: lighten;isolation: isolate"/>
      <path id="Path_16369" data-name="Path 16369" d="M811.025,701.228h39.543v84.3l0,0a1.381,1.381,0,0,1-.8,1.162l-16.8,9.7a5.181,5.181,0,0,1-4.661-.193l-16.132-9.314a1.977,1.977,0,0,1-1.135-1.44l-.007,0Z" opacity="0.25" fill="url(#linear-gradient-28)" style="mix-blend-mode: lighten;isolation: isolate"/>
      <g id="Group_10231" data-name="Group 10231">
        <path id="Path_16370" data-name="Path 16370" d="M839.535,777.686a1.627,1.627,0,1,0,1.627-1.626A1.627,1.627,0,0,0,839.535,777.686Z" fill="#ebcb6d"/>
        <path id="Path_16371" data-name="Path 16371" d="M826.118,766.776A2.778,2.778,0,1,0,828.9,764,2.778,2.778,0,0,0,826.118,766.776Z" fill="#ebcb6d"/>
        <path id="Path_16372" data-name="Path 16372" d="M831.6,765.005a.714.714,0,1,0,.713-.713A.714.714,0,0,0,831.6,765.005Z" fill="#ebcb6d"/>
        <path id="Path_16373" data-name="Path 16373" d="M818.8,751.054a1.389,1.389,0,1,0,1.389-1.39A1.389,1.389,0,0,0,818.8,751.054Z" fill="#ebcb6d"/>
        <circle id="Ellipse_21" data-name="Ellipse 21" cx="0.982" cy="0.982" r="0.982" transform="translate(826.524 738.28)" fill="#ebcb6d"/>
        <circle id="Ellipse_22" data-name="Ellipse 22" cx="1.78" cy="1.78" r="1.78" transform="translate(837.755 729.96)" fill="#ebcb6d"/>
        <path id="Path_16374" data-name="Path 16374" d="M826.118,719.136a3.6,3.6,0,1,0,3.6-3.6A3.6,3.6,0,0,0,826.118,719.136Z" fill="#ebcb6d"/>
        <path id="Path_16375" data-name="Path 16375" d="M833.323,716.848a.992.992,0,1,0,.991-.992A.992.992,0,0,0,833.323,716.848Z" fill="#ebcb6d"/>
        <path id="Path_16376" data-name="Path 16376" d="M825.649,723.456a1.169,1.169,0,1,0,1.169-1.169A1.169,1.169,0,0,0,825.649,723.456Z" fill="#ebcb6d"/>
        <path id="Path_16377" data-name="Path 16377" d="M824.779,721.016a.565.565,0,1,0,.565-.565A.565.565,0,0,0,824.779,721.016Z" fill="#ebcb6d"/>
        <circle id="Ellipse_23" data-name="Ellipse 23" cx="1.632" cy="1.632" r="1.632" transform="translate(817.441 707.236)" fill="#ebcb6d"/>
      </g>
    </g>
    <g id="Group_10267" data-name="Group 10267">
      <g id="Group_10237" data-name="Group 10237" style="isolation: isolate">
        <g id="Group_10233" data-name="Group 10233">
          <path id="Path_16378" data-name="Path 16378" d="M861.286,826.614l-2.13-1.238-.027-9.446,2.13,1.238Z" fill="#56362c"/>
        </g>
        <g id="Group_10234" data-name="Group 10234">
          <path id="Path_16379" data-name="Path 16379" d="M858.425,818.805l-2.13-1.238-.006-2.133,2.13,1.238Z" fill="#56362c"/>
        </g>
        <g id="Group_10235" data-name="Group 10235">
          <path id="Path_16380" data-name="Path 16380" d="M858.419,816.673l-2.13-1.238,8.008-4.624,2.13,1.238Z" fill="#56362c"/>
        </g>
        <g id="Group_10236" data-name="Group 10236">
          <path id="Path_16381" data-name="Path 16381" d="M866.427,812.049l.006,2.133-2.835,1.637.027,9.446-2.338,1.35-.027-9.446-2.835,1.637-.006-2.133Z" fill="#ffffbd"/>
        </g>
      </g>
      <g id="Group_10242" data-name="Group 10242" style="isolation: isolate">
        <g id="Group_10238" data-name="Group 10238">
          <path id="Path_16382" data-name="Path 16382" d="M853.771,824.36l-2.13-1.238,3.449-1.991,2.13,1.238Z" fill="#56362c"/>
        </g>
        <g id="Group_10239" data-name="Group 10239">
          <path id="Path_16383" data-name="Path 16383" d="M851.444,832.3l-2.13-1.238-.033-11.578,2.13,1.238Z" fill="#56362c"/>
        </g>
        <g id="Group_10240" data-name="Group 10240">
          <path id="Path_16384" data-name="Path 16384" d="M851.411,820.718l-2.13-1.238,6.481-3.742,2.13,1.238Z" fill="#56362c"/>
        </g>
        <g id="Group_10241" data-name="Group 10241">
          <path id="Path_16385" data-name="Path 16385" d="M857.893,816.976l.006,2.065-4.136,2.388.008,2.93,3.449-1.991.006,2.074-3.449,1.991.013,4.509-2.346,1.354-.033-11.578Z" fill="#ffffbd"/>
        </g>
      </g>
      <g id="Group_10266" data-name="Group 10266" style="isolation: isolate">
        <g id="Group_10245" data-name="Group 10245" style="isolation: isolate">
          <path id="SVGID-15" data-name="SVGID" d="M847.856,834.065l-2.131-1.238a.753.753,0,0,1-.11-.079l2.131,1.238A.7.7,0,0,0,847.856,834.065Z" fill="#56362c"/>
          <g id="Group_10244" data-name="Group 10244" clip-path="url(#clip-path-5)">
            <g id="Group_10243" data-name="Group 10243" style="isolation: isolate">
              <path id="Path_16386" data-name="Path 16386" d="M847.856,834.065l-2.131-1.238a.753.753,0,0,1-.11-.079l2.131,1.238a.7.7,0,0,0,.11.079" fill="#56362c"/>
            </g>
          </g>
        </g>
        <g id="Group_10248" data-name="Group 10248" style="isolation: isolate">
          <path id="SVGID-16" data-name="SVGID" d="M847.764,830.2l-2.13-1.238c-.015-.21-.031-.419-.046-.621l2.131,1.238C847.734,829.78,847.749,829.989,847.764,830.2Z" fill="#56362c"/>
          <g id="Group_10247" data-name="Group 10247" clip-path="url(#clip-path-6)">
            <g id="Group_10246" data-name="Group 10246" style="isolation: isolate">
              <path id="Path_16387" data-name="Path 16387" d="M847.764,830.2l-2.13-1.238c-.015-.21-.031-.419-.046-.621l2.131,1.238c.015.2.03.411.045.621" fill="#56362c"/>
            </g>
          </g>
        </g>
        <g id="Group_10251" data-name="Group 10251" style="isolation: isolate">
          <path id="SVGID-17" data-name="SVGID" d="M847.719,829.578l-2.131-1.238c-.008-.2-.008-.4-.009-.583l2.131,1.238C847.71,829.179,847.711,829.381,847.719,829.578Z" fill="#56362c"/>
          <g id="Group_10250" data-name="Group 10250" clip-path="url(#clip-path-7)">
            <g id="Group_10249" data-name="Group 10249" style="isolation: isolate">
              <path id="Path_16388" data-name="Path 16388" d="M847.719,829.578l-2.131-1.238c-.008-.2-.008-.4-.009-.583l2.131,1.238c0,.184,0,.386.009.583" fill="#56362c"/>
            </g>
          </g>
        </g>
        <g id="Group_10252" data-name="Group 10252">
          <path id="Path_16389" data-name="Path 16389" d="M847.71,828.995l-2.13-1.238-.017-6.129,2.13,1.238Z" fill="#56362c"/>
        </g>
        <g id="Group_10253" data-name="Group 10253">
          <path id="Path_16390" data-name="Path 16390" d="M847.692,822.866l-2.13-1.238,2.061-1.19,2.13,1.238Z" fill="#56362c"/>
        </g>
        <g id="Group_10254" data-name="Group 10254">
          <path id="Path_16391" data-name="Path 16391" d="M847.746,833.986l-2.13-1.238-4.769-4.151,2.13,1.238Z" fill="#56362c"/>
        </g>
        <g id="Group_10257" data-name="Group 10257" style="isolation: isolate">
          <path id="SVGID-18" data-name="SVGID" d="M840.664,824.662l2.13,1.238,0,0-2.13-1.238Z" fill="#56362c"/>
          <g id="Group_10256" data-name="Group 10256" clip-path="url(#clip-path-8)">
            <g id="Group_10255" data-name="Group 10255" style="isolation: isolate">
              <path id="Path_16392" data-name="Path 16392" d="M842.79,825.9l-2.13-1.238,0,0,2.13,1.238,0,0" fill="#56362c"/>
            </g>
          </g>
        </g>
        <g id="Group_10258" data-name="Group 10258">
          <path id="Path_16393" data-name="Path 16393" d="M842.629,825.865l-2.13-1.238.161.033,2.13,1.238Z" fill="#56362c"/>
        </g>
        <g id="Group_10259" data-name="Group 10259">
          <path id="Path_16394" data-name="Path 16394" d="M842.439,825.916l-2.13-1.238.19-.051,2.13,1.238Z" fill="#56362c"/>
        </g>
        <g id="Group_10262" data-name="Group 10262" style="isolation: isolate">
          <path id="SVGID-19" data-name="SVGID" d="M842.183,826.046l-2.131-1.238c.1-.059.19-.1.256-.131l2.131,1.239A2.583,2.583,0,0,0,842.183,826.046Z" fill="#56362c"/>
          <g id="Group_10261" data-name="Group 10261" clip-path="url(#clip-path-9)">
            <g id="Group_10260" data-name="Group 10260" style="isolation: isolate">
              <path id="Path_16395" data-name="Path 16395" d="M842.183,826.046l-2.131-1.238c.1-.059.19-.1.256-.131l2.131,1.239a2.583,2.583,0,0,0-.256.13" fill="#56362c"/>
            </g>
          </g>
        </g>
        <g id="Group_10263" data-name="Group 10263">
          <path id="Path_16396" data-name="Path 16396" d="M840.988,838.333l-2.13-1.238-.033-11.578,2.13,1.238Z" fill="#56362c"/>
        </g>
        <g id="Group_10264" data-name="Group 10264">
          <path id="Path_16397" data-name="Path 16397" d="M849.753,821.676l.033,11.578-1.221.7a1.231,1.231,0,0,1-.46.174.516.516,0,0,1-.359-.146l-4.769-4.151c.015.193.03.378.038.567s.016.369.016.537l.018,6.2-2.061,1.189-.033-11.578,1.228-.709a2.583,2.583,0,0,1,.256-.13l.19-.051.161.033c.044.025.1.067.169.112l4.8,4.189c-.015-.21-.03-.419-.045-.621s-.009-.4-.009-.583l-.018-6.129Z" fill="#ffffbd"/>
        </g>
        <g id="Group_10265" data-name="Group 10265">
          <path id="Path_16398" data-name="Path 16398" d="M840.955,826.755l-2.13-1.238,1.227-.709,2.13,1.238Z" fill="#56362c"/>
        </g>
      </g>
    </g>
    <g id="Group_10302" data-name="Group 10302">
      <g id="Group_10272" data-name="Group 10272" style="isolation: isolate">
        <g id="Group_10268" data-name="Group 10268">
          <path id="Path_16399" data-name="Path 16399" d="M919.354,791.4l-1.979-1.15-.025-8.775,1.979,1.15Z" fill="#56362c"/>
        </g>
        <g id="Group_10269" data-name="Group 10269">
          <path id="Path_16400" data-name="Path 16400" d="M916.7,784.141l-1.979-1.15-.006-1.981,1.979,1.15Z" fill="#56362c"/>
        </g>
        <g id="Group_10270" data-name="Group 10270">
          <path id="Path_16401" data-name="Path 16401" d="M916.69,782.16l-1.979-1.15,7.44-4.3,1.979,1.15Z" fill="#56362c"/>
        </g>
        <g id="Group_10271" data-name="Group 10271">
          <path id="Path_16402" data-name="Path 16402" d="M924.13,777.865l.006,1.981-2.634,1.521.025,8.775-2.172,1.254-.025-8.775-2.634,1.521-.006-1.981Z" fill="#ffffbd"/>
        </g>
      </g>
      <g id="Group_10277" data-name="Group 10277" style="isolation: isolate">
        <g id="Group_10273" data-name="Group 10273">
          <path id="Path_16403" data-name="Path 16403" d="M912.372,789.3l-1.979-1.15,3.2-1.85,1.979,1.15Z" fill="#56362c"/>
        </g>
        <g id="Group_10274" data-name="Group 10274">
          <path id="Path_16404" data-name="Path 16404" d="M910.21,796.675l-1.979-1.15-.031-10.756,1.979,1.15Z" fill="#56362c"/>
        </g>
        <g id="Group_10275" data-name="Group 10275">
          <path id="Path_16405" data-name="Path 16405" d="M910.18,785.919l-1.979-1.15,6.021-3.476,1.979,1.15Z" fill="#56362c"/>
        </g>
        <g id="Group_10276" data-name="Group 10276">
          <path id="Path_16406" data-name="Path 16406" d="M916.2,782.442l.005,1.919-3.842,2.218.008,2.722,3.2-1.85.005,1.927-3.2,1.85.012,4.189-2.179,1.258-.03-10.756Z" fill="#ffffbd"/>
        </g>
      </g>
      <g id="Group_10301" data-name="Group 10301" style="isolation: isolate">
        <g id="Group_10280" data-name="Group 10280" style="isolation: isolate">
          <path id="SVGID-20" data-name="SVGID" d="M906.876,798.318l-1.979-1.15a.715.715,0,0,1-.1-.073l1.979,1.15A.645.645,0,0,0,906.876,798.318Z" fill="#56362c"/>
          <g id="Group_10279" data-name="Group 10279" clip-path="url(#clip-path-10)">
            <g id="Group_10278" data-name="Group 10278" style="isolation: isolate">
              <path id="Path_16407" data-name="Path 16407" d="M906.876,798.318l-1.979-1.15a.715.715,0,0,1-.1-.073l1.979,1.15a.645.645,0,0,0,.1.073" fill="#56362c"/>
            </g>
          </g>
        </g>
        <g id="Group_10283" data-name="Group 10283" style="isolation: isolate">
          <path id="SVGID-21" data-name="SVGID" d="M906.791,794.727l-1.979-1.15c-.014-.2-.028-.39-.042-.577l1.979,1.15C906.763,794.337,906.777,794.532,906.791,794.727Z" fill="#56362c"/>
          <g id="Group_10282" data-name="Group 10282" clip-path="url(#clip-path-11)">
            <g id="Group_10281" data-name="Group 10281" style="isolation: isolate">
              <path id="Path_16408" data-name="Path 16408" d="M906.791,794.727l-1.979-1.15c-.014-.2-.028-.39-.042-.577l1.979,1.15c.014.187.028.382.042.577" fill="#56362c"/>
            </g>
          </g>
        </g>
        <g id="Group_10286" data-name="Group 10286" style="isolation: isolate">
          <path id="SVGID-22" data-name="SVGID" d="M906.749,794.15,904.77,793c-.008-.184-.008-.371-.009-.542l1.98,1.15C906.741,793.779,906.742,793.966,906.749,794.15Z" fill="#56362c"/>
          <g id="Group_10285" data-name="Group 10285" clip-path="url(#clip-path-12)">
            <g id="Group_10284" data-name="Group 10284" style="isolation: isolate">
              <path id="Path_16409" data-name="Path 16409" d="M906.749,794.15,904.77,793c-.008-.184-.008-.371-.009-.542l1.98,1.15c0,.171,0,.358.008.542" fill="#56362c"/>
            </g>
          </g>
        </g>
        <g id="Group_10287" data-name="Group 10287">
          <path id="Path_16410" data-name="Path 16410" d="M906.741,793.608l-1.979-1.15-.016-5.694,1.979,1.15Z" fill="#56362c"/>
        </g>
        <g id="Group_10288" data-name="Group 10288">
          <path id="Path_16411" data-name="Path 16411" d="M906.724,787.914l-1.979-1.15,1.914-1.105,1.979,1.15Z" fill="#56362c"/>
        </g>
        <g id="Group_10289" data-name="Group 10289">
          <path id="Path_16412" data-name="Path 16412" d="M906.774,798.245l-1.979-1.15-4.431-3.857,1.979,1.15Z" fill="#56362c"/>
        </g>
        <g id="Group_10292" data-name="Group 10292" style="isolation: isolate">
          <path id="SVGID-23" data-name="SVGID" d="M900.195,789.583l1.979,1.15,0,0-1.979-1.15Z" fill="#56362c"/>
          <g id="Group_10291" data-name="Group 10291" clip-path="url(#clip-path-13)">
            <g id="Group_10290" data-name="Group 10290" style="isolation: isolate">
              <path id="Path_16413" data-name="Path 16413" d="M902.17,790.731l-1.979-1.15,0,0,1.979,1.15,0,0" fill="#56362c"/>
            </g>
          </g>
        </g>
        <g id="Group_10293" data-name="Group 10293">
          <path id="Path_16414" data-name="Path 16414" d="M902.02,790.7l-1.979-1.15.15.031,1.979,1.15Z" fill="#56362c"/>
        </g>
        <g id="Group_10294" data-name="Group 10294">
          <path id="Path_16415" data-name="Path 16415" d="M901.844,790.747l-1.979-1.15.177-.047,1.979,1.15Z" fill="#56362c"/>
        </g>
        <g id="Group_10297" data-name="Group 10297" style="isolation: isolate">
          <path id="SVGID-24" data-name="SVGID" d="M901.606,790.869l-1.979-1.151a2.46,2.46,0,0,1,.237-.121l1.98,1.15C901.783,790.775,901.7,790.814,901.606,790.869Z" fill="#56362c"/>
          <g id="Group_10296" data-name="Group 10296" clip-path="url(#clip-path-14)">
            <g id="Group_10295" data-name="Group 10295" style="isolation: isolate">
              <path id="Path_16416" data-name="Path 16416" d="M901.606,790.869l-1.979-1.151a2.46,2.46,0,0,1,.237-.121l1.98,1.15c-.061.028-.143.067-.238.122" fill="#56362c"/>
            </g>
          </g>
        </g>
        <g id="Group_10298" data-name="Group 10298">
          <path id="Path_16417" data-name="Path 16417" d="M900.5,802.284l-1.979-1.15-.031-10.756,1.979,1.15Z" fill="#56362c"/>
        </g>
        <g id="Group_10299" data-name="Group 10299">
          <path id="Path_16418" data-name="Path 16418" d="M908.639,786.808l.03,10.757-1.133.654a1.141,1.141,0,0,1-.428.161.479.479,0,0,1-.334-.135l-4.43-3.857c.014.18.028.351.035.527s.015.343.015.5l.016,5.764-1.914,1.105-.03-10.756,1.14-.658c.095-.055.177-.094.238-.122l.176-.047.15.031c.041.023.1.062.157.1l4.464,3.892c-.014-.2-.028-.39-.042-.577s-.008-.371-.008-.542l-.017-5.694Z" fill="#ffffbd"/>
        </g>
        <g id="Group_10300" data-name="Group 10300">
          <path id="Path_16419" data-name="Path 16419" d="M900.466,791.527l-1.979-1.15,1.14-.658,1.979,1.15Z" fill="#56362c"/>
        </g>
      </g>
    </g>
    <g id="Group_10303" data-name="Group 10303">
      <path id="Path_16420" data-name="Path 16420" d="M828.485,649.644v18.992l16.053,7.173Z" fill="url(#linear-gradient-29)"/>
      <path id="Path_16421" data-name="Path 16421" d="M828.485,649.644,812.43,675.809l16.055-7.173Z" fill="url(#linear-gradient-30)"/>
      <path id="Path_16422" data-name="Path 16422" d="M828.485,688.117v12.9L844.548,678.8Z" fill="url(#linear-gradient-29)"/>
      <path id="Path_16423" data-name="Path 16423" d="M828.485,701.022V688.115L812.43,678.8Z" fill="url(#linear-gradient-30)"/>
      <path id="Path_16424" data-name="Path 16424" d="M828.485,685.13l16.053-9.321-16.053-7.168Z" fill="url(#linear-gradient-33)"/>
      <path id="Path_16425" data-name="Path 16425" d="M812.43,675.809l16.055,9.321V668.641Z" fill="url(#linear-gradient-29)"/>
    </g>
    <path id="Path_16426" data-name="Path 16426" d="M782.463,692.112c.693-4.623-2.83-7.109-7.643-8.768l1.562-6.264-3.812-.949-1.522,6.1c-1-.251-2.029-.485-3.055-.719l1.533-6.138-3.811-.951-1.562,6.262c-.829-.19-1.645-.375-2.435-.573l0-.02-5.258-1.313-1.015,4.072s2.83.649,2.771.688a2.028,2.028,0,0,1,1.775,2.219l-1.777,7.136a3.312,3.312,0,0,1,.4.126l-.4-.1-2.493,10a1.39,1.39,0,0,1-1.749.9c.04.055-2.77-.69-2.77-.69l-1.893,4.363,4.963,1.237c.922.232,1.827.474,2.715.7l-1.577,6.335,3.81.948,1.561-6.264c1.041.28,2.052.54,3.04.787l-1.557,6.238,3.811.948,1.577-6.321c6.5,1.231,11.391.734,13.449-5.146,1.658-4.734-.082-7.467-3.5-9.247C780.088,697.137,781.962,695.5,782.463,692.112Zm-8.713,12.216c-1.175,4.735-9.149,2.174-11.734,1.533l2.1-8.393C766.7,698.114,774.983,699.391,773.75,704.328Zm1.18-12.284c-1.074,4.308-7.709,2.117-9.859,1.581l1.9-7.61C769.118,686.551,776.051,687.551,774.93,692.044Z" fill="url(#linear-gradient-30)"/>
    <path id="Path_16427" data-name="Path 16427" d="M880.083,708.854l-2.534.983,1.222-4.9,2.563-1.03,3.7-14.964h9.106l-2.7,11,2.5-1.014-1.207,4.882-2.534,1.014-1.505,6.184H902.4l-1.55,6.339H878Z" fill-rule="evenodd" opacity="0.71" fill="url(#linear-gradient-30)"/>
  </g>
</svg>
