<svg xmlns="http://www.w3.org/2000/svg" width="16.804" height="13.702" viewBox="0 0 16.804 13.702">
  <path id="Path_23298" data-name="Path 23298" d="M50.947,485.262H48.653a.383.383,0,0,0-.377.387v4.568a.382.382,0,0,0,.377.377h2.294a.384.384,0,0,0,.388-.377v-4.568a.386.386,0,0,0-.388-.387m-.377,4.567H49.041v-3.8H50.57Zm9.544-6.851H57.82a.384.384,0,0,0-.377.388v6.851a.382.382,0,0,0,.377.377h2.294a.385.385,0,0,0,.388-.377v-6.851a.386.386,0,0,0-.388-.388m-.377,6.851h-1.53v-6.086h1.53Zm-4.2-11.418H53.242a.386.386,0,0,0-.388.388v11.418a.384.384,0,0,0,.388.377h2.294a.382.382,0,0,0,.377-.377V478.8a.384.384,0,0,0-.377-.388m-.388,11.418H53.619V479.176h1.529ZM64.7,476.892h-2.3a.383.383,0,0,0-.387.377v12.948a.384.384,0,0,0,.387.377h2.3a.383.383,0,0,0,.377-.377V477.269a.382.382,0,0,0-.377-.377m-.388,12.937h-1.53V477.657h1.53Z" transform="translate(-48.276 -476.892)" fill="#c4a36b" fill-rule="evenodd"/>
</svg>
