<svg xmlns="http://www.w3.org/2000/svg" width="24.585" height="24.584" viewBox="0 0 24.585 24.584">
  <path id="Path_23354" data-name="Path 23354" d="M1013.358,3414.693V3409.1a1.683,1.683,0,0,0-3.365,0v.419l-16.2,4.77a1.052,1.052,0,0,0-.568-.165h-1.107a1.121,1.121,0,0,0-1.122,1.122v5.593a1.108,1.108,0,0,0,1.122,1.106h1.107a1.187,1.187,0,0,0,.568-.149l.673.194,2.138,9.586a.561.561,0,0,0,.539.433h4.471a.552.552,0,0,0,.553-.553c0-.045-.015-.09-.015-.12l-1.764-7.6,9.6,2.826v.419a1.683,1.683,0,0,0,3.365,0v-5.593a2.234,2.234,0,0,0,2.228-2.228v-2.243a2.234,2.234,0,0,0-2.228-2.228m-20.128,6.146h-1.107v-5.593h1.107Zm7.686,10.049H997.6l-.254-1.107h3.3Zm-.523-2.228H997.1l-1.406-6.311,3.454,1.017Zm9.6-3.26-15.642-4.606v-5.5l15.642-4.606Zm2.243,1.585a.561.561,0,0,1-1.121,0V3409.1a.561.561,0,0,1,1.121,0Zm2.228-7.821a1.1,1.1,0,0,1-1.106,1.106V3415.8a1.117,1.117,0,0,1,1.106,1.122Z" transform="translate(-991.001 -3407.425)" fill="#fff" fill-rule="evenodd"/>
</svg>
