<svg xmlns="http://www.w3.org/2000/svg" xmlns:xlink="http://www.w3.org/1999/xlink" width="205.634" height="264.646" viewBox="0 0 205.634 264.646">
  <defs>
    <linearGradient id="linear-gradient" y1="0.5" x2="1" y2="0.5" gradientUnits="objectBoundingBox">
      <stop offset="0" stop-color="#fff493"/>
      <stop offset="0.262" stop-color="#f9ee8e"/>
      <stop offset="0.601" stop-color="#eade81"/>
      <stop offset="0.983" stop-color="#d2c36c"/>
      <stop offset="1" stop-color="#d1c26b"/>
    </linearGradient>
    <linearGradient id="linear-gradient-5" x1="-145.506" y1="0.5" x2="-144.506" y2="0.5" xlink:href="#linear-gradient"/>
    <linearGradient id="linear-gradient-6" x1="-143.832" y1="0.5" x2="-142.832" y2="0.5" xlink:href="#linear-gradient"/>
    <linearGradient id="linear-gradient-7" x1="-142.156" y1="0.5" x2="-141.156" y2="0.5" xlink:href="#linear-gradient"/>
    <linearGradient id="linear-gradient-8" x1="-140.465" y1="0.5" x2="-139.465" y2="0.5" xlink:href="#linear-gradient"/>
    <linearGradient id="linear-gradient-9" x1="0.968" y1="0.803" x2="0.222" y2="0.32" gradientUnits="objectBoundingBox">
      <stop offset="0" stop-color="#f9e781"/>
      <stop offset="0.123" stop-color="#f9e781" stop-opacity="0.871"/>
      <stop offset="0.734" stop-color="#f9e781" stop-opacity="0.251"/>
      <stop offset="1" stop-color="#f9e781" stop-opacity="0"/>
    </linearGradient>
    <linearGradient id="linear-gradient-10" x1="0.033" y1="0.805" x2="0.632" y2="0.414" xlink:href="#linear-gradient-9"/>
  </defs>
  <g id="Element-Global-contracts" transform="translate(-946.056 -23.901)">
    <g id="Group_11282" data-name="Group 11282" transform="translate(946.056 23.901)">
      <g id="Group_11274" data-name="Group 11274" transform="translate(0 121.86)">
        <path id="Path_19169" data-name="Path 19169" d="M1368.4,4482.377l-96.464,55.65a9.963,9.963,0,0,1-8.993,0l-96.441-55.642a3.131,3.131,0,0,1-1.868-2.595,2.655,2.655,0,0,1,.985-1.953,4.438,4.438,0,0,1,.883-.641l96.463-55.632a9.929,9.929,0,0,1,8.994,0l96.441,55.624C1370.868,4478.625,1370.868,4480.959,1368.4,4482.377Z" transform="translate(-1164.629 -4396.314)" fill="#d1c26b" opacity="0.15" style="mix-blend-mode: multiply;isolation: isolate"/>
        <path id="Path_19170" data-name="Path 19170" d="M1368.4,4476.292l-96.464,55.631a9.088,9.088,0,0,1-4.5,1.072,9.208,9.208,0,0,1-4.48-1.055L1166.5,4476.3a3.175,3.175,0,0,1-1.868-2.594,3.135,3.135,0,0,1,1.868-2.595l13.075-7.54,83.388-48.109a9.929,9.929,0,0,1,8.994,0L1368.4,4471.1C1370.868,4472.522,1370.868,4474.856,1368.4,4476.292Z" transform="translate(-1164.629 -4398.162)" fill="#fff8be"/>
        <path id="Path_19171" data-name="Path 19171" d="M1267.435,4504.692v18.747a9.208,9.208,0,0,1-4.48-1.055l-96.458-55.642a3.175,3.175,0,0,1-1.868-2.594v-16.24a2.658,2.658,0,0,1,.985-1.954l13.958,8.06Z" transform="translate(-1164.629 -4388.605)" fill="#ffec45"/>
        <path id="Path_19172" data-name="Path 19172" d="M1243.547,4504.694v18.747a9.2,9.2,0,0,0,4.479-1.055l96.481-55.648a3.179,3.179,0,0,0,1.868-2.6V4447.9a2.654,2.654,0,0,0-.985-1.953l-13.958,8.058Z" transform="translate(-1140.741 -4388.607)" fill="#fff493"/>
        <path id="Path_19173" data-name="Path 19173" d="M1368.4,4463.821l-96.464,55.65a9.98,9.98,0,0,1-8.993,0l-96.441-55.643a3.131,3.131,0,0,1-1.868-2.594,2.658,2.658,0,0,1,.985-1.954,4.5,4.5,0,0,1,.883-.64l96.463-55.631a9.926,9.926,0,0,1,8.994,0l96.441,55.624C1370.868,4460.068,1370.868,4462.4,1368.4,4463.821Z" transform="translate(-1164.629 -4401.931)" fill="#fff8be"/>
        <g id="Path_19174" data-name="Path 19174" transform="translate(-1164.629 -4401.931)" fill="none" stroke-miterlimit="10">
          <path d="M1368.4,4463.821l-96.464,55.65a9.98,9.98,0,0,1-8.993,0l-96.441-55.643a3.131,3.131,0,0,1-1.868-2.594,2.658,2.658,0,0,1,.985-1.954,4.5,4.5,0,0,1,.883-.64l96.463-55.631a9.926,9.926,0,0,1,8.994,0l96.441,55.624C1370.868,4460.068,1370.868,4462.4,1368.4,4463.821Z" stroke="none"/>
          <path d="M 1267.434936523438 4519.84619140625 C 1269.028686523438 4519.84619140625 1270.501098632812 4519.5 1271.58349609375 4518.869140625 L 1368.04931640625 4463.21826171875 C 1369.018310546875 4462.66259765625 1369.552978515625 4461.95849609375 1369.554931640625 4461.23681640625 C 1369.556762695312 4460.5107421875 1369.02099609375 4459.798828125 1368.047973632812 4459.23388671875 L 1271.607055664062 4403.60986328125 C 1270.506225585938 4402.9755859375 1269.030151367188 4402.6259765625 1267.45068359375 4402.6259765625 C 1265.8720703125 4402.6259765625 1264.401123046875 4402.97509765625 1263.307373046875 4403.60986328125 L 1166.83154296875 4459.24853515625 C 1166.568481445312 4459.39306640625 1166.317504882812 4459.5751953125 1166.08544921875 4459.78955078125 L 1166.077392578125 4459.796875 C 1165.59130859375 4460.232421875 1165.32373046875 4460.74267578125 1165.32373046875 4461.23388671875 C 1165.32373046875 4461.9609375 1165.8623046875 4462.66796875 1166.844116210938 4463.2265625 L 1263.287475585938 4518.87060546875 C 1264.368530273438 4519.5 1265.841430664062 4519.84619140625 1267.434936523438 4519.84619140625 M 1267.434936523438 4520.541015625 C 1265.80908203125 4520.541015625 1264.183471679688 4520.19580078125 1262.93798828125 4519.470703125 L 1166.496948242188 4463.828125 C 1165.251708984375 4463.11962890625 1164.629028320312 4462.18603515625 1164.629028320312 4461.23388671875 C 1164.629028320312 4460.56005859375 1164.957153320312 4459.8681640625 1165.61376953125 4459.27978515625 C 1165.856079101562 4459.0556640625 1166.150512695312 4458.830078125 1166.496948242188 4458.6396484375 L 1262.960327148438 4403.00830078125 C 1265.433959960938 4401.5732421875 1269.463256835938 4401.57275390625 1271.953979492188 4403.00830078125 L 1368.39501953125 4458.63232421875 C 1370.86767578125 4460.06787109375 1370.86767578125 4462.40234375 1368.39501953125 4463.82080078125 L 1271.9306640625 4519.470703125 C 1270.686401367188 4520.19580078125 1269.060791015625 4520.541015625 1267.434936523438 4520.541015625 Z" stroke="none" fill="#fff"/>
        </g>
        <path id="Path_19175" data-name="Path 19175" d="M1259.762,4411.6l-78.383,45.206c-1.654.957-1.654,2.505,0,3.459l78.362,45.2a6.616,6.616,0,0,0,5.991,0l78.383-45.206c1.654-.956,1.654-2.5,0-3.46l-78.362-45.2A6.619,6.619,0,0,0,1259.762,4411.6Z" transform="translate(-1159.934 -4399.223)" fill="#927649"/>
        <path id="Path_19176" data-name="Path 19176" d="M1324.918,4456.794l-78.362-45.2a6.114,6.114,0,0,0-3-.717v3.043l80.841,46.63.517-.3C1326.573,4459.3,1326.573,4457.75,1324.918,4456.794Z" transform="translate(-1140.737 -4399.223)" fill="#886937"/>
        <path id="Path_19177" data-name="Path 19177" d="M1262.76,4410.88a6.118,6.118,0,0,0-3,.717l-78.383,45.206c-1.654.957-1.654,2.505,0,3.459l.517.3,80.863-46.638Z" transform="translate(-1159.934 -4399.223)" fill="#79561e"/>
      </g>
      <path id="Path_19178" data-name="Path 19178" d="M1249.8,4437.961l23.2-13.354a.4.4,0,0,0,0-.752l-23.2-13.4a1.441,1.441,0,0,0-1.3,0l-23.167,13.4a.4.4,0,0,0,0,.753l23.165,13.354A1.446,1.446,0,0,0,1249.8,4437.961Z" transform="translate(-1146.338 -4277.536)" fill="none" stroke="#fff" stroke-linecap="round" stroke-miterlimit="10" stroke-width="0.695"/>
      <g id="Group_11279" data-name="Group 11279" transform="translate(45.569 118.616)">
        <g id="Group_11276" data-name="Group 11276">
          <g id="Group_11275" data-name="Group 11275" transform="translate(0 33.057)">
            <path id="Path_19179" data-name="Path 19179" d="M1243.564,4424.816v53.668a7.774,7.774,0,0,0,3.807-.911l49.647-28.664a8.414,8.414,0,0,0,3.806-6.591v-17.5Z" transform="translate(-1186.305 -4424.816)" fill="#faec9a"/>
            <path id="Path_19180" data-name="Path 19180" d="M1199.61,4424.816v17.5a8.409,8.409,0,0,0,3.805,6.591l49.65,28.664a7.771,7.771,0,0,0,3.8.911v-53.668Z" transform="translate(-1199.61 -4424.816)" fill="#f7df57"/>
          </g>
          <path id="Path_19181" data-name="Path 19181" d="M1253.045,4464.657l-51.86-29.96c-2.1-1.213-2.1-3.182,0-4.395l51.877-29.952a8.411,8.411,0,0,1,7.609,0l51.88,29.952c2.1,1.213,2.1,3.182,0,4.395l-51.9,29.962A8.4,8.4,0,0,1,1253.045,4464.657Z" transform="translate(-1199.61 -4399.441)" fill="#ffc936"/>
          <path id="Path_19182" data-name="Path 19182" d="M1209.23,4429.544l42.51-24.552a5.6,5.6,0,0,1,5.071,0l42.528,24.552c1.4.809,1.4,2.121,0,2.928l-42.545,24.554a5.607,5.607,0,0,1-5.073,0l-42.49-24.552C1207.83,4431.665,1207.83,4430.352,1209.23,4429.544Z" transform="translate(-1197.016 -4397.944)" fill="none" stroke="#fff" stroke-linecap="round" stroke-miterlimit="10" stroke-width="0.695"/>
          <path id="Path_19183" data-name="Path 19183" d="M1252.942,4409.633l33.455,19.141a.773.773,0,0,1,0,1.464l-33.455,19.163a2.8,2.8,0,0,1-2.536,0l-33.169-19.156a.773.773,0,0,1,0-1.465l33.169-19.146A2.8,2.8,0,0,1,1252.942,4409.633Z" transform="translate(-1194.433 -4396.447)" fill="none" stroke="#fff" stroke-linecap="round" stroke-miterlimit="10" stroke-width="0.695"/>
        </g>
        <g id="Group_11277" data-name="Group 11277" transform="translate(0.015 48.574)">
          <path id="Path_19184" data-name="Path 19184" d="M1212.768,4440.092a3.983,3.983,0,0,0-1.8-3.119,1.252,1.252,0,0,0-1.287-.115h0l-7.345,4.242a6.016,6.016,0,0,0-2.714,4.7v10.093h0a1.267,1.267,0,0,0,.745,1.039,3.979,3.979,0,0,0,3.6,0,1.262,1.262,0,0,0,.745-1.039v-9.923a.629.629,0,0,1,.314-.544l7.209-4.163.014-.008.018-.012h0A1.282,1.282,0,0,0,1212.768,4440.092Z" transform="translate(-1199.621 -4436.728)" fill="url(#linear-gradient)"/>
          <path id="Path_19185" data-name="Path 19185" d="M1221.224,4445a3.978,3.978,0,0,0-1.8-3.119,1.25,1.25,0,0,0-1.286-.115h0l-7.346,4.241a6.023,6.023,0,0,0-2.712,4.7v10.09h0a1.266,1.266,0,0,0,.745,1.039,3.973,3.973,0,0,0,3.6,0,1.265,1.265,0,0,0,.745-1.04v-9.922a.627.627,0,0,1,.313-.542l7.21-4.164.014-.008.018-.01v0A1.279,1.279,0,0,0,1221.224,4445Z" transform="translate(-1197.061 -4435.243)" fill="url(#linear-gradient)"/>
          <path id="Path_19186" data-name="Path 19186" d="M1229.678,4449.9a3.977,3.977,0,0,0-1.8-3.119,1.249,1.249,0,0,0-1.287-.114v0l-7.346,4.243a6.023,6.023,0,0,0-2.712,4.7V4465.7h0a1.266,1.266,0,0,0,.745,1.039,3.979,3.979,0,0,0,3.6,0,1.268,1.268,0,0,0,.745-1.039v-9.923a.627.627,0,0,1,.313-.543l7.21-4.163.013-.008.018-.01v0A1.276,1.276,0,0,0,1229.678,4449.9Z" transform="translate(-1194.502 -4433.759)" fill="url(#linear-gradient)"/>
          <path id="Path_19187" data-name="Path 19187" d="M1238.135,4454.8a3.98,3.98,0,0,0-1.8-3.119,1.251,1.251,0,0,0-1.287-.115h0l-7.344,4.243a6.016,6.016,0,0,0-2.714,4.7V4470.6h0a1.261,1.261,0,0,0,.745,1.038,3.973,3.973,0,0,0,3.6,0,1.259,1.259,0,0,0,.745-1.041v-9.921a.626.626,0,0,1,.314-.543l7.21-4.165.013-.007.018-.012v0A1.275,1.275,0,0,0,1238.135,4454.8Z" transform="translate(-1191.943 -4432.274)" fill="url(#linear-gradient)"/>
        </g>
        <g id="Group_11278" data-name="Group 11278" transform="translate(68.312 48.574)">
          <path id="Path_19188" data-name="Path 19188" d="M1277.417,4440.092a3.98,3.98,0,0,1,1.8-3.119,1.252,1.252,0,0,1,1.287-.115h0l7.346,4.242a6.018,6.018,0,0,1,2.712,4.7v10.093h0a1.265,1.265,0,0,1-.745,1.039,3.979,3.979,0,0,1-3.6,0,1.26,1.26,0,0,1-.744-1.039v-9.923a.627.627,0,0,0-.315-.544l-7.209-4.163-.014-.008-.018-.012h0A1.279,1.279,0,0,1,1277.417,4440.092Z" transform="translate(-1244.37 -4436.728)" fill="url(#linear-gradient-5)"/>
          <path id="Path_19189" data-name="Path 19189" d="M1268.961,4445a3.977,3.977,0,0,1,1.8-3.119,1.252,1.252,0,0,1,1.287-.115h0l7.346,4.241a6.023,6.023,0,0,1,2.712,4.7v10.09h0a1.265,1.265,0,0,1-.744,1.039,3.975,3.975,0,0,1-3.6,0,1.258,1.258,0,0,1-.744-1.04v-9.922a.625.625,0,0,0-.314-.542l-7.21-4.164-.014-.008-.018-.01,0,0A1.277,1.277,0,0,1,1268.961,4445Z" transform="translate(-1246.93 -4435.243)" fill="url(#linear-gradient-6)"/>
          <path id="Path_19190" data-name="Path 19190" d="M1260.5,4449.9a3.977,3.977,0,0,1,1.8-3.119,1.249,1.249,0,0,1,1.287-.114v0l7.344,4.243a6.022,6.022,0,0,1,2.712,4.7V4465.7h0a1.266,1.266,0,0,1-.744,1.039,3.982,3.982,0,0,1-3.6,0,1.264,1.264,0,0,1-.744-1.039v-9.923a.63.63,0,0,0-.312-.543l-7.212-4.163-.013-.008-.018-.01v0A1.276,1.276,0,0,1,1260.5,4449.9Z" transform="translate(-1249.489 -4433.759)" fill="url(#linear-gradient-7)"/>
          <path id="Path_19191" data-name="Path 19191" d="M1252.049,4454.8a3.98,3.98,0,0,1,1.8-3.119,1.251,1.251,0,0,1,1.287-.115h0l7.344,4.243a6.016,6.016,0,0,1,2.714,4.7V4470.6h0a1.262,1.262,0,0,1-.745,1.038,3.973,3.973,0,0,1-3.6,0,1.262,1.262,0,0,1-.745-1.041v-9.921a.628.628,0,0,0-.313-.543l-7.212-4.165-.013-.007-.018-.012v0A1.275,1.275,0,0,1,1252.049,4454.8Z" transform="translate(-1252.049 -4432.274)" fill="url(#linear-gradient-8)"/>
        </g>
      </g>
      <g id="Group_11281" data-name="Group 11281" transform="translate(40.253 18.714)">
        <path id="Path_19192" data-name="Path 19192" d="M1316.425,4362.157a62.672,62.672,0,1,1-44.108-37.792A62.678,62.678,0,0,1,1316.425,4362.157Z" transform="translate(-1195.529 -4322.751)" fill="#fff279"/>
        <g id="Group_11280" data-name="Group 11280" transform="translate(1.577 9.149)">
          <path id="Path_19193" data-name="Path 19193" d="M1239.018,4329.82c-2.867.05-6.545,1.064-3.883,2.694s4.366,1.78,4.387,3.894-1.36,4.334-.681,5.833,1.8,3.247,2.888,2.74,4.077-3.837,5.781-3.686,7.5.412,8.346-1.483,1.7-1.766,3.087-3.875,1.314-4.923-.378-4.935-1.92.711-4.755.506-4.148-2.08-6.91-1.587S1241.123,4329.784,1239.018,4329.82Z" transform="translate(-1185.396 -4329.762)" fill="#997f54"/>
          <path id="Path_19194" data-name="Path 19194" d="M1239.7,4330.584c-3.251,1.738-10.1,4.36-13.269,3.477-1.575-.445-3.449-1.072-5.449-1.443a62.827,62.827,0,0,0-24.243,36.615,20.713,20.713,0,0,0,2.831,4.386c2.482,2.914,5.048,3.284,8.19,3.89s2.162,2.374,3.708,4.226,2.2,2.937,3.972,3.926-.627,2.865-1.317,4.9-.891,3.164.557,7.283,5.647,7.468,6.9,9.065-.861,3.449-.327,6.792.369,12.213,3.576,17.2,5.125,4.4,4.867,1.04-1.347-6.546.6-9.072,5.9-1.855,7.237-6.476,2.2-4.4,4.339-5.966,1.182-2.915,3.167-6.485,2.574-6.931-.362-8.4-4.89-1.317-7.414-4.788a32.341,32.341,0,0,0-10.1-8.811c-3.645-1.98-9.434.434-11.743-.236s-3.771-5.066-3.623-6.769-1.568-2.139-3.228-1.725-2.587-.647-3.046-2.871,3-5.027,5.809-5.242,4.312,1.083,4.868,4.7a7.038,7.038,0,0,0,5.54,6.064c2.587.648.968-2.046-.864-3.885s-1.962-3.512-.58-7.569,4.789-3.75,7.329-7.481,3.025-.925,5.591-.553,2.181-1.014,3.128-3.346,4.205-.32,6.886-2.218-2.91-4.853-2.548-7.419,2.915-2.472,1.5-6.315.541-3.991,1.555-5.423S1242.952,4328.846,1239.7,4330.584Zm-3.792,9.377c-.844,1.9-1.575,1.532-2.964,3.61a7.815,7.815,0,0,1-4.959,3.408c-1.4.167-3.7-2.321-3.822-3.861s2.105-2,4.618-2.324a14.013,14.013,0,0,0,6.945-3.213C1237.531,4336.165,1236.754,4338.068,1235.909,4339.961Z" transform="translate(-1196.74 -4329.775)" fill="#997f54"/>
          <path id="Path_19195" data-name="Path 19195" d="M1305.024,4376.283l.014.177a4.435,4.435,0,0,0-2.485,2.466c-1.424,3.493-1.686,1.965-5.031,4.336s-2.068,4.244-1.888,6.624-3.7,5.079-5.612,5.929-2.759,6.276-2.134,8.91-2.534,3.713-4.464,6.119-3.035,6.433-4.3,8.366a5.945,5.945,0,0,1-5.85,2.706c-2.289-.391-4.415-4.179-5.647-7.468a19.134,19.134,0,0,1-.947-10.5c.716-3.575.462-3.131-.388-8.708a8.89,8.89,0,0,0-6.939-7.785c-2.157-.546-5.723.717-7.646-.405s-2.749-2.751-4-8.01,1.342-6.447,3.383-9.285a19.649,19.649,0,0,1,9.631-6.8,10.638,10.638,0,0,1,8.254,1.061c2.2,1.1,3.233,3.559,4.8,3.727s2.911-.646,4.484-.344,2.618,1.07,4.146.809.557-2.014.339-2.987-1.6-.723-3.44-.734-2.3-.519-2.949-1.737-1.7-.15-2.588-.648-.711,1.745-.789,2.615-.752-.662-.752-.662-.756,1.183-1.085.642.425-1.861.322-3.2-2.05-1.028-3.263-2.069a4.636,4.636,0,0,0-4.558-.633c-1.649.549-1.959.15-2.693,1.61s-4.33,2.446-5.47,2.255-.336-2.513.64-4.558,2.994-1.363,4.247-3.43-.46-2.359-1.618-2.693-1.515-1.44-.313-4.071,2.815-1.907,3.476-.689a4.069,4.069,0,0,0,3.668,1.836c1.55.024,1.187-1.073,1.149-3.329s1-3.461,3.053-4.32,5.471-2.255,6.788-3.48,3.632-.42,4.858.9,3.946,1.813,6.808,2.3a2.356,2.356,0,0,0,2.021-.671A62.374,62.374,0,0,1,1305.024,4376.283Z" transform="translate(-1181.41 -4327.496)" fill="#997f54"/>
          <path id="Path_19196" data-name="Path 19196" d="M1283.618,4390.919c-1.526-.259-1.393.248-2.288,1.444s-2.2,2.566-1.964,3.816.354,2.793,1.411,1.866.692-2.027,2.191-2.706S1285.9,4391.308,1283.618,4390.919Z" transform="translate(-1171.738 -4311.287)" fill="#997f54"/>
        </g>
        <path id="Path_19197" data-name="Path 19197" d="M1264.965,4328.879c-39.919-11.522-47.371,15.687-26.217,32.837s57.419,22.8,62.3,11.493S1294.639,4337.444,1264.965,4328.879Z" transform="translate(-1185.941 -4321.732)" fill="#fff" opacity="0.4" style="mix-blend-mode: soft-light;isolation: isolate"/>
        <path id="Path_19198" data-name="Path 19198" d="M1241.227,4416.1c-31.02-25.456-30.056-74.873-2.859-90.844h0c-1.15.384-2.3.793-3.435,1.249a62.678,62.678,0,1,0,81.1,82.393C1307.271,4421.056,1272.232,4441.536,1241.227,4416.1Z" transform="translate(-1195.529 -4321.995)" fill="#927649" opacity="0.15" style="mix-blend-mode: multiply;isolation: isolate"/>
      </g>
      <path id="Path_19199" data-name="Path 19199" d="M1248.989,4352.9a9.279,9.279,0,0,1-5.419,1.292c-.03,0-.057,0-.086,0,.026,0,.052,0,.078,0v178.992a6.609,6.609,0,0,0,3.614-1.1l28.224-16.3,48.6-28.057c1.43-.79,2.12-1.485,2.12-2.444V4308.386Z" transform="translate(-1140.76 -4308.386)" opacity="0.3" fill="url(#linear-gradient-9)"/>
      <path id="Path_19200" data-name="Path 19200" d="M1262.646,4354.892a11.812,11.812,0,0,1-1.369-.053c-.027,0-.055-.01-.083-.013a10.711,10.711,0,0,1-1.3-.216c-.277-.065-.543-.163-.812-.25-.167-.055-.34-.091-.5-.155a10.031,10.031,0,0,1-1.248-.58l-77.157-44.542v176.91a2.549,2.549,0,0,0,1.5,2.086l41.422,23.915,36.03,20.8a6.033,6.033,0,0,0,3.5,1.077c.033,0,.065.013.1.013V4354.9C1262.7,4354.9,1262.672,4354.892,1262.646,4354.892Z" transform="translate(-1159.922 -4308.175)" opacity="0.5" fill="url(#linear-gradient-10)"/>
    </g>
  </g>
</svg>
