<svg xmlns="http://www.w3.org/2000/svg" width="91.875" height="74.914" viewBox="0 0 91.875 74.914">
  <path id="Path_23323" data-name="Path 23323" d="M1121.968,1304.154c2.827-.766,7.656-3.946,7.656-11.072,0-6.42-2.12-9.247-3.239-10.778l-.118-.177-.059-.059a7.432,7.432,0,0,1,.236-3.71,4.476,4.476,0,0,0-.295-2.768c-.883-1.885-2.414-5.3-1.354-7.892,1.884-4.417,2.65-4.77,4.652-5.654a1.808,1.808,0,0,0,.589-.294,10.9,10.9,0,0,1,4.771-1.119,5.475,5.475,0,0,1,2.591.53c.236-.707.412-1.413.707-2.12.294-.648.53-1.237.824-1.767a9.919,9.919,0,0,0-4.122-.825,15.2,15.2,0,0,0-7.009,1.767c-3.357,1.473-4.711,2.827-6.831,7.892-1.826,4.3.353,8.952,1.413,11.308-1.3,5.3.53,7.185.53,7.185.942,1.3,2.533,3.121,2.533,8.481,0,6.066-4.653,7.126-4.653,7.126-3.828,1.3-8.893,4.122-8.893,12.427a2.059,2.059,0,0,0,2.061,2.12h9.364a15.168,15.168,0,0,1,1.944-4.182h-9.011c.589-3.946,3.063-5.477,5.713-6.419m72.911-3.946s-4.653-1.06-4.653-7.126c0-5.36,1.59-7.185,2.533-8.481,0,0,1.825-1.885.53-7.185,1.06-2.356,3.239-7.009,1.413-11.308-2.12-5.065-3.475-6.419-6.832-7.892a15.2,15.2,0,0,0-7.008-1.767,10.52,10.52,0,0,0-4.24.884,26.293,26.293,0,0,1,1.3,4.005c.059-.059.118-.059.177-.118a5.517,5.517,0,0,1,2.768-.589,10.9,10.9,0,0,1,4.77,1.119,1.827,1.827,0,0,0,.589.294c2,.884,2.768,1.237,4.653,5.654,1.06,2.592-.471,6.007-1.355,7.892a4.475,4.475,0,0,0-.294,2.768,7.447,7.447,0,0,1,.236,3.71l-.059.059-.118.177c-1.119,1.531-3.239,4.358-3.239,10.778,0,7.126,4.829,10.306,7.656,11.072,2.65.942,5.124,2.473,5.713,6.419H1190.4a15.191,15.191,0,0,1,1.943,4.182h9.365a2.059,2.059,0,0,0,2.061-2.12c0-8.305-5.065-11.132-8.893-12.427M1174.5,1304.8s-7.48-1.826-7.48-9.6c0-6.832,3.062-9.247,4.24-10.9,0,0,2.415-2.12.825-9.01,2.709-3.77,3.592-9.9.235-17.492-1.825-4.417-3.474-6.832-5.948-8.245a11.969,11.969,0,0,0-5.948-1.414,19.019,19.019,0,0,0-8.834,2.238c-4.123,1.885-6.95,3.593-9.6,10.189-2.3,5.477.412,11.484,1.767,14.488-1.649,6.891.647,9.246.647,9.246,1.178,1.649,4.241,4.064,4.241,10.9,0,7.774-7.48,9.6-7.48,9.6-4.711,1.649-14.664,4.947-14.664,16.2a2.037,2.037,0,0,0,2.12,2.061h58.423a2.037,2.037,0,0,0,2.12-2.061c0-11.249-9.953-14.547-14.664-16.2m-43.641,14.075c.942-5.83,6.125-8.186,11.366-10.071l.177-.059a13.937,13.937,0,0,0,10.424-13.545,18.1,18.1,0,0,0-4.534-12.721,6.015,6.015,0,0,1-.589-.766c-.118-.294-.766-1.885.117-5.713a3.574,3.574,0,0,0-.294-2.768c-1.119-2.532-3.239-7.3-1.649-11.131,2.12-5.3,4.005-6.36,7.479-7.892.177-.117.354-.176.531-.294a13.747,13.747,0,0,1,6.537-1.59,7.9,7.9,0,0,1,3.887.883c1.236.648,2.414,2,4.181,6.3,3.357,7.6,1.237,11.838.177,13.369a3.984,3.984,0,0,0-.648,3.357c.825,3.475.3,4.947.118,5.242a11.737,11.737,0,0,1-.766,1,18.1,18.1,0,0,0-4.535,12.721,13.936,13.936,0,0,0,10.425,13.545l.176.059c5.242,1.885,10.424,4.241,11.367,10.071Z" transform="translate(-1111.897 -1248.145)" fill="#c4a36b" fill-rule="evenodd"/>
</svg>
