<svg xmlns="http://www.w3.org/2000/svg" width="38.509" height="38.51" viewBox="0 0 38.509 38.51">
  <path id="Path_23289" data-name="Path 23289" d="M1700.334,48.106a19.255,19.255,0,1,0,19.254,19.255,19.248,19.248,0,0,0-19.254-19.255m0,36.757a17.5,17.5,0,1,1,17.5-17.5,17.488,17.488,0,0,1-17.5,17.5m-1.111-8.763h2.468V73.187h-2.468Zm5.011-16.293a4.734,4.734,0,0,0-1.629-.888,5.582,5.582,0,0,0-1.95-.321,6.588,6.588,0,0,0-2.4.419,5.046,5.046,0,0,0-1.8,1.161,4.858,4.858,0,0,0-1.136,1.8,7.211,7.211,0,0,0-.37,2.345v.222h1.95v-.222a4.941,4.941,0,0,1,.2-1.629,4.133,4.133,0,0,1,.691-1.259,2.875,2.875,0,0,1,1.16-.84,3.767,3.767,0,0,1,1.629-.321,3.534,3.534,0,0,1,1.259.223,3.737,3.737,0,0,1,1.012.592,2.953,2.953,0,0,1,.716.938,2.754,2.754,0,0,1,.247,1.185,3.061,3.061,0,0,1-.419,1.555,4.929,4.929,0,0,1-1.087,1.308c-.493.47-.962.865-1.308,1.235a4.814,4.814,0,0,0-.913,1.16,5.138,5.138,0,0,0-.494,1.382,8.146,8.146,0,0,0-.123,1.852v.222h1.95v-.222c.024-.716.049-1.259.1-1.629a2.229,2.229,0,0,1,.272-.889,2.688,2.688,0,0,1,.617-.765c.3-.272.691-.642,1.185-1.136a9.557,9.557,0,0,0,1.555-1.8,4.148,4.148,0,0,0,.617-2.345,4.667,4.667,0,0,0-.4-1.9,4.287,4.287,0,0,0-1.135-1.432" transform="translate(-1681.079 -48.106)" fill="#c4a36b" fill-rule="evenodd"/>
</svg>
