<svg xmlns="http://www.w3.org/2000/svg" width="39.561" height="39.56" viewBox="0 0 39.561 39.56">
  <g id="Group_12161" data-name="Group 12161" transform="translate(-1041.271 -3606.666)">
    <path id="Path_23347" data-name="Path 23347" d="M1061.052,3645.476h0a19.03,19.03,0,0,1-19.031-19.03h0a19.03,19.03,0,0,1,19.031-19.03h0a19.03,19.03,0,0,1,19.03,19.03h0A19.03,19.03,0,0,1,1061.052,3645.476Z" fill="none" stroke="#f39200" stroke-miterlimit="10" stroke-width="1.5"/>
    <g id="Group_12160" data-name="Group 12160">
      <path id="Path_23348" data-name="Path 23348" d="M1061.052,3617.892c2.786,0,3.116.01,4.216.061a5.771,5.771,0,0,1,1.938.359,3.457,3.457,0,0,1,1.98,1.98,5.764,5.764,0,0,1,.359,1.938c.05,1.1.061,1.43.061,4.216s-.011,3.116-.061,4.216a5.767,5.767,0,0,1-.359,1.938,3.457,3.457,0,0,1-1.98,1.98,5.791,5.791,0,0,1-1.938.36c-1.1.05-1.43.06-4.216.06s-3.117-.01-4.217-.06a5.778,5.778,0,0,1-1.937-.36,3.454,3.454,0,0,1-1.981-1.98,5.818,5.818,0,0,1-.359-1.938c-.05-1.1-.061-1.43-.061-4.216s.011-3.116.061-4.216a5.816,5.816,0,0,1,.359-1.938,3.454,3.454,0,0,1,1.981-1.98,5.758,5.758,0,0,1,1.937-.359c1.1-.051,1.431-.061,4.217-.061m0-1.88c-2.834,0-3.19.012-4.3.062a7.683,7.683,0,0,0-2.532.485,5.333,5.333,0,0,0-3.052,3.052,7.66,7.66,0,0,0-.485,2.533c-.051,1.113-.063,1.468-.063,4.3s.012,3.189.063,4.3a7.663,7.663,0,0,0,.485,2.533,5.335,5.335,0,0,0,3.052,3.052,7.658,7.658,0,0,0,2.532.485c1.113.051,1.469.062,4.3.062s3.189-.011,4.3-.062a7.658,7.658,0,0,0,2.532-.485,5.335,5.335,0,0,0,3.052-3.052,7.638,7.638,0,0,0,.485-2.533c.051-1.113.063-1.468.063-4.3s-.012-3.189-.063-4.3a7.635,7.635,0,0,0-.485-2.533,5.333,5.333,0,0,0-3.052-3.052,7.683,7.683,0,0,0-2.532-.485c-1.113-.05-1.469-.062-4.3-.062" fill="#f39200"/>
      <path id="Path_23349" data-name="Path 23349" d="M1061.052,3621.088a5.358,5.358,0,1,0,5.358,5.358,5.359,5.359,0,0,0-5.358-5.358m0,8.836a3.478,3.478,0,1,1,3.478-3.478,3.479,3.479,0,0,1-3.478,3.478" fill="#f39200"/>
      <path id="Path_23350" data-name="Path 23350" d="M1067.874,3620.876a1.253,1.253,0,1,1-1.252-1.252,1.252,1.252,0,0,1,1.252,1.252" fill="#f39200"/>
    </g>
  </g>
</svg>
