<svg xmlns="http://www.w3.org/2000/svg" width="186.756" height="47.105" viewBox="0 0 186.756 47.105">
  <g id="Group_12332" data-name="Group 12332" transform="translate(-45.645)">
    <g id="Group_12113" data-name="Group 12113" transform="translate(104.046 15.368)">
      <path id="Path_23249" data-name="Path 23249" d="M104.688,74.924V58.907h5.892a11.209,11.209,0,0,1,2.825.308,5.374,5.374,0,0,1,1.9.868,3.3,3.3,0,0,1,1.072,1.363,4.622,4.622,0,0,1,.335,1.792,3.494,3.494,0,0,1-.154,1.039,3.033,3.033,0,0,1-.483.94,3.606,3.606,0,0,1-.847.8,5.451,5.451,0,0,1-1.242.621,4.406,4.406,0,0,1,2.341,1.248,3.231,3.231,0,0,1,.759,2.215,4.58,4.58,0,0,1-.4,1.9,4.35,4.35,0,0,1-1.16,1.533,5.483,5.483,0,0,1-1.885,1.023,8.209,8.209,0,0,1-2.561.368Zm3.715-9.278h1.935a6.443,6.443,0,0,0,1.111-.088,2.314,2.314,0,0,0,.841-.308,1.413,1.413,0,0,0,.527-.605,2.261,2.261,0,0,0,.182-.967,2.729,2.729,0,0,0-.143-.951,1.367,1.367,0,0,0-.44-.61,1.847,1.847,0,0,0-.753-.33,5.166,5.166,0,0,0-1.083-.1H108.4Zm0,2.484v3.991h2.617a3.266,3.266,0,0,0,1.2-.187,1.907,1.907,0,0,0,.732-.484,1.632,1.632,0,0,0,.362-.67,2.961,2.961,0,0,0,.1-.759,2.537,2.537,0,0,0-.115-.792,1.309,1.309,0,0,0-.4-.593,1.937,1.937,0,0,0-.742-.374A4.321,4.321,0,0,0,111,68.13Z" transform="translate(-104.688 -58.731)" fill="#c4a36b"/>
      <path id="Path_23250" data-name="Path 23250" d="M117.791,58.907h2.991a1.326,1.326,0,0,1,.791.22,1.206,1.206,0,0,1,.44.582l3.1,8.575q.208.561.423,1.221t.4,1.385q.155-.726.358-1.385t.4-1.221l3.078-8.575a1.273,1.273,0,0,1,1.209-.8h3.012l-6.42,16.017h-3.364Z" transform="translate(-104.688 -58.731)" fill="#c4a36b"/>
      <path id="Path_23251" data-name="Path 23251" d="M148.023,74.924h-2.881a1.334,1.334,0,0,1-.8-.225,1.17,1.17,0,0,1-.434-.578l-.945-2.792h-6.09l-.946,2.792a1.27,1.27,0,0,1-1.209.8h-2.9l6.2-16.017h3.8ZM137.733,68.8h4.375l-1.473-4.386q-.143-.418-.335-.984t-.379-1.226q-.177.67-.363,1.242t-.352.99Z" transform="translate(-104.688 -58.731)" fill="#c4a36b"/>
      <path id="Path_23252" data-name="Path 23252" d="M153.035,69v5.925H149.32V58.907h5.211a10.7,10.7,0,0,1,2.962.357,5.582,5.582,0,0,1,2,.995,3.767,3.767,0,0,1,1.127,1.506,5,5,0,0,1,.352,1.891,5.082,5.082,0,0,1-.209,1.473,4.473,4.473,0,0,1-.621,1.281,4.831,4.831,0,0,1-1.012,1.05,5.362,5.362,0,0,1-1.379.758,3.549,3.549,0,0,1,.7.462,2.755,2.755,0,0,1,.566.67l3.408,5.574H159.06a1.427,1.427,0,0,1-1.341-.7l-2.661-4.65a1.117,1.117,0,0,0-.412-.44,1.392,1.392,0,0,0-.665-.131Zm0-2.562h1.5a3.827,3.827,0,0,0,1.291-.192,2.327,2.327,0,0,0,.874-.533,2.037,2.037,0,0,0,.495-.8,3.047,3.047,0,0,0,.154-.984,2.063,2.063,0,0,0-.687-1.649,3.2,3.2,0,0,0-2.127-.594h-1.5Z" transform="translate(-104.688 -58.731)" fill="#c4a36b"/>
      <path id="Path_23253" data-name="Path 23253" d="M163.941,74.924V58.907h5.892a11.214,11.214,0,0,1,2.825.308,5.374,5.374,0,0,1,1.9.868,3.3,3.3,0,0,1,1.072,1.363,4.622,4.622,0,0,1,.335,1.792,3.494,3.494,0,0,1-.154,1.039,3.036,3.036,0,0,1-.484.94,3.6,3.6,0,0,1-.846.8,5.493,5.493,0,0,1-1.242.621,4.406,4.406,0,0,1,2.341,1.248,3.231,3.231,0,0,1,.759,2.215,4.58,4.58,0,0,1-.4,1.9,4.362,4.362,0,0,1-1.16,1.533,5.483,5.483,0,0,1-1.885,1.023,8.218,8.218,0,0,1-2.561.368Zm3.715-9.278h1.935a6.439,6.439,0,0,0,1.11-.088,2.3,2.3,0,0,0,.841-.308,1.408,1.408,0,0,0,.528-.605,2.262,2.262,0,0,0,.181-.967,2.706,2.706,0,0,0-.143-.951,1.357,1.357,0,0,0-.439-.61,1.847,1.847,0,0,0-.753-.33,5.166,5.166,0,0,0-1.083-.1h-2.177Zm0,2.484v3.991h2.617a3.27,3.27,0,0,0,1.2-.187,1.9,1.9,0,0,0,.731-.484,1.622,1.622,0,0,0,.363-.67,2.962,2.962,0,0,0,.1-.759,2.537,2.537,0,0,0-.115-.792,1.309,1.309,0,0,0-.4-.593,1.937,1.937,0,0,0-.742-.374,4.321,4.321,0,0,0-1.165-.132Z" transform="translate(-104.688 -58.731)" fill="#c4a36b"/>
      <path id="Path_23254" data-name="Path 23254" d="M177.7,73.2a1.828,1.828,0,0,1,.148-.737,1.86,1.86,0,0,1,.407-.593,2.005,2.005,0,0,1,2.138-.4,2.017,2.017,0,0,1,.616.4,1.814,1.814,0,0,1,.56,1.33,1.862,1.862,0,0,1-.148.742,1.8,1.8,0,0,1-.412.6,1.916,1.916,0,0,1-.616.4,2,2,0,0,1-.758.143,2.03,2.03,0,0,1-.77-.143A1.854,1.854,0,0,1,177.7,73.2Z" transform="translate(-104.688 -58.731)" fill="#fff"/>
      <path id="Path_23255" data-name="Path 23255" d="M193.765,70.78a.747.747,0,0,1,.264.049.715.715,0,0,1,.252.171l1.473,1.549a6.123,6.123,0,0,1-2.423,1.908,8.486,8.486,0,0,1-3.447.643,8.205,8.205,0,0,1-3.27-.621,7.083,7.083,0,0,1-2.452-1.715,7.553,7.553,0,0,1-1.544-2.6,9.581,9.581,0,0,1-.539-3.259,8.589,8.589,0,0,1,.616-3.293,7.66,7.66,0,0,1,1.72-2.588,7.758,7.758,0,0,1,2.644-1.693,9.215,9.215,0,0,1,3.4-.6,8.6,8.6,0,0,1,1.7.16,8.289,8.289,0,0,1,1.49.439,7.068,7.068,0,0,1,1.275.671,6.14,6.14,0,0,1,1.033.863L194.7,62.546a1.617,1.617,0,0,1-.286.28.744.744,0,0,1-.462.126.819.819,0,0,1-.373-.088,3.866,3.866,0,0,1-.374-.214l-.434-.275a3.412,3.412,0,0,0-.561-.275,4.807,4.807,0,0,0-.758-.214,5.155,5.155,0,0,0-1.017-.088,4.651,4.651,0,0,0-1.847.358,4.057,4.057,0,0,0-1.435,1.022,4.735,4.735,0,0,0-.934,1.61,6.308,6.308,0,0,0-.335,2.122,6.587,6.587,0,0,0,.335,2.188,4.81,4.81,0,0,0,.912,1.61,3.874,3.874,0,0,0,1.347,1,4.027,4.027,0,0,0,1.649.341,7.871,7.871,0,0,0,.923-.05,3.844,3.844,0,0,0,.775-.17,3.541,3.541,0,0,0,.682-.314,4.512,4.512,0,0,0,.654-.478,1.316,1.316,0,0,1,.286-.181A.742.742,0,0,1,193.765,70.78Z" transform="translate(-104.688 -58.731)" fill="#fff"/>
      <path id="Path_23256" data-name="Path 23256" d="M213.255,66.91a8.594,8.594,0,0,1-.6,3.232,7.633,7.633,0,0,1-4.309,4.331,9.559,9.559,0,0,1-6.81,0,7.643,7.643,0,0,1-4.326-4.331,9.019,9.019,0,0,1,0-6.464,7.672,7.672,0,0,1,1.693-2.594,7.828,7.828,0,0,1,2.633-1.726,8.953,8.953,0,0,1,3.408-.627,8.855,8.855,0,0,1,3.4.632,7.865,7.865,0,0,1,2.622,1.732,7.717,7.717,0,0,1,1.687,2.594A8.567,8.567,0,0,1,213.255,66.91Zm-3.8,0a6.928,6.928,0,0,0-.308-2.138,4.526,4.526,0,0,0-.885-1.611,3.814,3.814,0,0,0-1.412-1.011,4.861,4.861,0,0,0-1.9-.352,4.926,4.926,0,0,0-1.919.352,3.8,3.8,0,0,0-1.418,1.011,4.541,4.541,0,0,0-.885,1.611,7.636,7.636,0,0,0,0,4.287,4.541,4.541,0,0,0,.885,1.611,3.77,3.77,0,0,0,1.418,1.006,5.021,5.021,0,0,0,1.919.346,4.954,4.954,0,0,0,1.9-.346,3.78,3.78,0,0,0,1.412-1.006,4.526,4.526,0,0,0,.885-1.611A6.969,6.969,0,0,0,209.452,66.91Z" transform="translate(-104.688 -58.731)" fill="#fff"/>
      <path id="Path_23257" data-name="Path 23257" d="M223.649,68.47q.2.452.39.925.188-.484.4-.942t.429-.885l4.111-8.1a1.346,1.346,0,0,1,.226-.324.746.746,0,0,1,.258-.171.888.888,0,0,1,.324-.055h3.26V74.924h-3.276V65.712q0-.67.066-1.452l-4.244,8.234a1.387,1.387,0,0,1-.533.583,1.472,1.472,0,0,1-.764.2h-.505a1.472,1.472,0,0,1-.764-.2,1.387,1.387,0,0,1-.533-.583l-4.266-8.245q.044.385.066.764c.015.254.022.486.022.7v9.212h-3.276V58.918h3.259a.9.9,0,0,1,.325.055.746.746,0,0,1,.258.171,1.318,1.318,0,0,1,.225.324l4.123,8.133Q223.445,68.019,223.649,68.47Z" transform="translate(-104.688 -58.731)" fill="#fff"/>
    </g>
    <g id="Group_12115" data-name="Group 12115" transform="translate(45.645)">
      <path id="Path_23258" data-name="Path 23258" d="M75.41,73.665a7.307,7.307,0,0,0-.308-1.8c-.345-1.127-.752-2.238-1.159-3.346A12.76,12.76,0,0,1,73.01,64.2a4.445,4.445,0,0,0-.13-1.06,5.567,5.567,0,0,0-1.045-2.167,5.272,5.272,0,0,0-.9-.832,4.894,4.894,0,0,0-.663-.4l0,0c-.139-.07-.281-.135-.424-.2a11.387,11.387,0,0,0-1.115-.355l0-.036.289.009,1.1.034a6.861,6.861,0,0,1,1.532-3.378l0,0a8.375,8.375,0,0,0-3.826,1.968c-.022-.015-.046-.03-.071-.045L68,57.076c.328-.862.655-1.728.989-2.611v0a7.877,7.877,0,0,0-1.89.828c-.594.37-1.187.745-1.74,1.171a19.375,19.375,0,0,0-1.56,1.376c-.5.483-.97,1-1.452,1.5a.275.275,0,0,0-.039-.018q.559-.894,1.119-1.783c.022-.039.046-.075.07-.114l0,0c-.367.067-.761.119-1.147.213A20.6,20.6,0,0,0,57.578,59.4a14.322,14.322,0,0,0-5.113,4.4c-.1.137-.187.279-.275.424s-.161.281-.266.466a21.865,21.865,0,0,1,4.4-2.19,9.973,9.973,0,0,1,1.628-.381.831.831,0,0,1-.1.074,16.029,16.029,0,0,0-5.559,4.082A7.934,7.934,0,0,0,50.546,69.5a12.887,12.887,0,0,0-.363,4.015c0,.061.008.123.013.185.013.141.026.282.043.423.42.75.877,1.5,1.378,2.259.015-.167.036-.337.062-.507a7.323,7.323,0,0,1,5.308-6.025c-2.7,2.506-2.993,6.5-1.944,10.1A9.052,9.052,0,0,1,57.7,74.194c-4.276,7.97,5.1,8.952,6.464,13.069a3.2,3.2,0,0,1,.155.771,19.6,19.6,0,0,0,5.193-3.426c.2-.178.582-1.059.774-1.239.054-.31.1-.621.133-.935q.071-.64.082-1.293a11.777,11.777,0,0,0-.183-2.16,8.8,8.8,0,0,0-1.573-3.7,8.478,8.478,0,0,0-2.062-2.043,10.723,10.723,0,0,1-2.128-1.824,3.886,3.886,0,0,1-.973-3.5,4.47,4.47,0,0,1,.141-.511,3.711,3.711,0,0,1,.331-.719c.059.509.1,1.049.19,1.578a2.754,2.754,0,0,0,.892,1.6,1.026,1.026,0,0,0,.116.088c.783.384,2.1.88,2.988,1.415l.01,0a3.33,3.33,0,0,1,1.23.923,8.248,8.248,0,0,1,1.24,2.328,2.327,2.327,0,0,0,.486,1.118c.021.023.044.045.067.067a.465.465,0,0,0,.805-.129.588.588,0,0,1,.447-.218.407.407,0,0,1,.437.252.914.914,0,0,0,.138.234.673.673,0,0,0,.477.248,1.34,1.34,0,0,0,1.1-.429A2.668,2.668,0,0,0,75.41,73.665Zm-3.583-7.587c-1.077-.528-.365-1.124-1.825-2.25,1.187.34,1.59,1.168,2.177,1.491C71.746,65.425,72.011,65.82,71.827,66.078Z" transform="translate(-45.825 -43.363)" fill="#c4a36b"/>
      <path id="Path_23259" data-name="Path 23259" d="M72.179,65.319c-.433.106-.168.5-.352.759-1.077-.528-.365-1.124-1.825-2.25C71.189,64.168,71.592,65,72.179,65.319Z" transform="translate(-45.825 -43.363)" fill="#1d1d1b"/>
      <g id="Group_12114" data-name="Group 12114" transform="translate(0 10.858)">
        <path id="Path_23260" data-name="Path 23260" d="M82.105,58.489c-.014.37-.034.759-.063,1.165-.006.091-.014.184-.021.277s-.015.184-.024.278C81.472,65.962,79.1,74.5,70.423,82.434c-.034.314-.079.625-.133.935-.192.18-.388.358-.588.536a46.923,46.923,0,0,1-5.379,4.129,3.2,3.2,0,0,0-.155-.771c-1.369-4.117-10.74-5.1-6.464-13.069a9.052,9.052,0,0,0-2.661,5.754c-1.049-3.6-.759-7.592,1.944-10.1a7.323,7.323,0,0,0-5.308,6.025c-.026.17-.047.34-.062.507-.5-.756-.958-1.509-1.378-2.259-.017-.141-.03-.282-.043-.423,0-.062-.01-.124-.013-.185a12.887,12.887,0,0,1,.363-4.015,7.934,7.934,0,0,1,1.743-3.224,16.029,16.029,0,0,1,5.559-4.082.831.831,0,0,0,.1-.074,9.973,9.973,0,0,0-1.628.381,15.234,15.234,0,0,0-4.468,3.534,7.91,7.91,0,0,0-1.743,3.224,12.98,12.98,0,0,0-.391,3.435,32.123,32.123,0,0,1-3.761-12.323c-.01-.111-.02-.222-.029-.332s-.018-.225-.026-.336q-.044-.615-.062-1.174c-.02.54-.029,1.166-.01,1.864,0,.172.01.348.017.529l.008.162a32.341,32.341,0,0,0,4.271,14.5h0c.045.16.093.318.145.476a9.478,9.478,0,0,0,.406,1.026q.695,1.107,1.51,2.219c.07.1.142.193.214.289a38.184,38.184,0,0,0,3.054,3.58q1.032,1.068,2.205,2.116v0a46.285,46.285,0,0,0,5.86,4.424l.03-.02c.134.088.267.175.4.261q1.8-1.17,3.365-2.391,1.29-1,2.434-2.033c.042-.134.082-.268.121-.4,9.715-8.626,11.872-18.119,12.2-23.845,0-.091.01-.181.014-.27.006-.109.01-.215.014-.321,0-.044,0-.087,0-.13,0-.075,0-.149.006-.221C82.133,59.649,82.126,59.027,82.105,58.489Z" transform="translate(-45.825 -54.221)" fill="#1d1d1b"/>
        <path id="Path_23261" data-name="Path 23261" d="M70.264,59.741a6.324,6.324,0,0,0-.856-.437,4.021,4.021,0,0,0-.39-.141l-.289-.009,0,.036a11.387,11.387,0,0,1,1.115.355C69.983,59.606,70.125,59.671,70.264,59.741Z" transform="translate(-45.825 -54.221)" fill="#1d1d1b"/>
        <path id="Path_23262" data-name="Path 23262" d="M69.052,72.05a8.216,8.216,0,0,1,1.238,2.328,2.192,2.192,0,0,0,.554,1.184.6.6,0,0,0,.366.175,2.327,2.327,0,0,1-.486-1.118,8.248,8.248,0,0,0-1.24-2.328,3.33,3.33,0,0,0-1.23-.923A2.442,2.442,0,0,1,69.052,72.05Z" transform="translate(-45.825 -54.221)" fill="#1d1d1b"/>
        <path id="Path_23263" data-name="Path 23263" d="M67.75,57.74c.025.015.049.03.071.045a8.375,8.375,0,0,1,3.826-1.968l-.432-.241A7.335,7.335,0,0,0,68,57.076Z" transform="translate(-45.825 -54.221)" fill="#1d1d1b"/>
        <path id="Path_23264" data-name="Path 23264" d="M73.1,75.943a.914.914,0,0,1-.138-.234.407.407,0,0,0-.437-.252l0,.01A.707.707,0,0,0,73.1,75.943Z" transform="translate(-45.825 -54.221)" fill="#1d1d1b"/>
        <path id="Path_23265" data-name="Path 23265" d="M62.31,59.324a.275.275,0,0,1,.039.018c.482-.5.95-1.021,1.452-1.5a19.375,19.375,0,0,1,1.56-1.376c.553-.426,1.146-.8,1.74-1.171a7.877,7.877,0,0,1,1.89-.828l-.432-.242a7.926,7.926,0,0,0-1.891.829,20.889,20.889,0,0,0-1.739,1.171,18.387,18.387,0,0,0-1.5,1.32Q62.869,58.429,62.31,59.324Z" transform="translate(-45.825 -54.221)" fill="#1d1d1b"/>
        <path id="Path_23266" data-name="Path 23266" d="M64.248,68.263c-.1-.529-.131-1.069-.19-1.578a3.711,3.711,0,0,0-.331.719c.024.206.051.413.088.618a2.759,2.759,0,0,0,.893,1.6,2.719,2.719,0,0,0,.548.329,1.026,1.026,0,0,1-.116-.088A2.754,2.754,0,0,1,64.248,68.263Z" transform="translate(-45.825 -54.221)" fill="#1d1d1b"/>
        <path id="Path_23267" data-name="Path 23267" d="M51.924,64.691c.1-.185.181-.327.266-.466s.178-.287.275-.424a14.322,14.322,0,0,1,5.113-4.4,20.6,20.6,0,0,1,4.777-1.764c.386-.094.78-.146,1.147-.213l-.432-.241c-.367.067-.762.119-1.147.213a20.589,20.589,0,0,0-4.778,1.764,14.316,14.316,0,0,0-5.112,4.4c-.1.138-.189.28-.275.425s-.161.28-.267.466C51.491,64.45,51.8,64.765,51.924,64.691Z" transform="translate(-45.825 -54.221)" fill="#1d1d1b"/>
        <path id="Path_23268" data-name="Path 23268" d="M68.244,71.363c-.884-.535-2.205-1.031-2.988-1.415C65.784,70.3,67.179,70.805,68.244,71.363Z" transform="translate(-45.825 -54.221)" fill="#1d1d1b"/>
        <path id="Path_23269" data-name="Path 23269" d="M71.827,66.078c.184-.258-.081-.653.352-.759-.587-.323-.99-1.151-2.177-1.491C71.462,64.954,70.75,65.55,71.827,66.078Z" transform="translate(-45.825 -54.221)" fill="#1d1d1b"/>
      </g>
      <path id="Path_23270" data-name="Path 23270" d="M62.306,50.9l-.52.249c-.047-.062-.008-.107.005-.152.253-.853.5-1.706.764-2.557a.269.269,0,0,0-.085-.327,12.989,12.989,0,0,0-1.171-.882,5.662,5.662,0,0,1-.931-.76c-.041-.044-.1-.078-.107-.147.031-.048.079-.029.12-.03.175,0,.351,0,.527,0l2.238-.029c.156,0,.157,0,.211-.152l.918-2.565a.421.421,0,0,1,.086-.181,3.239,3.239,0,0,1,.147.424c.026.075.024.165.1.215a.353.353,0,0,0,.026.2l.615,1.934c.047.15.047.15.205.152l.226,0,2.688.011c.014.089-.062.114-.064.172a.574.574,0,0,0-.1.056,12.092,12.092,0,0,1-1.017.768,9.808,9.808,0,0,0-1.06.836.256.256,0,0,0-.084.307c.216.692.421,1.387.633,2.08a3.687,3.687,0,0,0,.193.586c-.012.036-.037.05-.071.031-.065-.036-.13-.074-.193-.114-.458-.291-.885-.626-1.336-.926-.156-.1-.318-.2-.475-.3a.253.253,0,0,0-.176-.046c-.055-.126-.191-.123-.289-.179a.18.18,0,0,0-.208.018c-.144.1-.293.191-.435.293-.445.32-.866.674-1.334.962A.327.327,0,0,0,62.306,50.9Z" transform="translate(-45.825 -43.363)" fill="#c4a36b"/>
      <path id="Path_23271" data-name="Path 23271" d="M57.775,52.248c-.075.023-.131-.025-.19-.054a5.982,5.982,0,0,1-.738-.47,1.044,1.044,0,0,0-.315-.19c-.061-.1-.171-.12-.257-.179a.167.167,0,0,0-.205.005c-.285.179-.575.35-.864.523a.422.422,0,0,0-.111.1,1.438,1.438,0,0,0-.344.183c-.061.029-.109.086-.184.084h0a1.439,1.439,0,0,1,.1-.453c.1-.375.2-.748.319-1.118a.24.24,0,0,0-.055-.254,3.823,3.823,0,0,0-.694-.6,3.539,3.539,0,0,1-.557-.473.254.254,0,0,1-.09-.133,1.452,1.452,0,0,1,.377-.045c.332-.007.663-.008.995-.015.131,0,.262-.024.393-.02.109,0,.151-.05.19-.14.207-.476.42-.949.631-1.423.02-.045.045-.089.076-.15.083.082.082.188.127.27s.024.217.14.271a.259.259,0,0,0,.022.2c.073.206.141.415.219.619.17.442.036.346.515.376l1.523.063c.013.079-.051.1-.054.152a.38.38,0,0,0-.083.042q-.622.53-1.244,1.062a.118.118,0,0,0-.043.148,1.139,1.139,0,0,1,.037.145Q57.595,51.51,57.775,52.248Z" transform="translate(-45.825 -43.363)" fill="#c4a36b"/>
      <path id="Path_23272" data-name="Path 23272" d="M73.566,49.157c.5.009.993.061,1.492.088.021.065-.039.091-.052.135-.194.134-.386.272-.583.4a3.879,3.879,0,0,0-.727.644.234.234,0,0,0-.059.252c.138.479.267.961.4,1.442a.4.4,0,0,0,.07.151c-.084.042-.143-.02-.205-.054a9.85,9.85,0,0,1-.86-.556.685.685,0,0,0-.222-.132c-.058-.079-.152-.108-.224-.167a.19.19,0,0,0-.255,0c-.29.185-.586.363-.88.541a.258.258,0,0,0-.118.115c-.14.01-.231.118-.349.174-.061.028-.109.085-.182.089-.031-.045,0-.085.008-.125.144-.526.283-1.053.437-1.575a.256.256,0,0,0-.1-.319c-.375-.294-.743-.6-1.113-.9-.061-.05-.121-.1-.184-.155.053-.058.107-.038.153-.039.539-.015,1.078-.032,1.616-.037a.214.214,0,0,0,.221-.155c.209-.5.425-.991.638-1.485l.053-.119c.117.195.135.413.248.59a.3.3,0,0,0,.006.074c.116.336.235.671.352,1.006a.118.118,0,0,0,.125.087C73.367,49.134,73.466,49.148,73.566,49.157Z" transform="translate(-45.825 -43.363)" fill="#c4a36b"/>
      <path id="Path_23273" data-name="Path 23273" d="M80.539,54.359c-.058.072-.1,0-.142-.02-.242-.137-.482-.281-.723-.421a1.24,1.24,0,0,0-.117-.054,1.615,1.615,0,0,0-.294-.192.108.108,0,0,0-.137,0c-.218.154-.45.288-.656.459l-.512.332a.225.225,0,0,1,0-.168c.1-.395.187-.79.289-1.183a.207.207,0,0,0-.057-.217c-.253-.279-.555-.505-.825-.766-.079-.076-.159-.151-.265-.25.257-.013.473-.028.689-.035.244-.008.488-.013.732-.01a.193.193,0,0,0,.219-.148c.143-.387.3-.769.452-1.153.015-.038.034-.076.06-.132a4.217,4.217,0,0,1,.27.55c.059.214.118.428.179.642a.353.353,0,0,0,.268.256.782.782,0,0,0,.22.024,2.884,2.884,0,0,0,.615.041,4.456,4.456,0,0,1,.538.04c-.009.068-.1.071-.094.137a.368.368,0,0,0-.156.057c-.268.175-.534.352-.805.522a.16.16,0,0,0-.074.205c.04.164.065.331.1.5C80.4,53.7,80.439,54.036,80.539,54.359Z" transform="translate(-45.825 -43.363)" fill="#c4a36b"/>
      <path id="Path_23274" data-name="Path 23274" d="M48.587,54.128c-.166.055-.3.18-.46.234-.05-.043-.029-.088-.022-.128.08-.417.158-.836.245-1.251a.27.27,0,0,0-.115-.305c-.291-.226-.575-.463-.862-.7-.024-.019-.052-.035-.054-.074.035-.049.09-.027.136-.028.389-.005.777-.007,1.166-.011.185,0,.185,0,.257-.176q.252-.608.505-1.214a1.064,1.064,0,0,1,.048-.1c.109.206.131.43.237.621a2.36,2.36,0,0,0,.144.479c.039.116.036.271.138.334s.242.021.365.017c.392.011.782.045,1.181.035-.016.091-.093.1-.125.151-.337.218-.648.473-.976.7a.155.155,0,0,0-.06.194c.112.443.217.887.324,1.331a.461.461,0,0,0,.065.155c-.009.067-.046.061-.092.037a3.521,3.521,0,0,1-.433-.291,1.8,1.8,0,0,0-.411-.285.869.869,0,0,0-.286-.2.112.112,0,0,0-.124,0C49.115,53.818,48.837,53.949,48.587,54.128Z" transform="translate(-45.825 -43.363)" fill="#c4a36b"/>
      <path id="Path_23275" data-name="Path 23275" d="M82.116,60.334c0,.073,0,.146-.006.221,0,.043,0,.086,0,.13,0,.106-.008.213-.014.321,0,.089-.009.179-.014.27-.374,6.91-3.275,19.551-18.1,29.192-15.012-9.614-17.8-22.5-18.116-29.4l-.008-.162c-.007-.181-.014-.357-.017-.528-.019-.7-.01-1.325.01-1.865q.02.56.062,1.174c.008.111.016.222.026.336s.019.221.029.332A34.625,34.625,0,0,0,49.745,73.2q.237.455.494.913c.42.75.877,1.5,1.378,2.259a36.956,36.956,0,0,0,3.459,4.443c.139.155.282.308.426.462a44.212,44.212,0,0,0,8.474,6.976l.347-.229A46.923,46.923,0,0,0,69.7,83.893c.2-.178.4-.356.588-.536A35.585,35.585,0,0,0,82,60.2c.009-.094.016-.187.024-.278s.015-.186.021-.277c.029-.406.049-.795.063-1.165C82.126,59.015,82.133,59.637,82.116,60.334Z" transform="translate(-45.825 -43.363)" fill="#c4a36b"/>
    </g>
  </g>
</svg>
