<svg xmlns="http://www.w3.org/2000/svg" xmlns:xlink="http://www.w3.org/1999/xlink" width="34.635" height="20.205" viewBox="0 0 34.635 20.205">
  <defs>
    <clipPath id="clip-path">
      <rect id="Rectangle_509" data-name="Rectangle 509" width="34.635" height="20.205" transform="translate(1172.27 3111.292)" fill="none"/>
    </clipPath>
  </defs>
  <g id="MALAYSIA" transform="translate(-1172.27 -3111.292)">
    <g id="Group_12177" data-name="Group 12177">
      <g id="Group_12176" data-name="Group 12176">
        <g id="Group_12175" data-name="Group 12175" clip-path="url(#clip-path)">
          <rect id="Rectangle_493" data-name="Rectangle 493" width="34.635" height="1.443" transform="translate(1172.27 3111.292)" fill="#d80031"/>
          <rect id="Rectangle_494" data-name="Rectangle 494" width="34.635" height="1.443" transform="translate(1172.27 3112.735)" fill="#fff"/>
          <rect id="Rectangle_495" data-name="Rectangle 495" width="34.635" height="1.443" transform="translate(1172.27 3114.178)" fill="#d80031"/>
          <rect id="Rectangle_496" data-name="Rectangle 496" width="34.635" height="1.443" transform="translate(1172.27 3115.621)" fill="#fff"/>
          <rect id="Rectangle_497" data-name="Rectangle 497" width="34.635" height="1.443" transform="translate(1172.27 3117.064)" fill="#d80031"/>
          <rect id="Rectangle_498" data-name="Rectangle 498" width="34.635" height="1.443" transform="translate(1172.27 3118.508)" fill="#fff"/>
          <rect id="Rectangle_499" data-name="Rectangle 499" width="34.635" height="1.443" transform="translate(1172.27 3119.951)" fill="#d80031"/>
          <rect id="Rectangle_500" data-name="Rectangle 500" width="34.635" height="1.443" transform="translate(1172.27 3121.394)" fill="#fff"/>
          <rect id="Rectangle_501" data-name="Rectangle 501" width="34.635" height="1.443" transform="translate(1172.27 3122.837)" fill="#d80031"/>
          <rect id="Rectangle_502" data-name="Rectangle 502" width="34.635" height="1.443" transform="translate(1172.27 3124.28)" fill="#fff"/>
          <rect id="Rectangle_503" data-name="Rectangle 503" width="34.635" height="1.443" transform="translate(1172.27 3125.724)" fill="#d80031"/>
          <rect id="Rectangle_504" data-name="Rectangle 504" width="34.635" height="1.443" transform="translate(1172.27 3127.167)" fill="#fff"/>
          <rect id="Rectangle_505" data-name="Rectangle 505" width="34.635" height="1.443" transform="translate(1172.27 3128.61)" fill="#d80031"/>
          <rect id="Rectangle_506" data-name="Rectangle 506" width="34.635" height="1.443" transform="translate(1172.27 3130.053)" fill="#fff"/>
          <rect id="Rectangle_507" data-name="Rectangle 507" width="20.204" height="11.545" transform="translate(1172.27 3111.292)" fill="#2530a9"/>
          <g id="Group_12174" data-name="Group 12174">
            <g id="Group_12173" data-name="Group 12173" clip-path="url(#clip-path)">
              <path id="Path_23363" data-name="Path 23363" d="M1177.681,3117.064a3.789,3.789,0,0,1,5.771-3.229,4.33,4.33,0,1,0,0,6.458,3.787,3.787,0,0,1-5.771-3.229" fill="#f5d028"/>
              <path id="Path_23364" data-name="Path 23364" d="M1186.341,3117.064l2.073-.8-2.215.177,1.52-1.625-1.921,1.121.663-2.121-1.244,1.843-.319-2.2-.231,1.576-.065.456-.025.169-1.245-1.843.666,2.121-1.921-1.121,1.52,1.625-2.216-.177,2.075.8-2.075.8,2.216-.177-1.52,1.629,1.921-1.125-.666,2.121,1.245-1.842.025.173.065.451.231,1.58.319-2.205,1.244,1.842-.663-2.121,1.921,1.125-1.52-1.629,2.215.177Z" fill="#f5d028"/>
            </g>
          </g>
        </g>
      </g>
    </g>
  </g>
</svg>
