<?xml version="1.0" encoding="UTF-8"?>
<svg xmlns="http://www.w3.org/2000/svg" xmlns:xlink="http://www.w3.org/1999/xlink" viewBox="0 0 48 48" width="48px" height="48px">
<g id="surface77603052">
<path style=" stroke:none;fill-rule:nonzero;fill:rgb(100%,100%,100%);fill-opacity:1;" d="M 38.25 34.5 C 39.078125 34.5 39.75 35.171875 39.75 36 C 39.75 36.828125 39.078125 37.5 38.25 37.5 C 37.800781 37.5 10.199219 37.5 9.75 37.5 C 8.921875 37.5 8.25 36.828125 8.25 36 C 8.25 35.171875 8.921875 34.5 9.75 34.5 C 10.199219 34.5 37.800781 34.5 38.25 34.5 Z M 38.25 22.5 C 39.078125 22.5 39.75 23.171875 39.75 24 C 39.75 24.828125 39.078125 25.5 38.25 25.5 C 37.800781 25.5 10.199219 25.5 9.75 25.5 C 8.921875 25.5 8.25 24.828125 8.25 24 C 8.25 23.171875 8.921875 22.5 9.75 22.5 C 10.199219 22.5 37.800781 22.5 38.25 22.5 Z M 38.25 10.5 C 39.078125 10.5 39.75 11.171875 39.75 12 C 39.75 12.828125 39.078125 13.5 38.25 13.5 C 37.800781 13.5 10.199219 13.5 9.75 13.5 C 8.921875 13.5 8.25 12.828125 8.25 12 C 8.25 11.171875 8.921875 10.5 9.75 10.5 C 10.199219 10.5 37.800781 10.5 38.25 10.5 Z M 38.25 10.5 "/>
</g>
</svg>
