<svg xmlns="http://www.w3.org/2000/svg" width="62.052" height="62.052" viewBox="0 0 62.052 62.052">
  <g id="Group_12335" data-name="Group 12335" transform="translate(-1233.264 -1810.572)">
    <circle id="Ellipse_60" data-name="Ellipse 60" cx="31.026" cy="31.026" r="31.026" transform="translate(1233.264 1810.572)" fill="#f60"/>
    <path id="Path_23336" data-name="Path 23336" d="M1217.659,1778.526a20.974,20.974,0,0,1,20.991,20.989,21.468,21.468,0,0,1-1.082,6.655h-6.256v-17.634l-13.651,13.651-13.652-13.651v17.634h-6.257a21.463,21.463,0,0,1-1.081-6.655,20.974,20.974,0,0,1,20.99-20.989Zm-3.126,26.731,3.184,3.132,3.128-3.13,5.916-5.973v11.092h8.817a20.977,20.977,0,0,1-35.835,0h8.815v-11.092l5.973,5.973Z" transform="translate(46.573 42.198)" fill="#fff"/>
  </g>
</svg>
