<svg xmlns="http://www.w3.org/2000/svg" width="15.657" height="18.079" viewBox="0 0 15.657 18.079">
  <g id="Group_12138" data-name="Group 12138" transform="translate(0 0)">
    <g id="Group_12135" data-name="Group 12135">
      <path id="Path_23311" data-name="Path 23311" d="M57.238,891.02l-7.829-4.52v-9.04l7.829-4.519,7.828,4.519v9.04Zm-7.047-4.972,7.047,4.069,7.046-4.069v-8.135l-7.046-4.069-7.047,4.069Z" transform="translate(-49.409 -872.941)" fill="#c4a36b"/>
    </g>
    <g id="Group_12137" data-name="Group 12137" transform="translate(2.635 7.21)">
      <g id="Group_12136" data-name="Group 12136">
        <path id="Path_23312" data-name="Path 23312" d="M52.677,880.158a.276.276,0,0,1,.08.022.255.255,0,0,1,.067.045.763.763,0,0,1,.074.08l2.037,2.576c-.008-.083-.013-.162-.018-.24s-.005-.151-.005-.22v-2.27h.877v4.29h-.518a.471.471,0,0,1-.194-.035.41.41,0,0,1-.153-.13L52.9,881.721c.006.075.011.148.014.219s.007.139.007.2v2.3h-.878v-4.29h.524A.791.791,0,0,1,52.677,880.158Z" transform="translate(-52.044 -880.151)" fill="#c4a36b"/>
        <path id="Path_23313" data-name="Path 23313" d="M59.019,880.151v.766H57.258V882h1.466v.768H57.258v1.669h-1v-4.29Z" transform="translate(-52.044 -880.151)" fill="#c4a36b"/>
        <path id="Path_23314" data-name="Path 23314" d="M62.891,880.151v.79H61.683v3.5h-.995v-3.5H59.481v-.79Z" transform="translate(-52.044 -880.151)" fill="#c4a36b"/>
      </g>
    </g>
  </g>
</svg>
