<svg xmlns="http://www.w3.org/2000/svg" width="31.778" height="37.3" viewBox="0 0 31.778 37.3">
  <g id="Group_12121" data-name="Group 12121" transform="translate(-1749.989 -48.711)">
    <g id="Group_12120" data-name="Group 12120">
      <path id="Path_23290" data-name="Path 23290" d="M1779.3,74.968V66.1a13.76,13.76,0,0,0-9.818-13.241,3.643,3.643,0,1,0-7.209-.012,13.427,13.427,0,0,0-9.817,12.932v9.192a2.466,2.466,0,0,1-2.467,2.466V81.45h31.778V77.434A2.467,2.467,0,0,1,1779.3,74.968Z" fill="#c4a36b" fill-rule="evenodd"/>
      <path id="Path_23291" data-name="Path 23291" d="M1765.877,86.011a3.644,3.644,0,0,0,3.6-3.078h-7.189A3.632,3.632,0,0,0,1765.877,86.011Z" fill="#c4a36b" fill-rule="evenodd"/>
    </g>
  </g>
</svg>
