<svg xmlns="http://www.w3.org/2000/svg" width="63.078" height="77.36" viewBox="0 0 63.078 77.36">
  <path id="Path_23315" data-name="Path 23315" d="M365.5,1285.6h21.026a1.761,1.761,0,1,0,0-3.521H365.5a1.761,1.761,0,0,0,0,3.521m0,10.563h38.581a1.761,1.761,0,0,0,0-3.521H365.5a1.761,1.761,0,0,0,0,3.521m0,10.513h31.539a1.737,1.737,0,1,0,0-3.472H365.5a1.736,1.736,0,1,0,0,3.472m47.309-49.193H398.827v-3.521a3.535,3.535,0,0,0-3.521-3.521h-6.992a3.521,3.521,0,0,0-7.042,0H374.28a3.535,3.535,0,0,0-3.521,3.521v3.521H356.775a3.534,3.534,0,0,0-3.521,3.52v59.756a3.535,3.535,0,0,0,3.521,3.521h56.037a3.534,3.534,0,0,0,3.52-3.521v-59.756a3.534,3.534,0,0,0-3.52-3.52m-38.532-3.521h21.026v7.041H374.28Zm38.532,66.8H356.775v-49.242h56.037Zm0-52.763H356.775v-6.993h13.984a3.535,3.535,0,0,0,3.521,3.521h21.026a3.535,3.535,0,0,0,3.521-3.521h13.985Z" transform="translate(-353.254 -1246.922)" fill="#c4a36b" fill-rule="evenodd"/>
</svg>
