<svg xmlns="http://www.w3.org/2000/svg" xmlns:xlink="http://www.w3.org/1999/xlink" width="34.636" height="20.208" viewBox="0 0 34.636 20.208">
  <defs>
    <clipPath id="clip-path">
      <rect id="Rectangle_516" data-name="Rectangle 516" width="34.636" height="20.209" transform="translate(1172.27 3163.602)" fill="none"/>
    </clipPath>
  </defs>
  <g id="SAUDI_ARABIA" data-name="SAUDI ARABIA" transform="translate(-1172.27 -3163.602)">
    <g id="Group_12185" data-name="Group 12185">
      <g id="Group_12184" data-name="Group 12184">
        <g id="Group_12183" data-name="Group 12183" clip-path="url(#clip-path)">
          <rect id="Rectangle_514" data-name="Rectangle 514" width="34.636" height="20.209" transform="translate(1172.27 3163.602)" fill="#3d9635"/>
          <g id="Group_12182" data-name="Group 12182">
            <g id="Group_12181" data-name="Group 12181" clip-path="url(#clip-path)">
              <path id="Path_23365" data-name="Path 23365" d="M1182.073,3169.331c-.035.471-.078,1.306.323,1.39.485.045.218-.822.392-.979.033-.077.1-.077.1.02v.738a.349.349,0,0,0,.276.354c.127-.008.212,0,.261.121.021.424.04.847.06,1.27,0,0,.3.089.31-.713a7.371,7.371,0,0,1-.031-.956c0-.088.116-.1.2-.048.127.089.184.2.38.153.3-.085.479-.226.484-.46a2,2,0,0,0-.135-.657c.013-.04-.059-.141-.044-.181.053.085.134.077.152,0a.656.656,0,0,0-.257-.4c-.107-.093-.264-.073-.321.125a1.082,1.082,0,0,0,.247.705.7.7,0,0,1,.061.355.2.2,0,0,1-.245-.048s-.241-.182-.241-.218a.867.867,0,0,0-.02-.568.734.734,0,0,0-.158-.307c-.06-.068-.141-.068-.179,0a1.065,1.065,0,0,0,.019.75c.054.161.139.262.1.262-.033.093-.1.069-.15-.036a2.591,2.591,0,0,1-.083-.69c-.022-.181-.046-.568-.165-.669-.073-.1-.181-.048-.22.045a3.479,3.479,0,0,0,.012.524,5.755,5.755,0,0,1,.149.846c.01.4-.23.174-.22-.028a1.829,1.829,0,0,0-.008-.762c-.04-.1-.086-.129-.183-.109-.076-.008-.271.206-.325.561a2.868,2.868,0,0,0-.067.346c-.028.182-.148.311-.231-.028-.075-.246-.118-.851-.24-.709" fill="#fff"/>
              <path id="Path_23366" data-name="Path 23366" d="M1183.391,3171.266c-.428.213-.844.407-1.265.608a1.293,1.293,0,0,1,1-.81c.26.008.193.1.264.2" fill="#fff"/>
              <path id="Path_23367" data-name="Path 23367" d="M1185,3168.6a.39.39,0,0,0-.08.024.236.236,0,0,0-.17.294c.122.742.2,1.306.322,2.044a.16.16,0,0,1-.146.194c-.16-.109-.2-.331-.472-.319a.536.536,0,0,0-.451.423,1.054,1.054,0,0,0,0,.484.4.4,0,0,0,.451.113c.119-.048.219-.169.261-.141h0c.026.048,0,.435-.563.73-.346.153-.619.193-.767-.089-.09-.177.007-.847-.217-.693-.666,1.717,1.558,1.959,1.807.072.016-.052.067-.1.1-.093.017.009.028.029.032.069-.051,1.705-1.719,1.818-2,1.286a1.6,1.6,0,0,1-.1-.577.3.3,0,0,0-.069-.189c-.067-.048-.158.085-.178.314a2.079,2.079,0,0,0-.02.412c.088,1.354,2.237.774,2.588-.343a3.8,3.8,0,0,0,.054-1.064h.007l.005,0c.218.229.514.028.581-.049a.1.1,0,0,1,.149-.016.343.343,0,0,0,.518-.145,5,5,0,0,0,.073-.641.608.608,0,0,0-.232.1.062.062,0,0,0-.017.032c-.008.057-.017.121-.027.182a.089.089,0,0,1-.006.016.041.041,0,0,1-.021.016.071.071,0,0,1-.109-.049c-.05-.229-.262-.266-.391.1-.088.073-.243.085-.261-.016.023-.246-.077-.278-.274-.165-.062-.484-.127-.944-.19-1.427.083,0,.156.06.233-.033a2.738,2.738,0,0,0-.35-.818h0s-.01-.012-.015-.016l-.006,0h-.006s-.01,0-.011-.008-.02,0-.029,0m-.6,2.648a.113.113,0,0,1,.118.073.129.129,0,0,1-.025.129h0c-.017.028-.073.016-.115.016a.108.108,0,0,1-.1-.052c-.015-.045.027-.089.047-.125h0l.007-.012a.163.163,0,0,1,.073-.029" fill="#fff"/>
              <path id="Path_23368" data-name="Path 23368" d="M1186.5,3168.557a.427.427,0,0,0-.15.04.293.293,0,0,0-.051.383c.085.036.17.125.112.169-.238.254-.86.681-.892.762h0v0h0l0,0h.005a1.635,1.635,0,0,0,.465,0v0h0a6.413,6.413,0,0,0,.768-.774c-.031-.028-.064-.048-.1-.076a.052.052,0,0,1,0-.089.256.256,0,0,0,.026-.387.38.38,0,0,0-.19-.036m-.029.221c.039,0,.084.037.108.085s.012.1-.027.117-.091-.028-.118-.081-.011-.109.03-.117l.007,0" fill="#fff"/>
              <path id="Path_23369" data-name="Path 23369" d="M1182.17,3172.483a1.26,1.26,0,0,0-.127,1.113.27.27,0,0,0,.27.088.492.492,0,0,0,.178-.475c-.049-.081-.089-.093-.139-.025-.1.21-.148.065-.157-.056a2.713,2.713,0,0,1,.028-.6c.026-.165,0-.117-.053-.048" fill="#fff"/>
              <path id="Path_23370" data-name="Path 23370" d="M1192.315,3171.878c-.228-.5-.546-.983-.647-1.169s-.865-1.294-.978-1.423c-.249-.294.4.125-.082-.463-.184-.158-.2-.166-.351-.295-.075-.056-.266-.153-.3.008a.938.938,0,0,0,.016.351,1.2,1.2,0,0,0,.2.3,21.987,21.987,0,0,1,2.124,3.411c.1-.049.083-.633.02-.718" fill="#fff"/>
              <path id="Path_23371" data-name="Path 23371" d="M1191.309,3173.531c-.046.048.11.27.315.266a1.188,1.188,0,0,0,.916-.734,1.306,1.306,0,0,0,.209-.564,12.357,12.357,0,0,0-.228-2.854.449.449,0,0,1,.008-.2c.022-.028.1,0,.136-.064.059-.061-.153-.552-.274-.742-.044-.084-.059-.141-.13.008a1.08,1.08,0,0,0-.119.54c.162,1.121.211,2.109.319,3.229a.453.453,0,0,1-.079.331,3.144,3.144,0,0,1-1.073.782" fill="#fff"/>
              <path id="Path_23372" data-name="Path 23372" d="M1195.905,3173.523c-.246.141-.246.306-.047.31a1.22,1.22,0,0,0,1.021-.487,1.612,1.612,0,0,0,.165-.629,14.723,14.723,0,0,0-.185-3.084,1.4,1.4,0,0,1-.034-.29c.023-.053.133.008.17-.057.061-.056-.284-.5-.407-.693-.041-.085-.056-.141-.128.012a.861.861,0,0,0-.07.536,29.7,29.7,0,0,1,.341,3.483,1.006,1.006,0,0,1-.068.286,2.1,2.1,0,0,1-.333.391c-.113.081-.349.162-.425.222" fill="#fff"/>
              <path id="Path_23373" data-name="Path 23373" d="M1196.086,3172.431c0-.287.008-.533,0-.746s-.108-1.012-.138-1.181-.067-.432-.114-.637a1.742,1.742,0,0,1-.042-.363c.018-.057.1,0,.132-.065a2.253,2.253,0,0,0-.321-.9c-.045-.084-.129-.056-.23.081-.1.089-.062.29-.025.484a17.917,17.917,0,0,1,.388,3.825c-.015.1.358-.31.354-.5" fill="#fff"/>
              <path id="Path_23374" data-name="Path 23374" d="M1194.284,3170.85c-.154,0-.476-.3-.57-.471a.335.335,0,0,1,.018-.254c.058-.037.145-.081.21-.037,0,0,.068.093.055.105.084.041.12.016.129-.02.005-.056-.026-.093-.026-.157a.178.178,0,0,1,.317-.093.647.647,0,0,1,.086.315c0,.052-.084-.008-.13,0s-.058.064-.063.112c-.01.134-.024.339-.026.5" fill="#fff"/>
              <path id="Path_23375" data-name="Path 23375" d="M1191.448,3172.749a13.219,13.219,0,0,0-.018-1.411c-.014-.54-.105-1.584-.145-1.758-.048-.33.134.037.108-.157a2.105,2.105,0,0,0-.455-.85c-.068-.1-.065-.117-.173.024a1.014,1.014,0,0,0,.014.661,12.2,12.2,0,0,1,.286,1.919,16.863,16.863,0,0,1,.017,2.04c.116,0,.3-.19.366-.468" fill="#fff"/>
              <path id="Path_23376" data-name="Path 23376" d="M1196.61,3172.124c-.269-.455-.679-.987-.788-1.169s-1.034-1.536-1.15-1.657c-.338-.35.156-.056-.063-.334a2.694,2.694,0,0,0-.4-.387c-.079-.049-.128-.149-.154.016a3.205,3.205,0,0,0-.013.443.563.563,0,0,0,.135.274,25.352,25.352,0,0,1,2.429,3.528c.1-.049.068-.633,0-.714" fill="#fff"/>
              <path id="Path_23377" data-name="Path 23377" d="M1193.331,3177.49h0a.227.227,0,0,0-.077.419c-2.53,0-6.413-.04-7.243-.04-.467,0-1.94-.057-1.967-.057a1.5,1.5,0,0,0,1.371.565c1.124,0,6.33-.012,7.809-.012a.513.513,0,0,0,.094.54l.006,0a.009.009,0,0,0,.009,0h0c.1.024.142-.049.176-.1a10.658,10.658,0,0,0,1.136,0h0c.056.081.112.157.217.145.184-.04.329-.06.335-.435,0,0-.019-.637-.438-.6-.1.012-.377.04-.377.04-.322-.036-.56-.04-.922-.056.034-.04.092-.214.02-.274a.127.127,0,0,0-.087-.024h-.007l-.008-.008v0a.724.724,0,0,1-.04-.109h-.008m.171.911h0c.367.016.714,0,1.085.02a.135.135,0,0,1-.01.185s0,0-.005,0h-.01c-.12,0-.189,0-.309-.008,0-.008,0-.012,0-.02-.029-.084-.234-.076-.283-.008h0l0,0,0,.008v.008l0,.012a2.571,2.571,0,0,1-.472-.016c-.045-.056-.04-.161.015-.189" fill="#fff"/>
              <path id="Path_23378" data-name="Path 23378" d="M1186.929,3168.944c-.246.7.142,1.475.411,1.4.194.077.316-.294.4-.7.055-.113.095-.125.123-.069-.008.541.039.662.177.823a.438.438,0,0,0,.583.008c.021-.016.241-.238.241-.238a.144.144,0,0,1,.2-.008c.071.065.062.181.22.258a.472.472,0,0,0,.479-.1c.089-.149.108-.2.148-.258.065-.084.171-.048.171-.02-.009.048-.07.093-.031.177.077.057.094.021.14.009.156-.077.274-.416.274-.416.005-.129-.065-.117-.113-.088s-.063.048-.123.084c-.076.008-.225.061-.3-.052a4.567,4.567,0,0,1-.136-.468c0-.008-.1-.213-.006-.23.046.009.145.037.162-.048.049-.081-.105-.314-.21-.427a.229.229,0,0,0-.341-.012c-.084.076-.073.169-.09.25a.391.391,0,0,0,.081.338,1.037,1.037,0,0,1,.19.69.287.287,0,0,1-.25.129c-.065-.017-.173-.045-.231-.464-.041-.323.012-.774-.125-.98-.049-.129-.083-.254-.2-.032a.5.5,0,0,0-.071.48,1.419,1.419,0,0,1,.077.746,1.344,1.344,0,0,1-.144.205.24.24,0,0,1-.3.041.329.329,0,0,1-.181-.254,3.683,3.683,0,0,0-.03-.827.147.147,0,0,0-.248-.052,1.864,1.864,0,0,0-.455.931c-.07.226-.146.161-.2.069-.126-.117-.136-1.053-.29-.9" fill="#fff"/>
              <path id="Path_23379" data-name="Path 23379" d="M1187.761,3170.4s0,0-.007,0l0,0c-.017.008-.038.036-.08.068-.074.085-.084.142-.08.3,0,.02.135.387.249.649a2,2,0,0,1,.1.875,2.135,2.135,0,0,1-.882.919.454.454,0,0,1-.368,0v0a.223.223,0,0,1-.1-.21h0a2.106,2.106,0,0,0,.887-.915.961.961,0,0,0,.024-.661.66.66,0,0,0-.152-.3l0,0c.049-.024.177.073.2.013a.949.949,0,0,0-.254-.468.215.215,0,0,0-.313-.02c-.106.06-.128.274-.079.463.058.137.214.162.325.444v0a.536.536,0,0,1-.02.294,3.334,3.334,0,0,1-.664.621l0,0v0h-.007l0,0a.653.653,0,0,0,0-.093c0-.08.032-.274.03-.31h0v0h0c-.189.125-.254.5-.289.617a8.415,8.415,0,0,0-1.348.923c-.166.254,1.136-.3,1.286-.363l.006,0c.028.028.028.137.116.238a.688.688,0,0,0,.7.23,2.25,2.25,0,0,0,1.016-.847c.038-.056.1-.1.156-.056a1.59,1.59,0,0,0,1.438.753c.163-.2.086-.3.019-.334-.021-.016-.35-.145-.4-.274-.031-.117.046-.222.2-.3a6.992,6.992,0,0,0,1.327-.254,1.157,1.157,0,0,1,.145-.455.207.207,0,0,1,.076-.081l0,0h0v0l0-.008-.075-.044-1.442-.008a.186.186,0,0,1-.04-.02h0v0h0l0-.005h0v0h0v0h0v0h0l0,0a.093.093,0,0,1,.045-.028c.347-.044.958-.145,1-.738a.511.511,0,0,0-.507-.56.517.517,0,0,0-.443.585c-.012.076.029.233-.052.25-.531.052-1.109.383-1.131.62h-.007l0,0h-.007l-.006,0a.132.132,0,0,1-.07-.145,2.858,2.858,0,0,0-.365-1.233c-.074-.077-.107-.1-.129-.109h-.009m2.108.528a.176.176,0,0,1,.113.028.145.145,0,0,1,.089.121v.008h0l0,0v0l-.01.008c-.028.028-.089.024-.151-.012a.154.154,0,0,1-.088-.117v0c0-.008,0-.012.006-.012l0-.008h0l.007-.008a.049.049,0,0,1,.034-.012m-1.341,1.217h.017a4.072,4.072,0,0,0,.6.069c.167.012.249.141.093.2s-.3.093-.3.319c.019.109.016.169,0,.193a.009.009,0,0,1-.006.008v0h0v0h0l-.007,0-.006,0c-.039,0-.092-.037-.133-.053a.831.831,0,0,1-.4-.592.151.151,0,0,1,.15-.158" fill="#fff"/>
              <path id="Path_23380" data-name="Path 23380" d="M1183.891,3168.952c.167.076.478.044.465-.222,0-.024-.005-.1-.007-.125-.032-.081-.127-.065-.147.02-.007.024.01.069-.013.085s-.067,0-.066-.069a.112.112,0,0,0-.028-.064.046.046,0,0,0-.037-.012c-.022,0-.022.008-.032.028a.161.161,0,0,0-.013.06c0,.029-.015.037-.035.041s-.015,0-.034-.008-.024-.017-.024-.037a.309.309,0,0,0-.008-.064.074.074,0,0,0-.041-.024c-.092,0-.1.1-.092.145-.008.008-.011.193.112.246" fill="#fff"/>
              <path id="Path_23381" data-name="Path 23381" d="M1188.763,3171.016c.167.076.562.032.467-.226a1.212,1.212,0,0,0-.01-.125c-.033-.081-.125-.061-.147.02-.005.028.013.073-.011.089s-.068,0-.067-.073a.1.1,0,0,0-.027-.06.047.047,0,0,0-.037-.012c-.022,0-.022.008-.035.028a.225.225,0,0,0-.013.06c0,.029-.013.037-.033.041s-.014,0-.033-.008-.024-.017-.024-.037a.153.153,0,0,0-.011-.064.064.064,0,0,0-.041-.024c-.089,0-.094.1-.091.145-.005,0-.009.189.113.246" fill="#fff"/>
              <path id="Path_23382" data-name="Path 23382" d="M1191.6,3170.161c.166.077.478.04.465-.226,0-.02-.005-.1-.007-.125-.035-.076-.129-.06-.147.024-.008.025.009.069-.015.081s-.067.008-.065-.068a.14.14,0,0,0-.027-.065.083.083,0,0,0-.036,0c-.022,0-.022,0-.035.024a.191.191,0,0,0-.014.065.034.034,0,0,1-.033.036c-.02,0-.017,0-.032-.008a.042.042,0,0,1-.024-.036.282.282,0,0,0-.011-.069.105.105,0,0,0-.041-.016c-.09,0-.1.1-.091.141-.006.008-.01.194.113.246" fill="#fff"/>
              <path id="Path_23383" data-name="Path 23383" d="M1193.076,3172.3a1.013,1.013,0,0,0-.1.983.776.776,0,0,0,.358.407.248.248,0,0,0,.375-.04c.169-.177.173-.625.252-.713a.149.149,0,0,1,.265-.065.707.707,0,0,0,.243.21.409.409,0,0,0,.535.036.6.6,0,0,0,.285-.347,12.606,12.606,0,0,0,.021-2.04c-.008-.048-.164-.838-.164-.846s-.022-.4-.038-.5c0-.04-.013-.052.027-.048.042.04.046.044.074.052s.08-.064.055-.133c-.131-.242-.265-.488-.4-.726-.03-.036-.073-.068-.124,0a.291.291,0,0,0-.1.218c.012.173.042.351.054.524.053.294.1.593.159.891.049.633.063,1.213.113,1.846-.008.266-.09.625-.172.657,0,0-.116.073-.2,0a2.324,2.324,0,0,1-.291-.387.178.178,0,0,0-.284,0,3.958,3.958,0,0,0-.5.936c-.042.064-.157.121-.284,0a1.325,1.325,0,0,1-.176-.915" fill="#fff"/>
              <path id="Path_23384" data-name="Path 23384" d="M1191.68,3168.6a.542.542,0,0,1,.219.508c-.03.181-.108.383-.165.355s.041-.182-.017-.347c-.035-.109-.236-.3-.215-.363-.043-.121.086-.177.178-.153" fill="#fff"/>
              <path id="Path_23385" data-name="Path 23385" d="M1193.556,3172.483a4.373,4.373,0,0,0-.032-.8c-.009-.21-.238-1.939-.287-2.1-.056-.3.225-.041.193-.218-.1-.222-.339-.548-.414-.742-.048-.085-.028-.157-.13-.02a1.694,1.694,0,0,0-.092.758,16.472,16.472,0,0,1,.456,3.644c.115,0,.248-.262.306-.524" fill="#fff"/>
              <path id="Path_23386" data-name="Path 23386" d="M1196.1,3169.032c.139.073.218.448.2.557-.026.2-.1.411-.15.383s.011-.295-.016-.375c-.033-.117-.216-.331-.2-.4a.131.131,0,0,1,.16-.17" fill="#fff"/>
              <path id="Path_23387" data-name="Path 23387" d="M1186.011,3171.8c.128.048.206.326.191.407-.027.145-.095.3-.143.282s.011-.218-.017-.278c-.01-.149-.19-.226-.186-.29-.034-.117.074-.137.155-.121" fill="#fff"/>
              <path id="Path_23388" data-name="Path 23388" d="M1182.54,3168.512c.192.057.2.339.191.423-.026.15-.095.311-.145.291s0-.222-.028-.286c-.027-.093-.189-.25-.17-.3-.037-.1.073-.149.152-.129" fill="#fff"/>
              <path id="Path_23389" data-name="Path 23389" d="M1186.324,3169.843a.34.34,0,0,0-.112.455.224.224,0,0,0,.238.073c.144.02.229-.27.229-.27s0-.081-.165.072c-.073.016-.082-.012-.1-.052a.369.369,0,0,1,.022-.226c.027-.073-.029-.1-.111-.052" fill="#fff"/>
              <path id="Path_23390" data-name="Path 23390" d="M1187.425,3168.4a.534.534,0,0,0-.224.379c-.006.1-.024.1.041.162.048.068.1.06.189.008a.2.2,0,0,0,.091-.129c.023-.113-.118.052-.137-.073s.059-.161.146-.278c0-.077,0-.129-.106-.069" fill="#fff"/>
              <path id="Path_23391" data-name="Path 23391" d="M1188.315,3168.561a2.3,2.3,0,0,0-.064.439c-.027.109.115.157.178.016a1.286,1.286,0,0,0,.1-.48c-.029-.165-.141-.157-.215.025" fill="#fff"/>
              <path id="Path_23392" data-name="Path 23392" d="M1193.914,3171.411l.79-.565c.078-.028.061.282.026.278a3.032,3.032,0,0,1-.816.569c-.037.024-.075-.214,0-.282" fill="#fff"/>
              <path id="Path_23393" data-name="Path 23393" d="M1194.617,3171.407c.137.068.19.463.175.572.005.21-.131.379-.183.355s.006-.262-.02-.347c-.033-.117-.148-.334-.128-.4a.133.133,0,0,1,.156-.181" fill="#fff"/>
              <path id="Path_23394" data-name="Path 23394" d="M1190.037,3173.116a1.137,1.137,0,0,1,.219-.19.132.132,0,0,1,.149.029c.013.072-.047.145-.028.246.015.04.028.088.1.068a.518.518,0,0,1,.358-.1c.095,0,.1.161.039.161a2.678,2.678,0,0,0-.489.174.109.109,0,0,1-.141-.02.141.141,0,0,1-.014-.141c.007-.081-.026-.125-.1-.121-.051.032-.1.048-.121-.008-.009-.045-.013-.069.02-.093" fill="#fff"/>
              <path id="Path_23395" data-name="Path 23395" d="M1195.427,3173.33a.1.1,0,0,1,0,.149c-.055.052-.092.076-.147.129-.024.044-.04.109.036.129.143.04.477-.174.477-.182a.1.1,0,0,0,.031-.117c-.031-.036-.1-.016-.148-.016-.024,0-.1-.016-.062-.076a.616.616,0,0,0,.06-.117c.021-.053,0-.085-.08-.113a.711.711,0,0,0-.205,0c-.049.012-.067.036-.076.093,0,.088.059.084.116.121" fill="#fff"/>
            </g>
          </g>
        </g>
      </g>
    </g>
  </g>
</svg>
