<svg xmlns="http://www.w3.org/2000/svg" xmlns:xlink="http://www.w3.org/1999/xlink" width="258.37" height="363.83" viewBox="0 0 258.37 363.83">
  <defs>
    <clipPath id="clip-path">
      <rect id="Rectangle_439" data-name="Rectangle 439" width="258.37" height="363.83" fill="none"/>
    </clipPath>
  </defs>
  <g id="Group_12130" data-name="Group 12130" opacity="0.31">
    <g id="Group_12129" data-name="Group 12129" clip-path="url(#clip-path)">
      <path id="Path_23302" data-name="Path 23302" d="M256.011,1047.6a90.1,90.1,0,0,0-3.777-22.157c-4.222-13.851-9.208-27.5-14.179-41.122-6.272-17.182-11.3-34.549-11.427-53.067a54.723,54.723,0,0,0-1.591-13.021c-.672-2.718-4.482-17.413-12.8-26.642a65.18,65.18,0,0,0-11.044-10.226,60.7,60.7,0,0,0-8.122-4.852c-.015-.016-.031-.016-.061-.031-1.7-.86-3.442-1.658-5.186-2.411-4.374-1.873-9.086-2.948-13.659-4.361.015-.153.031-.291.046-.445,1.177.031,2.371.077,3.548.108,4.359.138,8.765.276,13.4.414a84.563,84.563,0,0,1,18.753-41.505l.031-.031c-18.922,3.087-33.009,13.375-46.837,24.185q-.414-.276-.872-.553l3.074-8.154c4.008-10.6,8.015-21.236,12.1-32.092,0-.015.015-.015.015-.031a96.56,96.56,0,0,0-23.142,10.181c-7.266,4.545-14.531,9.152-21.292,14.388A235.106,235.106,0,0,0,113.881,853.1c-6.149,5.927-11.869,12.284-17.774,18.472-.152-.076-.321-.153-.474-.215q6.838-10.986,13.69-21.912c.276-.476.566-.921.857-1.4a.467.467,0,0,1,.046-.061c-4.5.814-9.315,1.458-14.042,2.61-20.313,4.96-39.908,11.854-58.492,21.682-25.04,13.251-46.179,30.879-62.592,54.1-1.192,1.689-2.294,3.44-3.365,5.221-1.04,1.7-1.972,3.455-3.257,5.727,17.636-10.564,34.936-20.791,53.872-26.917a121.546,121.546,0,0,1,19.931-4.684,9.3,9.3,0,0,1-1.285.906c-25.958,12.238-49.33,28.008-68.053,50.166-9.881,11.716-17.652,24.629-21.337,39.631a158.921,158.921,0,0,0-4.452,49.337c.047.752.108,1.52.168,2.272.153,1.735.322,3.47.521,5.2,5.139,9.214,10.737,18.473,16.871,27.763.184-2.058.443-4.146.765-6.235,4.451-29.282,21.965-59.578,64.978-74.042-33.085,30.8-36.634,79.908-23.8,124.1.582-20.867,9.377-44.668,32.581-70.71-52.343,97.95,62.377,110.02,79.142,160.615a39.3,39.3,0,0,1,1.9,9.474c28.949-14.011,44.165-24.695,63.576-42.108,2.448-2.18,7.121-13.017,9.477-15.228.657-3.808,1.208-7.632,1.621-11.486q.873-7.877,1.01-15.892a144.612,144.612,0,0,0-2.248-26.55,108.4,108.4,0,0,0-19.257-45.482,103.9,103.9,0,0,0-25.239-25.1c-9.483-6.542-18.538-13.6-26.048-22.419-10.631-12.468-15.449-26.61-11.916-42.994a55.839,55.839,0,0,1,1.728-6.281,45.4,45.4,0,0,1,4.053-8.829c.719,6.25,1.162,12.883,2.325,19.394a33.85,33.85,0,0,0,10.922,19.624,12.423,12.423,0,0,0,1.423,1.075c9.575,4.729,25.758,10.825,36.572,17.4a.314.314,0,0,1,.123.061c6.929,3.655,12.68,7.494,15.067,11.348,5.827,9.412,12.65,18.027,15.173,28.606,1.163,4.9,2.371,9.92,5.951,13.743.259.277.535.553.825.814,3.564,3.317,7.848,2.856,9.851-1.581.536-1.183,2.983-2.5,5.476-2.672a4.981,4.981,0,0,1,5.354,3.086,10.9,10.9,0,0,0,1.682,2.887,8.24,8.24,0,0,0,5.843,3.04c5.306.476,9.727-1.52,13.491-5.267C254.252,1066.226,256.394,1057.1,256.011,1047.6Zm-43.868-93.237c-13.185-6.495-4.467-13.819-22.348-27.654,14.531,4.176,19.472,14.357,26.661,18.318C211.149,946.333,214.391,951.185,212.143,954.363Z" transform="translate(-2.358 -811.606)" fill="#484c65"/>
    </g>
  </g>
</svg>
