<svg xmlns="http://www.w3.org/2000/svg" width="54.522" height="54.522" viewBox="0 0 54.522 54.522">
  <path id="Path_23509" data-name="Path 23509" d="M673.17,792.295a27.261,27.261,0,1,0,27.261,27.261,27.253,27.253,0,0,0-27.261-27.261m0,52.032a24.771,24.771,0,1,1,24.772-24.771,24.756,24.756,0,0,1-24.772,24.771M662.295,822.1h-3.839a.643.643,0,0,0-.631.649v7.641a.639.639,0,0,0,.631.631h3.839a.642.642,0,0,0,.648-.631v-7.641a.646.646,0,0,0-.648-.649m-.631,7.641H659.1v-6.361h2.559Zm15.967-11.462h-3.839a.643.643,0,0,0-.63.649v11.462a.639.639,0,0,0,.63.631h3.839a.643.643,0,0,0,.649-.631V818.925a.647.647,0,0,0-.649-.649M677,829.738h-2.559V819.556H677Zm-7.028-19.1h-3.839a.646.646,0,0,0-.648.649v19.1a.643.643,0,0,0,.648.631h3.839a.64.64,0,0,0,.631-.631v-19.1a.643.643,0,0,0-.631-.649m-.649,19.1h-2.559V811.915h2.559Zm15.985-21.644H681.47a.643.643,0,0,0-.649.631v21.662a.643.643,0,0,0,.649.631h3.838a.639.639,0,0,0,.631-.631V808.725a.639.639,0,0,0-.631-.631m-.649,21.644H682.1V809.374h2.559Z" transform="translate(-645.909 -792.295)" fill="#c4a36b" fill-rule="evenodd"/>
</svg>
