<svg xmlns="http://www.w3.org/2000/svg" width="39.561" height="39.561" viewBox="0 0 39.561 39.561">
  <g id="Group_12162" data-name="Group 12162" transform="translate(-1149.985 -3606.666)">
    <path id="Path_23351" data-name="Path 23351" d="M1169.766,3645.477h0a19.032,19.032,0,0,1-19.031-19.031h0a19.031,19.031,0,0,1,19.031-19.03h0a19.03,19.03,0,0,1,19.03,19.03h0A19.031,19.031,0,0,1,1169.766,3645.477Z" fill="none" stroke="#f39200" stroke-miterlimit="10" stroke-width="1.5"/>
    <path id="Path_23352" data-name="Path 23352" d="M1177.272,3617.095a.619.619,0,0,0-.326-.1.594.594,0,0,0-.326.1l-17.8,11.808a.588.588,0,0,0,.111,1.042l4.644,1.853,2.178,3.793a.6.6,0,0,0,.509.3h.008a.608.608,0,0,0,.509-.287l1.233-2.043,5.749,2.29a.731.731,0,0,0,.223.04.565.565,0,0,0,.294-.08.606.606,0,0,0,.294-.413l2.966-17.717a.581.581,0,0,0-.262-.588m-12.675,14.114v-.008l7.4-7.232-5.743,10.119Z" fill="#f39200" fill-rule="evenodd"/>
  </g>
</svg>
