<svg xmlns="http://www.w3.org/2000/svg" width="62.052" height="62.052" viewBox="0 0 62.052 62.052">
  <g id="Group_12152" data-name="Group 12152" transform="translate(-438.996 -1877.703)">
    <circle id="Ellipse_58" data-name="Ellipse 58" cx="31.026" cy="31.026" r="31.026" transform="translate(438.996 1877.703)" fill="#26a17b"/>
    <path id="Path_23334" data-name="Path 23334" d="M473.75,1911.412v0c-.214.015-1.313.081-3.766.081-1.959,0-3.337-.058-3.822-.081v.005c-7.54-.331-13.167-1.644-13.167-3.215s5.627-2.881,13.167-3.219v5.127c.492.035,1.9.119,3.855.119,2.34,0,3.513-.1,3.733-.117v-5.125c7.523.336,13.137,1.649,13.137,3.215s-5.614,2.88-13.137,3.214m0-6.962v-4.588h10.5v-7H455.663v7h10.5v4.586c-8.532.392-14.949,2.083-14.949,4.107s6.417,3.714,14.949,4.107v14.7h7.588v-14.707c8.518-.391,14.919-2.08,14.919-4.1s-6.4-3.711-14.919-4.105" fill="#fff" fill-rule="evenodd"/>
  </g>
</svg>
