<svg xmlns="http://www.w3.org/2000/svg" width="12.72" height="17.4" viewBox="0 0 12.72 17.4">
  <path id="Path_23303" data-name="Path 23303" d="M59.033,689.3h-.79v4.75h.79Zm-3.18,0h-1.59v4.75h1.59Zm1.59,0h-.8v4.75h.8Zm4.77,0h-.8v4.75h.8Zm-1.59,0h-.8v4.75h.8Zm2.78-1.58H51.483a.4.4,0,0,0-.4.4v16.6a.4.4,0,0,0,.4.4.363.363,0,0,0,.28-.12l1.31-1.3,1.31,1.3a.387.387,0,0,0,.56,0l1.26-1.26.92,1.22h.01a.38.38,0,0,0,.62,0h.01l.92-1.22,1.26,1.26a.387.387,0,0,0,.56,0l1.31-1.3,1.31,1.3a.363.363,0,0,0,.28.12.4.4,0,0,0,.4-.4v-16.6a.4.4,0,0,0-.4-.4m-.4,16.05-.91-.91a.411.411,0,0,0-.56,0l-1.31,1.31-1.31-1.31a.393.393,0,0,0-.28-.11.37.37,0,0,0-.31.16h-.01l-.87,1.16-.87-1.16h-.01a.37.37,0,0,0-.31-.16.393.393,0,0,0-.28.11l-1.31,1.31-1.31-1.31a.411.411,0,0,0-.56,0l-.92.91v-15.26H63Zm-2.38-3.4h-7.95v.8h7.95Zm1.59-1.58h-9.54v.79h9.54Zm-8.75-9.49h-.79v4.75h.79Zm8.75,7.91h-9.54V698h9.54Zm-3.18-1.58h-6.36v.79h6.36Z" transform="translate(-51.083 -687.724)" fill="#c4a36b" fill-rule="evenodd"/>
</svg>
