<svg xmlns="http://www.w3.org/2000/svg" width="39.561" height="39.56" viewBox="0 0 39.561 39.56">
  <g id="Group_12159" data-name="Group 12159" transform="translate(-986.914 -3606.666)">
    <path id="Path_23345" data-name="Path 23345" d="M1006.694,3645.476h0a19.03,19.03,0,0,1-19.03-19.03h0a19.03,19.03,0,0,1,19.03-19.03h0a19.03,19.03,0,0,1,19.031,19.03h0A19.03,19.03,0,0,1,1006.694,3645.476Z" fill="none" stroke="#f39200" stroke-miterlimit="10" stroke-width="1.5"/>
    <path id="Path_23346" data-name="Path 23346" d="M996.555,3632.817a11.833,11.833,0,0,0,18.2-10.507,8.453,8.453,0,0,0,2.076-2.154,8.314,8.314,0,0,1-2.39.655,4.162,4.162,0,0,0,1.829-2.3,8.314,8.314,0,0,1-2.641,1.01,4.164,4.164,0,0,0-7.09,3.795,11.807,11.807,0,0,1-8.575-4.347,4.166,4.166,0,0,0,1.288,5.555,4.147,4.147,0,0,1-1.886-.521,4.168,4.168,0,0,0,3.337,4.133,4.179,4.179,0,0,1-1.878.071,4.163,4.163,0,0,0,3.886,2.889A8.364,8.364,0,0,1,996.555,3632.817Z" fill="#f39200"/>
  </g>
</svg>
