<svg xmlns="http://www.w3.org/2000/svg" xmlns:xlink="http://www.w3.org/1999/xlink" width="46.288" height="27" viewBox="0 0 46.288 27">
  <defs>
    <clipPath id="clip-path">
      <rect id="Rectangle_436" data-name="Rectangle 436" width="46.288" height="27" transform="translate(1597.726 53.861)" fill="none"/>
    </clipPath>
  </defs>
  <g id="UNITED_KINGDOM" data-name="UNITED KINGDOM" transform="translate(-1597.726 -53.861)">
    <g id="Group_12118" data-name="Group 12118">
      <g id="Group_12117" data-name="Group 12117">
        <g id="Group_12116" data-name="Group 12116" clip-path="url(#clip-path)">
          <rect id="Rectangle_435" data-name="Rectangle 435" width="46.288" height="27" transform="translate(1597.726 53.861)" fill="#fff"/>
          <path id="Path_23276" data-name="Path 23276" d="M1628.72,63.623l15.295-8.562v-1.2h-1.055l-17.439,9.762Z" fill="#bd0034"/>
          <path id="Path_23277" data-name="Path 23277" d="M1628,71.641l16.017,8.963V78.813L1631.2,71.641Z" fill="#bd0034"/>
          <path id="Path_23278" data-name="Path 23278" d="M1597.726,55.916l13.7,7.707h3.2l-16.9-9.5Z" fill="#bd0034"/>
          <path id="Path_23279" data-name="Path 23279" d="M1613.9,71.641,1597.726,80.7v.156h2.923l16.457-9.22Z" fill="#bd0034"/>
          <path id="Path_23280" data-name="Path 23280" d="M1640.847,53.861H1624.64v9.076Z" fill="#1a237b"/>
          <path id="Path_23281" data-name="Path 23281" d="M1617.485,53.861h-16.142l16.142,9.076Z" fill="#1a237b"/>
          <path id="Path_23282" data-name="Path 23282" d="M1644.015,63.623V57.429l-10.994,6.194Z" fill="#1a237b"/>
          <path id="Path_23283" data-name="Path 23283" d="M1644.015,77.769V71.641H1633.02Z" fill="#1a237b"/>
          <path id="Path_23284" data-name="Path 23284" d="M1602.258,80.861h15.226V72.329Z" fill="#1a237b"/>
          <path id="Path_23285" data-name="Path 23285" d="M1624.64,80.861h15.275l-15.275-8.532Z" fill="#1a237b"/>
          <path id="Path_23286" data-name="Path 23286" d="M1597.726,71.641v6.4l11.377-6.4Z" fill="#1a237b"/>
          <path id="Path_23287" data-name="Path 23287" d="M1597.726,63.623H1609.1l-11.377-6.414Z" fill="#1a237b"/>
          <path id="Path_23288" data-name="Path 23288" d="M1618.916,53.861V65.227h-21.19v4.814h21.19v10.82h4.292V70.041h20.806V65.227h-20.806V53.861Z" fill="#bd0034"/>
        </g>
      </g>
    </g>
  </g>
</svg>
