<svg xmlns="http://www.w3.org/2000/svg" xmlns:xlink="http://www.w3.org/1999/xlink" width="34.636" height="20.204" viewBox="0 0 34.636 20.204">
  <defs>
    <clipPath id="clip-path">
      <rect id="Rectangle_518" data-name="Rectangle 518" width="34.636" height="20.204" transform="translate(830.933 3111.292)" fill="none"/>
    </clipPath>
  </defs>
  <g id="UNITED_KINGDOM" data-name="UNITED KINGDOM" transform="translate(-830.933 -3111.292)">
    <g id="Group_12188" data-name="Group 12188">
      <g id="Group_12187" data-name="Group 12187">
        <g id="Group_12186" data-name="Group 12186" clip-path="url(#clip-path)">
          <rect id="Rectangle_517" data-name="Rectangle 517" width="34.636" height="20.204" transform="translate(830.933 3111.292)" fill="#fff"/>
          <path id="Path_23396" data-name="Path 23396" d="M854.125,3118.6l11.445-6.407v-.9h-.789l-13.049,7.3Z" fill="#bd0034"/>
          <path id="Path_23397" data-name="Path 23397" d="M853.584,3124.6l11.985,6.707v-1.34l-9.59-5.366Z" fill="#bd0034"/>
          <path id="Path_23398" data-name="Path 23398" d="M830.933,3112.83l10.253,5.767h2.4l-12.648-7.108Z" fill="#bd0034"/>
          <path id="Path_23399" data-name="Path 23399" d="M843.038,3124.6l-12.1,6.782v.117h2.187l12.314-6.9Z" fill="#bd0034"/>
          <path id="Path_23400" data-name="Path 23400" d="M863.2,3111.292H851.072v6.792Z" fill="#1a237b"/>
          <path id="Path_23401" data-name="Path 23401" d="M845.717,3111.292H833.639l12.079,6.792Z" fill="#1a237b"/>
          <path id="Path_23402" data-name="Path 23402" d="M865.569,3118.6v-4.635l-8.227,4.635Z" fill="#1a237b"/>
          <path id="Path_23403" data-name="Path 23403" d="M865.569,3129.182V3124.6h-8.227Z" fill="#1a237b"/>
          <path id="Path_23404" data-name="Path 23404" d="M834.324,3131.5h11.393v-6.385Z" fill="#1a237b"/>
          <path id="Path_23405" data-name="Path 23405" d="M851.072,3131.5H862.5l-11.43-6.385Z" fill="#1a237b"/>
          <path id="Path_23406" data-name="Path 23406" d="M830.933,3124.6v4.792l8.513-4.792Z" fill="#1a237b"/>
          <path id="Path_23407" data-name="Path 23407" d="M830.933,3118.6h8.513l-8.513-4.8Z" fill="#1a237b"/>
          <path id="Path_23408" data-name="Path 23408" d="M846.789,3111.292v8.5H830.933v3.6h15.856v8.1H850v-8.1h15.569v-3.6H850v-8.5Z" fill="#bd0034"/>
        </g>
      </g>
    </g>
  </g>
</svg>
