<svg xmlns="http://www.w3.org/2000/svg" width="23.766" height="23.76" viewBox="0 0 23.766 23.76">
  <path id="Path_23353" data-name="Path 23353" d="M368.986,3424.547a21.625,21.625,0,0,0-6.89-2.75,16.766,16.766,0,0,0,2.83-6.06c.56-2.33.35-6.87-1.89-9.7a6.754,6.754,0,0,0-10.54,0c-2.24,2.83-2.45,7.37-1.89,9.7a16.766,16.766,0,0,0,2.83,6.06,21.626,21.626,0,0,0-6.89,2.75,1.484,1.484,0,0,0,.83,2.72h20.78a1.484,1.484,0,0,0,.83-2.72m-8.05-3.67-.25.31c-1.77,2.04-4.07,2.04-5.84,0l-.25-.31a12.678,12.678,0,0,1-2.65-9.39c.4-3.18,2.23-6.5,5.82-6.5s5.42,3.32,5.82,6.5a12.678,12.678,0,0,1-2.65,9.39m-13.56,4.9a20.507,20.507,0,0,1,6.37-2.53l1.84-.39a3.745,3.745,0,0,0,4.36,0l1.84.39a20.322,20.322,0,0,1,6.37,2.53Z" transform="translate(-345.883 -3403.507)" fill="#fff" fill-rule="evenodd"/>
</svg>
