<svg xmlns="http://www.w3.org/2000/svg" width="22.401" height="33.907" viewBox="0 0 22.401 33.907">
  <g id="Group_12123" data-name="Group 12123" transform="translate(-1811.525 -50.408)">
    <g id="Group_12122" data-name="Group 12122">
      <path id="Path_23292" data-name="Path 23292" d="M1830.108,58.436a7.383,7.383,0,1,1-7.386-7.385A7.372,7.372,0,0,1,1830.108,58.436Z" fill="none" stroke="#c4a36b" stroke-miterlimit="10" stroke-width="1.286" fill-rule="evenodd"/>
      <path id="Path_23293" data-name="Path 23293" d="M1833.283,70.18v7.912a5.6,5.6,0,0,1-5.579,5.58h-9.957a5.6,5.6,0,0,1-5.579-5.58V70.18a5.6,5.6,0,0,1,5.579-5.58h.919a7.354,7.354,0,0,0,8.119,0h.919A5.6,5.6,0,0,1,1833.283,70.18Z" fill="none" stroke="#c4a36b" stroke-miterlimit="10" stroke-width="1.286" fill-rule="evenodd"/>
    </g>
  </g>
</svg>
