<svg xmlns="http://www.w3.org/2000/svg" width="30.644" height="30.65" viewBox="0 0 30.644 30.65">
  <g id="Group_11400" data-name="Group 11400" transform="translate(-646.978 -808.61)">
    <g id="Group_11399" data-name="Group 11399">
      <g id="Group_11397" data-name="Group 11397">
        <g id="Group_11396" data-name="Group 11396">
          <path id="Path_19256" data-name="Path 19256" d="M677.615,823.16a15.047,15.047,0,0,0-30.066-.274c-.007.218-.014.436-.014.654a14.812,14.812,0,0,0,2.155,7.713l-2.712,8.007,8.332-2.648a15.063,15.063,0,0,0,22.312-13.072C677.622,823.414,677.622,823.287,677.615,823.16Zm-15.037,12.931a12.6,12.6,0,0,1-6.958-2.078l-4.86,1.55,1.578-4.663a12.425,12.425,0,0,1-2.409-7.36,11.73,11.73,0,0,1,.064-1.218,12.654,12.654,0,0,1,25.192.239c.028.325.042.648.042.979A12.613,12.613,0,0,1,662.578,836.091Z" fill="#fff" fill-rule="evenodd"/>
        </g>
      </g>
      <g id="Group_11398" data-name="Group 11398">
        <path id="Path_19257" data-name="Path 19257" d="M669.473,826.555c-.373-.183-2.183-1.071-2.521-1.19s-.585-.184-.831.183-.958,1.19-1.169,1.429-.43.275-.8.092a9.986,9.986,0,0,1-2.965-1.817,10.937,10.937,0,0,1-2.05-2.529c-.211-.366-.021-.563.162-.746s.367-.43.557-.641c.049-.063.091-.12.133-.176a4.139,4.139,0,0,0,.233-.437.659.659,0,0,0-.028-.641c-.092-.183-.831-1.986-1.141-2.718s-.613-.606-.831-.606-.458-.035-.705-.035a1.364,1.364,0,0,0-.985.458,4.092,4.092,0,0,0-1.289,3.056,4.64,4.64,0,0,0,.19,1.247,8.308,8.308,0,0,0,1.317,2.536c.183.239,2.549,4.056,6.3,5.528s3.754.972,4.43.909a3.68,3.68,0,0,0,2.486-1.74,3.037,3.037,0,0,0,.219-1.74C670.086,826.83,669.839,826.738,669.473,826.555Z" fill="#fff" fill-rule="evenodd"/>
      </g>
    </g>
  </g>
</svg>
