<svg xmlns="http://www.w3.org/2000/svg" width="70.467" height="70.468" viewBox="0 0 70.467 70.468">
  <path id="Path_23322" data-name="Path 23322" d="M1572.761,1250.368h-57.639a6.381,6.381,0,0,0-6.414,6.415v57.638a6.381,6.381,0,0,0,6.414,6.415h57.639a6.382,6.382,0,0,0,6.414-6.415v-57.638a6.382,6.382,0,0,0-6.414-6.415m-60.846,6.415a3.219,3.219,0,0,1,3.207-3.207h7.905a12.847,12.847,0,0,1-11.112,11.112Zm0,11.112a15.981,15.981,0,0,0,14.319-14.319h16.126v2.349h-.045l-3.3.813a3.29,3.29,0,0,0-2.3,2.3,27.238,27.238,0,0,1-2.755,6.595,3.121,3.121,0,0,0,.044,3.253l1.762,2.936-5.6,5.6a.044.044,0,0,1-.045-.045l-2.936-1.717a3,3,0,0,0-1.627-.5,3.526,3.526,0,0,0-1.626.452,26.04,26.04,0,0,1-6.55,2.711,3.214,3.214,0,0,0-2.258,2.348l-.858,3.3v.045h-2.349Zm52.85,49.734h-11.157a15.837,15.837,0,0,1-3.253-9.622,15.522,15.522,0,0,1,1.311-6.324l8.537,4.743a6.055,6.055,0,0,0-.226,1.581,6.4,6.4,0,0,0,4.788,6.189Zm-1.626-9.622a3.207,3.207,0,1,1,3.207,3.207,3.219,3.219,0,0,1-3.207-3.207m12.829,6.414a3.22,3.22,0,0,1-3.207,3.208h-4.789V1314.2a6.4,6.4,0,0,0,4.789-6.189,6.1,6.1,0,0,0-.226-1.581l3.433-1.9Zm0-13.551-4.969,2.755a6.388,6.388,0,0,0-9.26,0l-8.538-4.743a16.011,16.011,0,0,1,13.145-6.866,15.737,15.737,0,0,1,9.622,3.253Zm0-9.4a18.881,18.881,0,0,0-9.622-2.665,19.181,19.181,0,0,0-19.2,19.2,18.883,18.883,0,0,0,2.664,9.622h-14.048l-1.355-5.15,2.981-1.671a3.144,3.144,0,0,0,1.672-2.8,26.481,26.481,0,0,1,.9-7.047,3.272,3.272,0,0,0-.858-3.162l-2.439-2.349,3.93-6.866,3.3.949a3.17,3.17,0,0,0,3.117-.813,26.382,26.382,0,0,1,5.691-4.337,3.183,3.183,0,0,0,1.582-2.845l-.046-3.388v-.045l7.68-2.033,1.671,2.981a2.79,2.79,0,0,0,1.174,1.22,2.952,2.952,0,0,0,1.627.452,26.769,26.769,0,0,1,7.046.948,3.3,3.3,0,0,0,2.53-.406Zm0-14.68-1.717,1.761a31.341,31.341,0,0,0-7.859-1.039l-1.717-3.071a3.81,3.81,0,0,0-1.355-1.446,2.014,2.014,0,0,0-1.536-.226l-9.08,2.44c-1.264.316-1.58,1.671-1.671,2.891l.091,3.478a29.877,29.877,0,0,0-6.37,4.878l-3.342-.993c-1.13-.317-2.575-.271-3.207.858l-4.7,8.131c-.633,1.129.045,2.349.858,3.252l2.484,2.394a31.622,31.622,0,0,0-.993,7.9l-3.072,1.717a2.74,2.74,0,0,0-1.671,2.891l1.355,5.014h-17.346a3.22,3.22,0,0,1-3.207-3.208v-27.238h3.072c1.309,0,1.987-1.174,2.348-2.349l.859-3.388a31.224,31.224,0,0,0,7.362-3.071l3.027,1.852a4.8,4.8,0,0,0,1.942.542,2,2,0,0,0,1.356-.542l6.685-6.686c.9-.9.587-2.258,0-3.3l-1.807-3.027a29.388,29.388,0,0,0,3.027-7.363l3.387-.858c1.175-.361,2.349-1.039,2.349-2.349v-3.071h27.239a3.219,3.219,0,0,1,3.207,3.207Z" transform="translate(-1508.708 -1250.368)" fill="#c4a36b" fill-rule="evenodd"/>
</svg>
