<svg xmlns="http://www.w3.org/2000/svg" width="62.052" height="62.052" viewBox="0 0 62.052 62.052">
  <g id="Group_12333" data-name="Group 12333" transform="translate(-1233.264 -1919.901)">
    <circle id="Ellipse_61" data-name="Ellipse 61" cx="31.026" cy="31.026" r="31.026" transform="translate(1233.264 1919.901)" fill="#23292f"/>
    <path id="Path_23337" data-name="Path 23337" d="M1231.427,1893.217h5.6l-11.664,11.551a10.9,10.9,0,0,1-15.3,0l-11.674-11.551h5.614l8.862,8.77a6.9,6.9,0,0,0,9.688,0Zm-27.488,32.118h-5.613l11.741-11.622a10.9,10.9,0,0,1,15.3,0l11.741,11.62h-5.613l-8.93-8.847a6.9,6.9,0,0,0-9.688,0l-8.94,8.849Z" transform="translate(46.573 42.198)" fill="#fff"/>
  </g>
</svg>
