<svg xmlns="http://www.w3.org/2000/svg" width="39.561" height="39.561" viewBox="0 0 39.561 39.561">
  <g id="Group_12158" data-name="Group 12158" transform="translate(-1095.628 -3606.666)">
    <path id="Path_23343" data-name="Path 23343" d="M1115.409,3645.477h0a19.032,19.032,0,0,1-19.031-19.031h0a19.031,19.031,0,0,1,19.031-19.03h0a19.03,19.03,0,0,1,19.03,19.03h0A19.031,19.031,0,0,1,1115.409,3645.477Z" fill="none" stroke="#f39200" stroke-miterlimit="10" stroke-width="1.5"/>
    <path id="Path_23344" data-name="Path 23344" d="M1125.9,3621.139a2.752,2.752,0,0,0-1.936-1.95c-1.709-.46-8.559-.46-8.559-.46s-6.851,0-8.559.46a2.754,2.754,0,0,0-1.937,1.95,30.976,30.976,0,0,0,0,10.614,2.75,2.75,0,0,0,1.937,1.949c1.708.462,8.559.462,8.559.462s6.85,0,8.559-.462a2.749,2.749,0,0,0,1.936-1.949,30.976,30.976,0,0,0,0-10.614Zm-12.736,8.564v-6.515l5.726,3.258Z" fill="#f39200"/>
  </g>
</svg>
